<svg width="200" height="200" xmlns="http://www.w3.org/2000/svg" xmlns:xlink="http://www.w3.org/1999/xlink" xml:space="preserve" overflow="hidden"><defs><linearGradient x1="54.5602" y1="23.3517" x2="187.689" y2="100.217" gradientUnits="userSpaceOnUse" spreadMethod="pad" id="fill1"><stop offset="0" stop-color="#F0364C" stop-opacity="0.5"/><stop offset="0.12" stop-color="#F0364C" stop-opacity="0.5"/><stop offset="0.261" stop-color="#F0364C" stop-opacity="0.454"/><stop offset="0.507" stop-color="#F0364C" stop-opacity="0.333"/><stop offset="0.65" stop-color="#F0364C" stop-opacity="0.25"/><stop offset="1" stop-color="#F0364C" stop-opacity="0"/></linearGradient><linearGradient x1="35.2737" y1="149.499" x2="193.49" y2="91.914" gradientUnits="userSpaceOnUse" spreadMethod="pad" id="fill2"><stop offset="0" stop-color="#920B18"/><stop offset="0.166" stop-color="#920B18"/><stop offset="0.55" stop-color="#F0364C"/><stop offset="0.8" stop-color="#FF5C39"/><stop offset="1" stop-color="#FF5C39"/></linearGradient><linearGradient x1="58.5166" y1="140.621" x2="124.615" y2="171.446" gradientUnits="userSpaceOnUse" spreadMethod="pad" id="fill3"><stop offset="0" stop-color="#6E0811" stop-opacity="0.75"/><stop offset="0.114" stop-color="#6E0811" stop-opacity="0.75"/><stop offset="0.699" stop-color="#6E0811" stop-opacity="0"/><stop offset="1" stop-color="#6E0811" stop-opacity="0"/></linearGradient><linearGradient x1="14.1043" y1="154.809" x2="98.3407" y2="106.171" gradientUnits="userSpaceOnUse" spreadMethod="pad" id="fill4"><stop offset="0" stop-color="#920B18"/><stop offset="0.026" stop-color="#A41322"/><stop offset="0.074" stop-color="#BF1F31"/><stop offset="0.126" stop-color="#D5293D"/><stop offset="0.183" stop-color="#E43045"/><stop offset="0.25" stop-color="#ED344A"/><stop offset="0.35" stop-color="#F0364C"/><stop offset="0.75" stop-color="#FF5C39"/><stop offset="1" stop-color="#FF5C39"/></linearGradient><linearGradient x1="91.9969" y1="19.714" x2="149.282" y2="67.7771" gradientUnits="userSpaceOnUse" spreadMethod="pad" id="fill5"><stop offset="0" stop-color="#6E0811" stop-opacity="0"/><stop offset="0.5" stop-color="#6E0811" stop-opacity="0"/><stop offset="0.581" stop-color="#6E0811" stop-opacity="0.093"/><stop offset="0.72" stop-color="#6E0811" stop-opacity="0.342"/><stop offset="0.899" stop-color="#6E0811" stop-opacity="0.744"/><stop offset="1" stop-color="#6E0811"/></linearGradient></defs><g clip-path="url(#clip0)" transform="translate(-743 -221)"><path d="M42.7406 67.1517 101.959 67.1517C118.61 67.1517 132.516 78.7606 136.078 94.3136L191.103 94.3136C187.14 48.6245 148.759 12.7703 101.966 12.7703L81.6517 12.7703C79.5073 12.7703 77.5672 13.6319 76.1631 15.0359L37.2329 53.9025C35.8289 55.3065 34.9609 57.2467 34.9609 59.391 34.9609 63.6797 38.4455 67.1517 42.7406 67.1517Z" fill="#73262F" transform="matrix(1.00335 0 0 1 742.646 216.726)"/><path d="M42.7406 67.1517 101.959 67.1517C118.61 67.1517 132.516 78.7606 136.078 94.3136L191.103 94.3136C187.14 48.6245 148.759 12.7703 101.966 12.7703L81.6517 12.7703C79.5073 12.7703 77.5672 13.6319 76.1631 15.0359L37.2329 53.9025C35.8289 55.3065 34.9609 57.2467 34.9609 59.391 34.9609 63.6797 38.4455 67.1517 42.7406 67.1517Z" fill="url(#fill1)" transform="matrix(1.00335 0 0 1 742.646 216.726)"/><path d="M158.281 32.7143C158.651 33.0206 159.015 33.3461 159.366 33.6907 165.441 39.76 165.441 49.5947 159.366 55.6641L131.559 83.4195C134.993 88.8251 136.977 95.2326 136.977 102.106 136.977 121.418 121.297 137.067 101.953 137.067 93.9371 137.067 86.5786 134.348 80.6752 129.83L42.2365 168.639C58.0767 182.82 79.0031 191.454 101.953 191.454 151.382 191.454 191.454 151.452 191.454 102.106 191.454 74.0762 178.505 49.0906 158.274 32.7079L158.281 32.7143Z" fill="url(#fill2)" transform="matrix(1.00335 0 0 1 742.646 216.726)"/><path d="M122.273 130.48C110.69 138.789 95.1816 139.198 83.2216 131.68L57.7507 157.106C51.675 163.175 51.675 173.01 57.7507 179.079 58.9633 180.285 60.3227 181.255 61.7714 181.983 80.6178 191.409 102.1 193.777 122.267 189.08L122.273 130.48Z" fill="url(#fill3)" transform="matrix(1.00335 0 0 1 742.646 216.726)"/><path d="M61.778 181.984C53.4112 177.797 45.5677 172.225 38.5857 165.256 23.3391 150.035 14.7425 130.698 12.796 110.824 12.5279 106.529 14.0341 102.144 17.3272 98.864 20.3714 95.8198 24.3666 94.3072 28.3617 94.3136L101.921 94.3136C103.899 94.32 105.871 95.0795 107.378 96.5856 110.415 99.6171 110.415 104.538 107.378 107.575L57.7574 157.113C51.6817 163.182 51.6817 173.017 57.7574 179.086 58.9699 180.292 60.3293 181.262 61.778 181.99L61.778 181.984Z" fill="url(#fill4)" transform="matrix(1.00335 0 0 1 742.646 216.726)"/><path d="M159.366 33.697 159.334 33.6715C143.793 20.6713 123.824 12.7703 101.959 12.7703L97.8237 12.7703 97.8237 67.1517 101.959 67.1517C114.417 67.1517 125.337 73.655 131.54 83.445L131.559 83.4259 159.366 55.6703C165.441 49.601 165.441 39.7663 159.366 33.697Z" fill="url(#fill5)" transform="matrix(1.00335 0 0 1 742.646 216.726)"/></g></svg>