<svg width="16" height="16" viewBox="0 0 16 16" fill="none" xmlns="http://www.w3.org/2000/svg">
<path d="M1.5 15.5C0.720304 15.5 0.0795514 14.9051 0.00686669 14.1445L0 14V3C0 2.2203 0.594888 1.57955 1.35554 1.50687L1.5 1.5H6C6.7797 1.5 7.42045 2.09489 7.49313 2.85554L7.5 3V3.25443L9.68859 0.985178C10.2276 0.42599 11.0959 0.37568 11.6956 0.847065L11.8118 0.948302L14.5694 3.67295C15.1219 4.21884 15.1614 5.08769 14.68 5.68413L14.5767 5.79961L12.266 7.99943L12.5 8C13.2797 8 13.9204 8.59489 13.9931 9.35554L14 9.5V14C14 14.7797 13.4051 15.4204 12.6445 15.4931L12.5 15.5H1.5ZM6.5 9H1V14C1 14.2148 1.13542 14.3979 1.32553 14.4687L1.41012 14.4919L1.5 14.5H6.5V9ZM12.5 9H7.5V14.5H12.5C12.7455 14.5 12.9496 14.3231 12.9919 14.0899L13 14V9.5C13 9.25454 12.8231 9.05039 12.5899 9.00806L12.5 9ZM7.5 6.20943V7.99943H9.29L7.5 6.20943ZM6 2.5H1.5C1.25454 2.5 1.05039 2.67688 1.00806 2.91012L1 3V8H6.5V3C6.5 2.78522 6.36458 2.60207 6.17447 2.53128L6.08988 2.50806L6 2.5ZM11.1222 1.67265C10.9396 1.49652 10.6692 1.48155 10.4768 1.62004L10.4086 1.67915L7.79255 4.39329C7.62705 4.565 7.60856 4.82501 7.73563 5.01644L7.799 5.09383L10.4147 7.70955C10.5826 7.87746 10.8409 7.90135 11.0345 7.77931L11.1131 7.71806L13.8708 5.09139C14.0433 4.91679 14.061 4.64725 13.9248 4.45319L13.8665 4.38429L11.1222 1.67265Z" fill="black"/>
</svg>
