<svg id="fluenttablecolumnbrackets" xmlns="http://www.w3.org/2000/svg" width="2048" height="2048" fill="currentColor" viewBox="0 0 2048 2048">
        <path d="M4.5 2A2.5 2.5 0 0 0 2 4.5v7A2.5 2.5 0 0 0 4.5 14H7v-1H6v-2h1v-.5c0-.171.017-.338.05-.5H6V6h4v2h1V6h2v2h.5c.175 0 .344.03.5.085V4.5A2.5 2.5 0 0 0 11.5 2h-7ZM10 5H6V3h4v2Zm3-.5V5h-2V3h.5A1.5 1.5 0 0 1 13 4.5ZM4.5 13A1.5 1.5 0 0 1 3 11.5v-7A1.5 1.5 0 0 1 4.5 3H5v10h-.5Z"/>
        <path d="M9.5 10a.5.5 0 0 0-.5.5v4a.5.5 0 0 0 .5.5h1a.5.5 0 0 1 0 1h-1A1.5 1.5 0 0 1 8 14.5v-4A1.5 1.5 0 0 1 9.5 9h1a.5.5 0 0 1 0 1h-1ZM14.5 10a.5.5 0 0 1 .5.5v4a.5.5 0 0 1-.5.5h-1a.5.5 0 0 0 0 1h1a1.5 1.5 0 0 0 1.5-1.5v-4A1.5 1.5 0 0 0 14.5 9h-1a.5.5 0 0 0 0 1h1Z"/>
    </svg>
