<?xml version="1.0" encoding="UTF-8" standalone="no"?>
<svg
   xmlns:dc="http://purl.org/dc/elements/1.1/"
   xmlns:cc="http://creativecommons.org/ns#"
   xmlns:rdf="http://www.w3.org/1999/02/22-rdf-syntax-ns#"
   xmlns:svg="http://www.w3.org/2000/svg"
   xmlns="http://www.w3.org/2000/svg"
   viewBox="0 0 1920 1792"
   version="1.1"
   id="svg855"
   width="1920"
   height="1792">
  <metadata
     id="metadata861">
    <rdf:RDF>
      <cc:Work
         rdf:about="">
        <dc:format>image/svg+xml</dc:format>
        <dc:type
           rdf:resource="http://purl.org/dc/dcmitype/StillImage" />
        <dc:title></dc:title>
      </cc:Work>
    </rdf:RDF>
  </metadata>
  <defs
     id="defs859" />
  <path
     d="m 1920,1101 q 0,29 -21,43 -21,14 -47,15 -17,0 -33,-4 -16,-4 -33,-10 -35,31 -61,70 -26,39 -51,79 6,26 13,64 7,38 21,74 14,36 36,60 22,24 58,25 6,0 15,-1 9,-1 20,-2 11,-1 19,-4 8,-3 14,-5 l -9,34 q -32,14 -62,24 -30,10 -66,10 -20,0 -38,-5 -18,-5 -31,-22 -9,-12 -18,-34 -9,-22 -16,-48 -7,-26 -14,-49 -7,-23 -10,-40 -11,18 -27,43 -16,25 -36,52 -20,27 -39,48 -19,21 -36,34 -28,21 -63,21 -25,0 -40,-13 -15,-13 -16,-39 0,-30 21,-45 21,-15 49,-15 17,0 33,6 16,6 32,11 33,-32 60,-68 27,-36 51,-77 -2,-13 -10,-45 -8,-32 -19,-67 -11,-35 -23,-64 -12,-29 -22,-35 -10,-6 -21,-8 -11,-2 -23,-3 -16,0 -32,3 -16,3 -31,9 l 9,-34 q 7,-3 23,-9 16,-6 33,-13 17,-7 34,-11 17,-4 24,-5 31,0 51,14 20,14 32,36 12,22 19,48 7,26 13,52 3,12 7,26 4,14 4,27 18,-25 38,-60 20,-35 45,-67 25,-32 53,-55 28,-23 67,-23 23,0 38,14 15,14 16,38 z m -965,307 -27,128 H 0 V 0 h 1664 v 704 q -26,-35 -56,-54 -30,-19 -72,-30 V 384 h -384 v 256 h 161 q -6,3 -13,5 -7,2 -13,5 -38,18 -70,45 -32,27 -60,61 -28,34 -48,70 -20,36 -38,76 h -47 V 768 H 640 v 256 h 299 l -16,64 -16,64 H 640 v 256 z m 69,-768 V 384 H 640 V 640 Z M 128,128 V 256 H 1536 V 128 Z M 512,1408 V 384 H 128 v 1024 z m 906,-346 -11,47 h -128 l -91,424 q -10,45 -33,91 -23,46 -58,83 -35,37 -77,61 -42,24 -94,24 -15,0 -30,-3 -15,-3 -28,-9 -13,-6 -21,-19 -8,-13 -8,-30 0,-23 14,-39 14,-16 38,-16 15,0 27,7 12,7 22,19 10,12 18,24 8,12 14,24 27,-2 47,-25 20,-23 33,-54 13,-31 22,-64 9,-33 14,-54 l 96,-444 h -101 l 11,-46 h 99 q 7,-34 15,-65 8,-31 23,-63 15,-33 38,-63 23,-30 52,-53 29,-23 63,-37 34,-14 73,-14 15,0 30,3 15,3 29,9 14,6 21,19 7,13 8,30 0,25 -13,40 -13,15 -39,16 -18,0 -30,-7 -12,-7 -20,-18 -8,-11 -16,-24 -8,-13 -15,-26 -21,2 -37,16 -16,14 -29,37 -13,23 -22,51 -9,28 -17,55 -8,27 -11,52 -3,25 -8,41 z"
     id="path853" />
</svg>
