<svg id="fluentcalculatorbrackets" width="16" height="16" viewBox="0 0 16 16" fill="currentColor" xmlns="http://www.w3.org/2000/svg">
        <path d="M2 3.5C2 2.67157 2.67157 2 3.5 2H5.5C5.77614 2 6 1.77614 6 1.5C6 1.22386 5.77614 1 5.5 1H3.5C2.11929 1 1 2.11929 1 3.5V12.5C1 13.8807 2.11929 15 3.5 15H5.5C5.77614 15 6 14.7761 6 14.5C6 14.2239 5.77614 14 5.5 14H3.5C2.67157 14 2 13.3284 2 12.5V3.5Z"/>
        <path d="M13 12.5C13 13.3284 12.3284 14 11.5 14H9.5C9.22386 14 9 14.2239 9 14.5C9 14.7761 9.22386 15 9.5 15H11.5C12.8807 15 14 13.8807 14 12.5L14 3.5C14 2.11929 12.8807 1 11.5 1H9.5C9.22386 1 9 1.22386 9 1.5C9 1.77614 9.22386 2 9.5 2L11.5 2C12.3284 2 13 2.67157 13 3.5L13 12.5Z"/>
        <path d="M5.5 4C4.67157 4 4 4.67157 4 5.5V10.5C4 11.3284 4.67157 12 5.5 12H9.5C10.3284 12 11 11.3284 11 10.5V5.5C11 4.67157 10.3284 4 9.5 4H5.5ZM5 8.5C5 8.22386 5.22386 8 5.5 8H6.5C6.77614 8 7 8.22386 7 8.5C7 8.77614 6.77614 9 6.5 9H5.5C5.22386 9 5 8.77614 5 8.5ZM9.5 8C9.77614 8 10 8.22386 10 8.5C10 8.77614 9.77614 9 9.5 9H8.5C8.22386 9 8 8.77614 8 8.5C8 8.22386 8.22386 8 8.5 8H9.5ZM5 10.5C5 10.2239 5.22386 10 5.5 10H6.5C6.77614 10 7 10.2239 7 10.5C7 10.7761 6.77614 11 6.5 11H5.5C5.22386 11 5 10.7761 5 10.5ZM9.5 10C9.77614 10 10 10.2239 10 10.5C10 10.7761 9.77614 11 9.5 11H8.5C8.22386 11 8 10.7761 8 10.5C8 10.2239 8.22386 10 8.5 10H9.5ZM5 5.5C5 5.22386 5.22386 5 5.5 5H9.5C9.77614 5 10 5.22386 10 5.5V6.5C10 6.77614 9.77614 7 9.5 7H5.5C5.22386 7 5 6.77614 5 6.5V5.5Z"/>
    </svg>