<svg xmlns="http://www.w3.org/2000/svg" viewBox="0 0 2048 2048">
  <path d="M2048 1357q0 29-21 43t-47 15q-17 0-33-4t-33-10q-35 31-61 70t-51 79q6 26 13 64t21 74 36 60 58 25q6 0 15-1t20-2 19-4 14-5l-9 34q-32 14-62 24t-66 10q-20 0-38-5t-31-22q-9-12-18-34t-16-48-14-49-10-40q-11 18-27 43t-36 52-39 48-36 34q-28 21-63 21-25 0-40-13t-16-39q0-30 21-45t49-15q17 0 33 6t32 11q33-32 60-68t51-77q-2-13-10-45t-19-67-23-64-22-35q-10-6-21-8t-23-3q-16 0-32 3t-31 9l9-34q7-3 23-9t33-13 34-11 24-5q31 0 51 14t32 36 19 48 13 52q3 12 7 26t4 27q18-25 38-60t45-67 53-55 67-23q23 0 38 14t16 38zm-965 307l-27 128H128V256h1664v704q-26-35-56-54t-72-30V640h-384v256h161q-6 3-13 5t-13 5q-38 18-70 45t-60 61-48 70-38 76h-47v-134H768v256h299l-16 64-16 64H768v256h315zm69-768V640H768v256h384zM256 384v128h1408V384H256zm384 1280V640H256v1024h384zm906-346l-11 47h-128l-91 424q-10 45-33 91t-58 83-77 61-94 24q-15 0-30-3t-28-9-21-19-8-30q0-23 14-39t38-16q15 0 27 7t22 19 18 24 14 24q27-2 47-25t33-54 22-64 14-54l96-444h-101l11-46h99q7-34 15-65t23-63q15-33 38-63t52-53 63-37 73-14q15 0 30 3t29 9 21 19 8 30q0 25-13 40t-39 16q-18 0-30-7t-20-18-16-24-15-26q-21 2-37 16t-29 37-22 51-17 55-11 52-8 41h130z" />
</svg>