<svg id="fluentmulticalculatorsbrackets" width="16" height="16" viewBox="0 0 16 16" fill="currentColor" xmlns="http://www.w3.org/2000/svg">
        <path d="M2 3.5C2 2.67157 2.67157 2 3.5 2H5.5C5.77614 2 6 1.77614 6 1.5C6 1.22386 5.77614 1 5.5 1H3.5C2.11929 1 1 2.11929 1 3.5V12.5C1 13.8807 2.11929 15 3.5 15H5.5C5.77614 15 6 14.7761 6 14.5C6 14.2239 5.77614 14 5.5 14H3.5C2.67157 14 2 13.3284 2 12.5V3.5Z"/>
        <path d="M14 12.5C14 13.3284 13.3284 14 12.5 14H10.5C10.2239 14 10 14.2239 10 14.5C10 14.7761 10.2239 15 10.5 15H12.5C13.8807 15 15 13.8807 15 12.5L15 3.5C15 2.11929 13.8807 1 12.5 1H10.5C10.2239 1 10 1.22386 10 1.5C10 1.77614 10.2239 2 10.5 2L12.5 2C13.3284 2 14 2.67157 14 3.5L14 12.5Z"/>
        <path d="M5.5 4C4.67157 4 4 4.67157 4 5.5V9.5C4 10.3284 4.67157 11 5.5 11H8.5C9.32843 11 10 10.3284 10 9.5V5.5C10 4.67157 9.32843 4 8.5 4H5.5ZM5 5.5C5 5.22386 5.22386 5 5.5 5H8.5C8.77614 5 9 5.22386 9 5.5C9 5.77614 8.77614 6 8.5 6H5.5C5.22386 6 5 5.77614 5 5.5ZM5 7.5C5 7.22386 5.22386 7 5.5 7H6C6.27614 7 6.5 7.22386 6.5 7.5C6.5 7.77614 6.27614 8 6 8H5.5C5.22386 8 5 7.77614 5 7.5ZM7.5 7.5C7.5 7.22386 7.72386 7 8 7H8.5C8.77614 7 9 7.22386 9 7.5C9 7.77614 8.77614 8 8.5 8H8C7.72386 8 7.5 7.77614 7.5 7.5ZM7.5 9.46875C7.5 9.19261 7.72386 8.96875 8 8.96875H8.5C8.77614 8.96875 9 9.19261 9 9.46875C9 9.74489 8.77614 9.96875 8.5 9.96875H8C7.72386 9.96875 7.5 9.74489 7.5 9.46875ZM5 9.46875C5 9.19261 5.22386 8.96875 5.5 8.96875H6C6.27614 8.96875 6.5 9.19261 6.5 9.46875C6.5 9.74489 6.27614 9.96875 6 9.96875H5.5C5.22386 9.96875 5 9.74489 5 9.46875Z"/>
        <path d="M6.37891 12C6.78254 12.603 7.46991 13 8.25002 13H9.75002C10.9927 13 12 11.9927 12 10.75V8.25002C12 7.46992 11.603 6.78254 11 6.37891V10.75C11 11.4404 10.4404 12 9.75002 12H6.37891Z"/>
    </svg>