<svg xmlns="http://www.w3.org/2000/svg" viewBox="0 0 2048 2048">
  <path d="M1280 1664v128h-128v-128h128zM896 640h1152v1408H896V640zm1024 1280V768h-896v1152h896zm-512-128v-128h128v128h-128zm-128-384v128h-128v-128h128zm384 128v-128h128v128h-128zm128-640v384h-640V896h640zm-128 256v-128h-384v128h384zm0 640v-128h128v128h-128zm-256-256v-128h128v128h-128zM640 384v256h128v128H640v256h128v128H640v256h128v128H0V0h1664v512h-128V384h-384v128h-128V384H640zM512 1408v-256H128v256h384zm0-384V768H128v256h384zm0-384V384H128v256h384zM128 256h1408V128H128v128z" />
</svg>