<?xml version="1.0" encoding="UTF-8" standalone="no"?>
<svg
   xmlns:dc="http://purl.org/dc/elements/1.1/"
   xmlns:cc="http://creativecommons.org/ns#"
   xmlns:rdf="http://www.w3.org/1999/02/22-rdf-syntax-ns#"
   xmlns:svg="http://www.w3.org/2000/svg"
   xmlns="http://www.w3.org/2000/svg"
   viewBox="0 0 1280 2048"
   version="1.1"
   id="svg1484"
   width="1280"
   height="2048">
  <metadata
     id="metadata1490">
    <rdf:RDF>
      <cc:Work
         rdf:about="">
        <dc:format>image/svg+xml</dc:format>
        <dc:type
           rdf:resource="http://purl.org/dc/dcmitype/StillImage" />
        <dc:title></dc:title>
      </cc:Work>
    </rdf:RDF>
  </metadata>
  <defs
     id="defs1488" />
  <path
     d="m 640,1024 q -80,0 -149,-30 -69,-30 -122,-82 -53,-52 -83,-122 -30,-70 -30,-150 0,-79 30,-149 30,-70 82,-122 52,-52 122,-83 70,-31 150,-30 79,0 149,30 70,30 122,82 52,52 83,123 31,71 30,149 0,80 -30,149 -30,69 -82,122 -52,53 -123,83 -71,30 -149,30 z m 0,-640 q -53,0 -99,20 -46,20 -82,55 -36,35 -55,81 -19,46 -20,100 0,53 20,99 20,46 55,82 35,36 81,55 46,19 100,20 53,0 99,-20 46,-20 82,-55 36,-35 55,-81 19,-46 20,-100 0,-53 -20,-99 -20,-46 -55,-82 -35,-36 -81,-55 -46,-19 -100,-20 z m 640,256 q 0,104 -32,202 -32,98 -96,182 V 2048 L 640,1792 128,2048 V 1024 Q 65,941 33,843 1,745 0,640 0,507 50,391 100,275 187,187 274,99 390,50 506,1 640,0 q 133,0 249,50 116,50 204,137 88,87 137,203 49,116 50,250 z M 640,128 q -106,0 -199,40 -93,40 -162,110 -69,70 -110,163 -41,93 -41,199 0,106 40,199 40,93 110,162 70,69 163,110 93,41 199,41 106,0 199,-40 93,-40 162,-110 69,-70 110,-163 41,-93 41,-199 0,-106 -40,-199 Q 1072,348 1002,279 932,210 839,169 746,128 640,128 Z m 384,1728 v -704 q -83,63 -181,95 -98,32 -203,33 -104,0 -202,-32 -98,-32 -182,-96 v 704 l 384,-192 z"
     id="path1482" />
</svg>
