<?xml version="1.0" encoding="UTF-8" standalone="no"?>
<svg
   xmlns:dc="http://purl.org/dc/elements/1.1/"
   xmlns:cc="http://creativecommons.org/ns#"
   xmlns:rdf="http://www.w3.org/1999/02/22-rdf-syntax-ns#"
   xmlns:svg="http://www.w3.org/2000/svg"
   xmlns="http://www.w3.org/2000/svg"
   viewBox="0 0 2048 2048"
   version="1.1"
   id="svg2065"
   width="2048"
   height="2048">
  <metadata
     id="metadata2071">
    <rdf:RDF>
      <cc:Work
         rdf:about="">
        <dc:format>image/svg+xml</dc:format>
        <dc:type
           rdf:resource="http://purl.org/dc/dcmitype/StillImage" />
        <dc:title></dc:title>
      </cc:Work>
    </rdf:RDF>
  </metadata>
  <defs
     id="defs2069" />
  <path
     d="M 896,768 V 896 H 769 V 768 Z M 1152,256 V 640 H 256 V 256 Z M 1024,512 V 384 H 384 v 128 z m -384,768 v 128 H 513 v -128 z m 256,-256 v 128 H 769 v -128 z m 129,640 v -128 h 76 l -64,128 z m -512,0 v -128 h 127 v 128 z m 383,-384 v 128 H 769 v -128 z m -127,384 v -128 h 127 v 128 z m -513,0 v -128 h 128 v 128 z M 1152,768 V 896 H 1025 V 768 Z m 0,512 v 128 h -127 v -128 z m 0,-256 v 128 h -127 v -128 z m -512,0 v 128 H 513 V 1024 Z M 128,128 v 1664 h 845 l -64,128 H 0 V 0 h 1408 v 922 l -128,256 V 128 Z M 640,768 V 896 H 513 V 768 Z m -256,0 V 896 H 256 V 768 Z m 0,512 v 128 H 256 v -128 z m 0,-256 v 128 H 256 v -128 z m 1152,0 512,1024 H 1024 Z m 0,286 -305,610 h 610 z"
     id="path2063" />
</svg>
