<svg xmlns="http://www.w3.org/2000/svg" viewBox="0 0 2048 2048">
  <path d="M0 960q0-132 34-254t97-230 150-194 195-150 229-97T960 0q132 0 254 34t229 97 195 151 150 194 97 229 35 255q0 132-34 254t-97 230-150 194-195 150-229 97-255 35q-133 0-255-34t-229-97-194-150-150-194-97-230T0 960zm1792 0q0-115-30-221t-84-198-130-169-168-130-199-84-221-30q-115 0-221 30t-198 84-169 130-130 168-84 199-30 221q0 115 30 221t84 198 130 169 168 130 199 84 221 30q115 0 221-30t198-84 169-130 130-168 84-199 30-221zm-896 64H576q-26 0-45-19t-19-45q0-26 19-45t45-19h320V576q0-26 19-45t45-19q26 0 45 19t19 45v320h320q26 0 45 19t19 45q0 26-19 45t-45 19h-320v320q0 26-19 45t-45 19q-26 0-45-19t-19-45v-320z" />
</svg>