<?xml version="1.0" encoding="UTF-8" standalone="no"?>
<svg
   xmlns:dc="http://purl.org/dc/elements/1.1/"
   xmlns:cc="http://creativecommons.org/ns#"
   xmlns:rdf="http://www.w3.org/1999/02/22-rdf-syntax-ns#"
   xmlns:svg="http://www.w3.org/2000/svg"
   xmlns="http://www.w3.org/2000/svg"
   viewBox="0 0 1920 1920"
   version="1.1"
   id="svg4"
   width="1920"
   height="1920">
  <metadata
     id="metadata10">
    <rdf:RDF>
      <cc:Work
         rdf:about="">
        <dc:format>image/svg+xml</dc:format>
        <dc:type
           rdf:resource="http://purl.org/dc/dcmitype/StillImage" />
        <dc:title></dc:title>
      </cc:Work>
    </rdf:RDF>
  </metadata>
  <defs
     id="defs8" />
  <path
     d="m 960,0 q 132,0 254,34 122,34 230,97 108,63 194,150 86,87 150,195 64,108 97,229 33,121 35,255 0,132 -34,254 -34,122 -97,230 -63,108 -150,194 -87,86 -195,150 -108,64 -229,97 -121,33 -255,35 -132,0 -254,-34 Q 584,1852 476,1789 368,1726 282,1639 196,1552 132,1444 68,1336 35,1215 2,1094 0,960 0,828 34,706 68,584 131,476 194,368 281,282 368,196 476,132 584,68 705,35 826,2 960,0 Z m 0,1792 q 115,0 221,-30 106,-30 198,-84 92,-54 169,-130 77,-76 130,-168 53,-92 84,-199 31,-107 30,-221 0,-115 -30,-221 -30,-106 -84,-198 -54,-92 -130,-169 -76,-77 -168,-130 -92,-53 -199,-84 -107,-31 -221,-30 -115,0 -221,30 -106,30 -198,84 -92,54 -169,130 -77,76 -130,168 -53,92 -84,199 -31,107 -30,221 0,115 30,221 30,106 84,198 54,92 130,169 76,77 168,130 92,53 199,84 107,31 221,30 z m 172,-916 q 20,40 20,84 0,40 -15,75 -15,35 -41,61 -26,26 -61,41 -35,15 -75,15 -40,0 -75,-15 -35,-15 -61,-41 -26,-26 -41,-61 -15,-35 -15,-75 0,-40 15,-75 15,-35 41,-61 26,-26 61,-41 35,-15 75,-15 44,0 84,20 l -1,-1 368,-368 90,90 -368,368 z m -172,148 q 26,0 45,-19 19,-19 19,-45 0,-26 -19,-45 -19,-19 -45,-19 -26,0 -45,19 -19,19 -19,45 0,26 19,45 19,19 45,19 z m 640,-352 q 31,68 46,140 15,72 16,148 0,140 -52,269 -52,129 -152,229 l -91,-91 q 81,-81 125,-185 44,-104 44,-219 0,-124 -52,-239 z M 1196,436 q -115,-52 -239,-52 -79,0 -152,20 -73,20 -137,59 -64,39 -116,90 -52,51 -89,117 -37,66 -58,137 -21,71 -21,153 0,115 44,220 44,105 125,187 l -91,91 Q 362,1358 309,1230 256,1102 256,960 q 0,-97 25,-187 25,-90 71,-168 46,-78 110,-142 64,-64 142,-109 78,-45 168,-71 90,-26 188,-25 75,0 147,15 72,15 141,47 z"
     id="path2" />
</svg>
