<svg xmlns:xlink="http://www.w3.org/1999/xlink" xmlns="http://www.w3.org/2000/svg" height="20" width="20" viewBox="0 0 20 20" focusable="false"><path type="path" class="OfficeIconColors_m20" d="M11.9999 9.99981H17.2869V1.50781H1.55493V17.6328H9.99993V11.9998H11.9999V9.99981ZM11.4999 13.4998V18.4998H19.4999V13.4998H11.4999Z" fill="#FAFAFA"></path><path type="path" class="OfficeIconColors_m22" d="M10.25 7H8.75V8.5H10.25V7Z" fill="#3A3A38"></path><path type="path" class="OfficeIconColors_m22" d="M14 7H12.5V8.5H14V7Z" fill="#3A3A38"></path><path type="path" class="OfficeIconColors_m22" d="M10.25 10.5H8.75V12H10.25V10.5Z" fill="#3A3A38"></path><path type="path" class="OfficeIconColors_m22" d="M10 17H2V2H17V10H18V1H1V18H10V17Z" fill="#3A3A38"></path><path type="path" class="OfficeIconColors_m22" d="M6.5 7H5V8.5H6.5V7Z" fill="#3A3A38"></path><path type="path" class="OfficeIconColors_m22" d="M6.5 10.5H5V12H6.5V10.5Z" fill="#3A3A38"></path><path type="path" class="OfficeIconColors_m24" d="M18 13V11H13V13H11V19H20V13H18ZM14 12H17V13H14V12ZM19 18H12V16H14.5V17H16.5V16H19V18ZM19 15H16.5V14.521H14.5V15H12V14H19V15Z" fill="#1E8BCD"></path></svg>