<svg xmlns:xlink="http://www.w3.org/1999/xlink" xmlns="http://www.w3.org/2000/svg" height="20" width="20" viewBox="0,0,2048,2048" focusable="false"><path type="path" class="OfficeIconColors_HighContrast" d="M 1485 1946 q 88 0 167 -31 q 79 -32 140 -87 q 60 -56 100 -131 q 39 -75 48 -161 h 105 q -9 108 -56 202 q -48 93 -123 162 q -76 69 -173 109 q -98 39 -208 39 q -72 0 -138 -17 q -67 -17 -126 -48 q -59 -32 -109 -76 q -50 -45 -88 -100 v 241 h -102 v -410 h 409 v 103 h -226 q 31 46 72 84 q 41 38 90 65 q 48 27 103 42 q 55 14 115 14 m 563 -1024 v 409 h -410 v -102 h 226 q -31 -46 -71 -84 q -41 -38 -89 -65 q -49 -27 -104 -41 q -55 -15 -115 -15 q -89 0 -167 32 q -79 31 -140 87 q -61 55 -100 130 q -39 75 -49 161 h -105 q 10 -108 58 -201 q 47 -94 122 -163 q 75 -69 173 -108 q 98 -40 208 -40 q 72 0 139 17 q 66 17 125 49 q 59 31 109 76 q 50 44 88 98 v -240 m -1127 -410 v 706 q -37 94 -48 202 l -3 167 v 359 h -666 v -1844 h 1844 v 666 h -103 v -256 h -512 v 273 q -53 11 -102 30 v -303 m -1024 -102 h 1638 v -205 h -1638 m 512 307 h -512 v 1331 h 512 z" fill="#252423"></path><path type="path" class="OfficeIconColors_m20" d="M 768 1894 h -614 v -1740 h 1740 v 614 h -102 v 70 q -145 -70 -307 -70 q -140 0 -264 50 q -125 49 -220 137 q -96 87 -156 207 q -61 119 -74 258 l -3 167 z" fill="#FAFAFA"></path><path type="path" class="OfficeIconColors_m21" d="M 154 461 v -307 h 1740 v 307 z" fill="#C8C6C4"></path><path type="path" class="OfficeIconColors_m23" d="M 1331 785 q -53 11 -102 30 v -354 h 102 m -563 1433 h -51 v -1433 h 102 v 757 q -37 94 -48 202 l -3 167 z" fill="#797774"></path><path type="path" class="OfficeIconColors_m22" d="M 768 1946 h -666 v -1844 h 1844 v 666 h -103 v -256 h -1638 v 1331 h 563 m -563 -1638 v 205 h 1638 v -205 z" fill="#3A3A38"></path><path type="path" class="OfficeIconColors_m27" d="M 2048 922 v 409 h -410 v -102 h 226 q -31 -46 -71 -84 q -41 -38 -89 -65 q -49 -27 -104 -41 q -55 -15 -115 -15 q -89 0 -167 32 q -79 31 -140 87 q -61 55 -100 130 q -39 75 -49 161 h -105 q 10 -108 58 -201 q 47 -94 122 -163 q 75 -69 173 -108 q 98 -40 208 -40 q 72 0 139 17 q 66 17 125 49 q 59 31 109 76 q 50 44 88 98 v -240 m 99 614 q -9 108 -56 202 q -48 93 -123 162 q -76 69 -173 109 q -98 39 -208 39 q -72 0 -138 -17 q -67 -17 -126 -48 q -59 -32 -109 -76 q -50 -45 -88 -100 v 241 h -102 v -410 h 409 v 103 h -226 q 31 46 72 84 q 41 38 90 65 q 48 27 103 42 q 55 14 115 14 q 88 0 167 -31 q 79 -32 140 -87 q 60 -56 100 -131 q 39 -75 48 -161 z" fill="#379E4E"></path></svg>