<?xml version="1.0" encoding="UTF-8" standalone="no"?>
<svg
   xmlns:dc="http://purl.org/dc/elements/1.1/"
   xmlns:cc="http://creativecommons.org/ns#"
   xmlns:rdf="http://www.w3.org/1999/02/22-rdf-syntax-ns#"
   xmlns:svg="http://www.w3.org/2000/svg"
   xmlns="http://www.w3.org/2000/svg"
   viewBox="0 0 2049.1001 1571.027"
   version="1.1"
   id="svg5027"
   width="2049.1001"
   height="1571.027">
  <metadata
     id="metadata5033">
    <rdf:RDF>
      <cc:Work
         rdf:about="">
        <dc:format>image/svg+xml</dc:format>
        <dc:type
           rdf:resource="http://purl.org/dc/dcmitype/StillImage" />
        <dc:title></dc:title>
      </cc:Work>
    </rdf:RDF>
  </metadata>
  <defs
     id="defs5031" />
  <path
     d="m 2049.1,639 q 0,123 -29,239 -29,116 -83,220 -54,104 -131,191 -77,87 -174,149 -97,62 -211,98 -114,36 -242,35 -68,0 -136,-12 -68,-12 -132,-35 -64,-23 -123,-58 -59,-35 -109,-82 -22,38 -53,69 -31,31 -69,52 -38,21 -80,33 -42,12 -86,12 -78,0 -137,-29 -59,-29 -102,-77 -43,-48 -73,-111 -30,-63 -46,-132 -16,-69 -25,-138 -9,-69 -8,-132 0,-123 29,-239 29,-116 83,-220 54,-104 131,-190 77,-86 175,-149 98,-63 211,-98 113,-35 242,-35 67,0 135,11 68,11 132,35 64,24 123,59 59,35 109,81 22,-38 53,-69 31,-31 69,-52 38,-21 80,-33 42,-12 87,-12 78,0 137,28 59,28 102,77 43,49 73,112 30,63 46,132 16,69 24,138 8,69 8,132 z m -1658,783 q 74,0 119,-38 45,-38 78,-99 -62,-81 -95,-177 -33,-96 -33,-199 0,-95 31,-189 31,-94 90,-168 59,-74 142,-121 83,-47 186,-47 85,0 170,28 85,28 153,80 68,52 110,126 42,74 43,168 0,54 -15,106 -15,52 -48,96 34,-30 60,-68 26,-38 44,-80 18,-42 27,-87 9,-45 9,-91 0,-79 -23,-149 -23,-70 -64,-130 -41,-60 -97,-107 -56,-47 -122,-81 -66,-34 -139,-50 -73,-16 -148,-18 -110,0 -207,30 -97,30 -179,85 -82,55 -148,130 -66,75 -112,165 -46,90 -70,190 -24,100 -25,205 0,41 4,93 4,52 15,106 11,54 30,107 19,53 48,93 29,40 70,66 41,26 96,25 z m 1530,-784 q 0,-41 -4,-93 -4,-52 -15,-106 -11,-54 -30,-107 -19,-53 -48,-93 -29,-40 -69,-66 -40,-26 -96,-25 -74,0 -119,38 -45,38 -79,99 62,81 95,177 33,96 34,200 0,63 -14,126 -14,63 -42,122 -28,59 -66,109 -38,50 -90,87 -52,37 -110,59 -58,22 -128,21 -85,0 -170,-28 -85,-28 -153,-80 -68,-52 -110,-126 -42,-74 -43,-167 0,-55 17,-106 17,-51 46,-97 -34,30 -60,68 -26,38 -44,80 -18,42 -27,88 -9,46 -9,91 0,79 23,149 23,70 64,130 41,60 97,107 56,47 122,80 66,33 139,50 73,17 148,18 110,0 207,-30 97,-30 180,-85 83,-55 148,-130 65,-75 111,-164 46,-89 70,-190 24,-101 25,-206 z"
     id="path5025" />
</svg>
