<svg width="14" height="17" viewBox="0 0 14 17" fill="none" xmlns="http://www.w3.org/2000/svg">
<path d="M6 3.5C6 1.84315 4.65685 0.5 3 0.5C1.34315 0.5 0 1.84315 0 3.5C0 4.9865 1.08114 6.22048 2.5 6.45852V10.5415C1.08114 10.7795 0 12.0135 0 13.5C0 15.1569 1.34315 16.5 3 16.5C4.65685 16.5 6 15.1569 6 13.5C6 12.0135 4.91886 10.7795 3.5 10.5415V9.5H9C10.3807 9.5 11.5 8.38071 11.5 7V6.45852C12.9189 6.22048 14 4.9865 14 3.5C14 1.84315 12.6569 0.5 11 0.5C9.34315 0.5 8 1.84315 8 3.5C8 4.9865 9.08114 6.22048 10.5 6.45852V7C10.5 7.82843 9.82843 8.5 9 8.5H3.5V6.45852C4.91886 6.22048 6 4.9865 6 3.5ZM3 5.5C1.89543 5.5 1 4.60457 1 3.5C1 2.39543 1.89543 1.5 3 1.5C4.10457 1.5 5 2.39543 5 3.5C5 4.60457 4.10457 5.5 3 5.5ZM3 15.5C1.89543 15.5 1 14.6046 1 13.5C1 12.3954 1.89543 11.5 3 11.5C4.10457 11.5 5 12.3954 5 13.5C5 14.6046 4.10457 15.5 3 15.5ZM13 3.5C13 4.60457 12.1046 5.5 11 5.5C9.89543 5.5 9 4.60457 9 3.5C9 2.39543 9.89543 1.5 11 1.5C12.1046 1.5 13 2.39543 13 3.5Z" fill="black"/>
</svg>
