<svg width="340" height="340" viewBox="0 0 340 340" fill="none" xmlns="http://www.w3.org/2000/svg">
<g clip-path="url(#clip0)">
<g clip-path="url(#clip1)">
<mask id="mask0" mask-type="alpha" maskUnits="userSpaceOnUse" x="-1" y="39" width="341" height="262">
<path d="M325.674 76.3034L325.663 76.3028C321.127 65.7663 313.279 56.5485 302.581 50.3718C276.186 35.133 242.436 44.1753 227.196 70.5681L227.181 70.5672C225.815 69.3484 224.409 68.1542 222.966 66.9816C176.198 28.9886 103.074 28.8184 49.1496 77.2917C0.710451 120.834 -14.4436 197.552 14.0297 264.032L14.0473 264.033C18.6039 274.435 26.4003 283.527 36.9888 289.641C63.3748 304.874 97.1116 295.843 112.359 269.47L112.374 269.471L112.388 269.447C113.753 270.666 115.158 271.862 116.601 273.035C163.369 311.028 236.493 311.198 290.417 262.725C338.779 219.252 353.962 142.71 325.674 76.3034Z" fill="#C4C4C4"/>
</mask>
<g mask="url(#mask0)">
<path fill-rule="evenodd" clip-rule="evenodd" d="M139.902 221.798C186.038 248.434 227.492 238.158 250.934 197.556C274.376 156.953 265.562 101.588 222.968 66.9854C176.2 28.9924 103.076 28.8221 49.1514 77.2954C0.712304 120.838 -14.4417 197.556 14.0315 264.036L14.0463 264.037C18.603 274.438 26.3993 283.531 36.9879 289.644C63.3739 304.878 97.1107 295.847 112.358 269.474L112.376 269.474L139.902 221.798Z" fill="url(#paint0_linear)"/>
<path fill-rule="evenodd" clip-rule="evenodd" d="M325.662 76.3028L325.675 76.3036C353.964 142.71 338.781 219.252 290.419 262.725C236.494 311.198 163.371 311.028 116.603 273.035C74.0085 238.432 65.195 183.067 88.6369 142.465C112.079 101.862 153.532 91.5865 199.668 118.223L227.182 70.5674L227.197 70.5682C242.438 44.1767 276.187 35.1352 302.581 50.3737C313.278 56.55 321.126 65.7671 325.662 76.3028Z" fill="url(#paint1_linear)"/>
<path fill-rule="evenodd" clip-rule="evenodd" d="M199.669 118.226C153.533 91.5891 112.079 101.865 88.6372 142.467C65.9892 181.695 73.4488 234.702 112.392 269.452L139.904 221.799C186.04 248.436 227.494 238.16 250.935 197.558C273.583 158.33 266.124 105.323 227.181 70.573L199.669 118.226Z" fill="#088142"/>
<rect opacity="0.25" x="216.834" y="32.2689" width="28.1219" height="345.122" transform="rotate(30 216.834 32.2689)" fill="url(#paint2_linear)"/>
<g filter="url(#filter0_dd)">
<path d="M221.587 199.911C205.075 228.51 168.505 238.309 139.906 221.797C111.306 205.285 101.507 168.715 118.019 140.115C134.531 111.516 171.101 101.717 199.701 118.229C228.3 134.741 238.099 171.311 221.587 199.911Z" fill="url(#paint3_linear)"/>
</g>
</g>
</g>
</g>
<defs>
<filter id="filter0_dd" x="105.998" y="107.208" width="127.611" height="127.611" filterUnits="userSpaceOnUse" color-interpolation-filters="sRGB">
<feFlood flood-opacity="0" result="BackgroundImageFix"/>
<feColorMatrix in="SourceAlpha" type="matrix" values="0 0 0 0 0 0 0 0 0 0 0 0 0 0 0 0 0 0 127 0"/>
<feOffset dy="0.19"/>
<feGaussianBlur stdDeviation="0.19"/>
<feColorMatrix type="matrix" values="0 0 0 0 0 0 0 0 0 0 0 0 0 0 0 0 0 0 0.24 0"/>
<feBlend mode="normal" in2="BackgroundImageFix" result="effect1_dropShadow"/>
<feColorMatrix in="SourceAlpha" type="matrix" values="0 0 0 0 0 0 0 0 0 0 0 0 0 0 0 0 0 0 127 0"/>
<feOffset dy="1"/>
<feGaussianBlur stdDeviation="2"/>
<feColorMatrix type="matrix" values="0 0 0 0 0 0 0 0 0 0 0 0 0 0 0 0 0 0 0.32 0"/>
<feBlend mode="normal" in2="effect1_dropShadow" result="effect2_dropShadow"/>
<feBlend mode="normal" in="SourceGraphic" in2="effect2_dropShadow" result="shape"/>
</filter>
<linearGradient id="paint0_linear" x1="124.665" y1="36.2652" x2="154.132" y2="303.732" gradientUnits="userSpaceOnUse">
<stop stop-color="#096738"/>
<stop offset="1" stop-color="#0A4C2D"/>
</linearGradient>
<linearGradient id="paint1_linear" x1="245.933" y1="32.8673" x2="301.467" y2="298.067" gradientUnits="userSpaceOnUse">
<stop stop-color="#4ED062"/>
<stop offset="1" stop-color="#209B4E"/>
</linearGradient>
<linearGradient id="paint2_linear" x1="244.956" y1="306.88" x2="216.834" y2="306.88" gradientUnits="userSpaceOnUse">
<stop/>
<stop offset="0.271932" stop-opacity="0.560661"/>
<stop offset="0.620896" stop-opacity="0.264518"/>
<stop offset="1" stop-opacity="0"/>
</linearGradient>
<linearGradient id="paint3_linear" x1="229.608" y1="229.818" x2="186.334" y2="95.6698" gradientUnits="userSpaceOnUse">
<stop stop-color="#66EB6E"/>
<stop offset="1" stop-color="#9FE0A2"/>
</linearGradient>
<clipPath id="clip0">
<rect width="340" height="340" fill="white"/>
</clipPath>
<clipPath id="clip1">
<rect width="340" height="340" fill="white"/>
</clipPath>
</defs>
</svg>
