<svg xmlns:xlink="http://www.w3.org/1999/xlink" xmlns="http://www.w3.org/2000/svg" height="20" width="20" viewBox="0 0 20 20" focusable="false"><path type="path" class="OfficeIconColors_m20" d="M7.5 15V14.25V13.75V13.625C7.625 12.75 7.875 12 8.25 11.25C8.625 10.5 9.125 9.875 9.75 9.375C10.375 8.875 11 8.375 11.875 8.125C12.625 7.75 13.5 7.625 14.375 7.625C14.875 7.625 15.375 7.625 16 7.75C16.5 7.875 17 8 17.5 8.25H17.625V7.5H18.375V2H1.875V18.25H7.5V15Z" fill="#FAFAFA"></path><path type="path" class="OfficeIconColors_m27" d="M19.875 15C19.75 15.625 19.625 16.375 19.25 17C19 17.625 18.5 18.125 18 18.625C17.5 19.125 16.875 19.375 16.25 19.625C15.625 19.875 14.875 20 14.25 20C13.875 20 13.375 20 13 19.875C12.625 19.75 12.25 19.625 11.875 19.5C11.5 19.25 11.25 19 10.875 18.75C10.5 18.5 10.25 18.25 10 17.875V20H8.75V15H13.75V16.25H10.5C10.625 16.625 10.875 17 11.125 17.25C11.375 17.5 11.75 17.875 12 18C12.375 18.25 12.75 18.375 13.125 18.5C13.5 18.625 14 18.625 14.375 18.625C14.875 18.625 15.5 18.5 15.875 18.375C16.375 18.25 16.75 17.875 17.125 17.625C17.5 17.25 17.875 16.875 18.125 16.375C18.375 15.875 18.5 15.375 18.625 14.875L19.875 15ZM20 8.75V13.75H15V12.5H18.25C17.875 11.75 17.375 11.125 16.625 10.75C16.25 10.5 15.875 10.375 15.5 10.25C15.25 10 14.75 10 14.375 10C13.375 10 12.25 10.375 11.5 11.125C11.125 11.5 10.75 11.875 10.5 12.375C10.25 12.875 10.125 13.375 10 13.875H8.75C8.875 13.125 9 12.5 9.375 11.875C9.625 11.25 10.125 10.75 10.625 10.25C11.125 9.75 11.75 9.375 12.375 9.125C13 8.875 13.625 8.75 14.375 8.75C14.75 8.75 15.25 8.75 15.625 8.875C16 9 16.375 9.125 16.75 9.25C17.125 9.5 17.5 9.625 17.75 9.875C18.125 10.125 18.375 10.375 18.625 10.75V8.75H20Z" fill="#379E4E"></path><path type="path" d="M7.5 17.5H2.5V2.5H17.5V7.5H18.75V1.25H1.25V18.75H7.5V17.5Z" fill="#252423"></path><path type="path" d="M7 11.25H5.5V12.75H7V11.25Z" fill="#252423"></path><path type="path" d="M9.25 9H10.125C10.375 8.75 10.625 8.625 10.875 8.5V7.5H9.25V9Z" fill="#252423"></path><path type="path" d="M7 7.5H5.5V9H7V7.5Z" fill="#252423"></path></svg>