<?xml version="1.0" encoding="UTF-8" standalone="no"?>
<svg
   xmlns:dc="http://purl.org/dc/elements/1.1/"
   xmlns:cc="http://creativecommons.org/ns#"
   xmlns:rdf="http://www.w3.org/1999/02/22-rdf-syntax-ns#"
   xmlns:svg="http://www.w3.org/2000/svg"
   xmlns="http://www.w3.org/2000/svg"
   viewBox="0 0 1408 1792"
   version="1.1"
   id="svg4446"
   width="1408"
   height="1792">
  <metadata
     id="metadata4452">
    <rdf:RDF>
      <cc:Work
         rdf:about="">
        <dc:format>image/svg+xml</dc:format>
        <dc:type
           rdf:resource="http://purl.org/dc/dcmitype/StillImage" />
        <dc:title></dc:title>
      </cc:Work>
    </rdf:RDF>
  </metadata>
  <defs
     id="defs4450" />
  <path
     d="m 704,0 q 70,0 158,8 88,8 176,28 88,20 168,53 80,33 132,85 31,30 50,65 19,35 20,81 v 1152 q 0,45 -19,80 -19,35 -51,66 -52,51 -131,84 -79,33 -168,54 -89,21 -177,28 -88,7 -158,8 -70,0 -158,-8 -88,-8 -176,-28 -88,-20 -168,-53 Q 122,1670 70,1618 39,1588 20,1553 1,1518 0,1472 V 320 Q 0,275 19,240 38,205 70,174 122,123 201,90 280,57 369,36 458,15 546,8 634,1 704,0 Z m 0,128 q -51,0 -106,3 -55,3 -111,12 -56,9 -110,22 -54,13 -102,33 -15,6 -40,18 -25,12 -49,29 -24,17 -41,35 -17,18 -17,40 0,8 3,15 3,7 8,14 21,32 60,56 39,24 89,42 50,18 106,30 56,12 112,20 56,8 107,11 51,3 91,4 40,0 91,-3 51,-3 107,-11 56,-8 112,-20 56,-12 105,-31 49,-19 89,-42 40,-23 61,-56 5,-7 8,-14 3,-7 3,-15 0,-20 -17,-39 -17,-19 -41,-36 -24,-17 -49,-28 -25,-11 -40,-19 -48,-19 -102,-32 -54,-13 -109,-22 -55,-9 -111,-12 -56,-3 -107,-4 z m 0,1536 q 51,0 106,-3 55,-3 112,-12 57,-9 110,-22 53,-13 101,-33 15,-6 40,-18 25,-12 49,-29 24,-17 41,-35 17,-18 17,-40 v -194 q -57,38 -129,63 -72,25 -149,40 -77,15 -154,21 -77,6 -144,6 -67,0 -144,-6 -77,-6 -154,-21 -77,-15 -149,-40 -72,-25 -129,-63 v 194 q 0,21 17,40 17,19 41,35 24,16 49,28 25,12 40,19 47,20 101,33 54,13 110,21 56,8 111,12 55,4 107,4 z m 0,-384 q 51,0 106,-3 55,-3 112,-12 57,-9 110,-22 53,-13 101,-33 15,-6 40,-18 25,-12 49,-29 24,-17 41,-35 17,-18 17,-40 V 894 q -57,38 -129,63 -72,25 -149,40 -77,15 -154,21 -77,6 -144,6 -67,0 -144,-6 -77,-6 -154,-21 -77,-15 -149,-40 -72,-25 -129,-63 v 194 q 0,21 17,40 17,19 41,35 24,16 49,28 25,12 40,19 47,20 101,33 54,13 110,21 56,8 111,12 55,4 107,4 z m 0,-384 q 52,0 107,-3 55,-3 110,-12 55,-9 110,-22 55,-13 102,-33 15,-6 40,-18 25,-12 49,-29 24,-17 41,-35 17,-18 17,-40 V 510 q -57,37 -128,62 -71,25 -149,40 -78,15 -155,21 -77,6 -144,7 -67,0 -144,-6 -77,-6 -154,-22 -77,-16 -149,-40 -72,-24 -129,-62 v 194 q 0,20 17,39 17,19 41,36 24,17 49,28 25,11 40,19 48,20 102,33 54,13 109,21 55,8 111,12 56,4 107,4 z"
     id="path4444" />
</svg>
