<?xml version="1.0" encoding="UTF-8" standalone="no"?>
<svg
   xmlns:dc="http://purl.org/dc/elements/1.1/"
   xmlns:cc="http://creativecommons.org/ns#"
   xmlns:rdf="http://www.w3.org/1999/02/22-rdf-syntax-ns#"
   xmlns:svg="http://www.w3.org/2000/svg"
   xmlns="http://www.w3.org/2000/svg"
   viewBox="0 0 2048 1920"
   version="1.1"
   id="svg6337"
   width="2048"
   height="1920">
  <metadata
     id="metadata6343">
    <rdf:RDF>
      <cc:Work
         rdf:about="">
        <dc:format>image/svg+xml</dc:format>
        <dc:type
           rdf:resource="http://purl.org/dc/dcmitype/StillImage" />
        <dc:title></dc:title>
      </cc:Work>
    </rdf:RDF>
  </metadata>
  <defs
     id="defs6341" />
  <path
     d="M 768,768 H 896 V 896 H 768 Z m 384,768 h 128 v 128 h -128 z m 384,-768 h 128 v 128 h -128 z m -384,0 h 128 v 128 h -128 z m -384,256 h 128 v 128 H 768 Z m -384,0 h 128 v 128 H 384 Z m 1152,0 h 128 v 128 h -128 z m -384,0 h 128 v 128 h -128 z m -384,256 h 128 v 128 H 768 Z m -384,0 h 128 v 128 H 384 Z m 1152,0 h 128 v 128 h -128 z m -384,0 h 128 v 128 h -128 z m -384,256 h 128 v 128 H 768 Z m -384,0 h 128 v 128 H 384 Z M 2048,128 V 1920 H 0 V 128 H 384 V 0 H 512 V 128 H 1536 V 0 h 128 V 128 Z M 128,256 V 512 H 1920 V 256 H 1664 V 384 H 1536 V 256 H 512 V 384 H 384 V 256 Z M 1920,1792 V 640 H 128 v 1152 z"
     id="path6335" />
</svg>
