<?xml version="1.0" encoding="UTF-8" standalone="no"?>
<svg
   xmlns:dc="http://purl.org/dc/elements/1.1/"
   xmlns:cc="http://creativecommons.org/ns#"
   xmlns:rdf="http://www.w3.org/1999/02/22-rdf-syntax-ns#"
   xmlns:svg="http://www.w3.org/2000/svg"
   xmlns="http://www.w3.org/2000/svg"
   viewBox="0 0 2048 2048"
   version="1.1"
   id="svg6918"
   width="2048"
   height="2048">
  <metadata
     id="metadata6924">
    <rdf:RDF>
      <cc:Work
         rdf:about="">
        <dc:format>image/svg+xml</dc:format>
        <dc:type
           rdf:resource="http://purl.org/dc/dcmitype/StillImage" />
        <dc:title></dc:title>
      </cc:Work>
    </rdf:RDF>
  </metadata>
  <defs
     id="defs6922" />
  <path
     d="m 2048,0 v 64 q 0,182 -32,340 -32,158 -99,299 -67,141 -166,268 -99,127 -234,249 l -191,572 h -302 v -227 q -138,81 -279,156 L 327,1303 q 75,-141 156,-279 H 256 V 722 L 828,532 Q 949,397 1076,297 1203,197 1345,131 1487,65 1644,33 1801,1 1984,0 Z M 558,896 q 29,-46 58,-91 29,-45 62,-89 l -294,98 v 82 z m 211,666 q 51,-29 102,-57 51,-28 102,-58 L 601,1075 q -29,51 -57,102 -28,51 -58,103 z m 563,-192 q -44,32 -89,61 -45,29 -91,59 v 174 h 82 z m 183,-327 q 99,-99 172,-201 73,-102 124,-214 51,-112 76,-235 25,-123 32,-264 -140,5 -263,31 -123,26 -235,77 -112,51 -215,123 -103,72 -203,172 -99,97 -181,204 -82,107 -154,226 l 418,418 q 118,-72 225,-154 107,-82 204,-183 z m -235,-19 q -53,0 -99,-20 -46,-20 -82,-55 -36,-35 -55,-81 -19,-46 -20,-100 0,-53 20,-99 20,-46 55,-82 35,-36 81,-55 46,-19 100,-20 53,0 99,20 46,20 82,55 36,35 55,81 19,46 20,100 0,53 -20,99 -20,46 -55,82 -35,36 -81,55 -46,19 -100,20 z m 0,-384 q -27,0 -50,10 -23,10 -40,27 -17,17 -28,41 -11,24 -10,50 0,27 10,50 10,23 27,40 17,17 41,28 24,11 50,10 27,0 50,-10 23,-10 40,-27 17,-17 28,-41 11,-24 10,-50 0,-27 -10,-50 -10,-23 -27,-40 -17,-17 -41,-28 -24,-11 -50,-10 z M 256,1536 q 53,0 99,20 46,20 82,55 36,35 55,81 19,46 20,100 0,53 -20,99 -20,46 -55,82 -35,36 -81,55 -46,19 -100,20 H 0 v -256 q 0,-53 20,-99 20,-46 55,-82 35,-36 81,-55 46,-19 100,-20 z m 0,384 q 27,0 50,-10 23,-10 40,-27 17,-17 28,-41 11,-24 10,-50 0,-27 -10,-50 -10,-23 -27,-40 -17,-17 -41,-28 -24,-11 -50,-10 -27,0 -50,10 -23,10 -40,27 -17,17 -28,41 -11,24 -10,50 v 128 z"
     id="path6916" />
</svg>
