<?xml version="1.0" encoding="UTF-8" standalone="no"?>
<svg
   xmlns:dc="http://purl.org/dc/elements/1.1/"
   xmlns:cc="http://creativecommons.org/ns#"
   xmlns:rdf="http://www.w3.org/1999/02/22-rdf-syntax-ns#"
   xmlns:svg="http://www.w3.org/2000/svg"
   xmlns="http://www.w3.org/2000/svg"
   width="96"
   height="84"
   viewBox="0 0 96 84"
   fill="none"
   version="1.1"
   id="svg8318">
  <metadata
     id="metadata8322">
    <rdf:RDF>
      <cc:Work
         rdf:about="">
        <dc:format>image/svg+xml</dc:format>
        <dc:type
           rdf:resource="http://purl.org/dc/dcmitype/StillImage" />
        <dc:title></dc:title>
      </cc:Work>
    </rdf:RDF>
  </metadata>
  <defs
     id="defs8291">
    <filter
       id="filter0_f">
      <feFlood
         flood-opacity="0"
         result="BackgroundImageFix"
         id="feFlood8254" />
      <feBlend
         mode="normal"
         in="SourceGraphic"
         in2="BackgroundImageFix"
         result="shape"
         id="feBlend8256" />
      <feGaussianBlur
         stdDeviation="0.4"
         result="effect1_foregroundBlur"
         id="feGaussianBlur8258" />
    </filter>
    <filter
       id="filter1_f">
      <feFlood
         flood-opacity="0"
         result="BackgroundImageFix"
         id="feFlood8261" />
      <feBlend
         mode="normal"
         in="SourceGraphic"
         in2="BackgroundImageFix"
         result="shape"
         id="feBlend8263" />
      <feGaussianBlur
         stdDeviation="4"
         result="effect1_foregroundBlur"
         id="feGaussianBlur8265" />
    </filter>
    <linearGradient
       id="paint0_linear"
       x1="66.5"
       y1="90.5"
       x2="38.5"
       y2="8"
       gradientUnits="userSpaceOnUse">
      <stop
         stop-color="#E6AD10"
         id="stop8268" />
      <stop
         offset="1"
         stop-color="#F2C811"
         id="stop8270" />
    </linearGradient>
    <linearGradient
       id="paint1_linear"
       x1="46"
       y1="-5.46875"
       x2="79.298897"
       y2="90.713402"
       gradientUnits="userSpaceOnUse">
      <stop
         stop-color="#E6AD10"
         id="stop8273" />
      <stop
         offset="1"
         stop-color="#C87E0E"
         id="stop8275" />
    </linearGradient>
    <linearGradient
       id="paint2_linear"
       x1="36.998199"
       y1="46"
       x2="61.786201"
       y2="93.593002"
       gradientUnits="userSpaceOnUse">
      <stop
         stop-color="#F6D751"
         id="stop8278" />
      <stop
         offset="1"
         stop-color="#E6AD10"
         id="stop8280" />
    </linearGradient>
    <linearGradient
       id="paint3_linear"
       x1="23.998199"
       y1="64"
       x2="39.527199"
       y2="108.11"
       gradientUnits="userSpaceOnUse">
      <stop
         stop-color="#F9E589"
         id="stop8283" />
      <stop
         offset="1"
         stop-color="#F6D751"
         id="stop8285" />
    </linearGradient>
    <clipPath
       id="clip0">
      <rect
         width="96"
         height="96"
         fill="#ffffff"
         id="rect8288"
         x="0"
         y="0" />
    </clipPath>
  </defs>
  <g
     clip-path="url(#clip0)"
     id="g8316"
     transform="translate(-1.3167499e-7,-12)">
    <mask
       id="mask0"
       mask-type="alpha"
       maskUnits="userSpaceOnUse"
       x="0"
       y="12"
       width="96"
       height="84">
      <path
         d="M 1.17157,34.8284 C 0.421427,35.5786 4.73648e-8,36.596 1.31675e-7,37.6569 L 3.49681e-6,80 C 3.67237e-6,82.2091 1.79086,84 4,84 h 20 v 8 c 0,2.2091 1.7909,4 4,4 h 40 c 2.2091,0 4,-1.7909 4,-4 v -8 h 20 c 2.2091,0 4,-1.7909 4,-4 V 16 c 0,-2.2091 -1.7909,-4 -4,-4 H 25.6569 c -1.0609,0 -2.0783,0.4214 -2.8285,1.1716 z"
         fill="#c4c4c4"
         id="path8293" />
    </mask>
    <g
       mask="url(#mask0)"
       id="g8314">
      <path
         d="M 0,84 -3.14722e-6,12 H 96 v 72 z"
         fill="url(#paint0_linear)"
         id="path8296"
         style="fill:url(#paint0_linear)" />
      <path
         d="m 24,12 v 20 c 0,2.2091 -1.7909,4 -4,4 H 0 Z"
         fill="#f9e589"
         id="path8298" />
      <path
         d="M 72,32 V 96 H 54 c -2.2091,0 -4,-1.7909 -4,-4 V 32 c 0,-2.2091 1.7909,-4 4,-4 h 14 c 2.2091,0 4,1.7909 4,4 z"
         fill="url(#paint1_linear)"
         id="path8300"
         style="fill:url(#paint1_linear)" />
      <g
         filter="url(#filter0_f)"
         id="g8304">
        <path
           d="m 59,96.4 v -46 c 0,-2.2091 -1.7909,-4 -4,-4 H 41 c -2.2091,0 -4,1.7909 -4,4 v 14 h -9 c -2.2091,0 -4,1.7909 -4,4 v 28 z"
           fill="#000000"
           fill-opacity="0.2"
           id="path8302" />
      </g>
      <g
         filter="url(#filter1_f)"
         id="g8308">
        <path
           d="M 59,98 V 52 c 0,-2.2091 -1.7909,-4 -4,-4 H 41 c -2.2091,0 -4,1.7909 -4,4 v 14 h -9 c -2.2091,0 -4,1.7909 -4,4 v 28 z"
           fill="#000000"
           fill-opacity="0.18"
           id="path8306" />
      </g>
      <path
         d="M 59,50 V 96 H 41 c -2.2091,0 -4,-1.7909 -4,-4 V 50 c 0,-2.2091 1.7909,-4 4,-4 h 14 c 2.2091,0 4,1.7909 4,4 z"
         fill="url(#paint2_linear)"
         id="path8310"
         style="fill:url(#paint2_linear)" />
      <path
         d="M 24,68 V 96 H 46 V 68 c 0,-2.2091 -1.7909,-4 -4,-4 H 28 c -2.2091,0 -4,1.7909 -4,4 z"
         fill="url(#paint3_linear)"
         id="path8312"
         style="fill:url(#paint3_linear)" />
    </g>
  </g>
</svg>
