<svg width="96" height="96" viewBox="0 0 96 96" fill="none" xmlns="http://www.w3.org/2000/svg">
<defs>
<filter id="filter0_f">
<feFlood flood-opacity="0" result="BackgroundImageFix"/>
<feBlend mode="normal" in="SourceGraphic" in2="BackgroundImageFix" result="shape"/>
<feGaussianBlur stdDeviation="0.4" result="effect1_foregroundBlur"/>
</filter>
<filter id="filter1_f">
<feFlood flood-opacity="0" result="BackgroundImageFix"/>
<feBlend mode="normal" in="SourceGraphic" in2="BackgroundImageFix" result="shape"/>
<feGaussianBlur stdDeviation="4" result="effect1_foregroundBlur"/>
</filter>
<linearGradient id="paint0_linear" x1="66.5" y1="90.5" x2="38.5" y2="8" gradientUnits="userSpaceOnUse">
<stop stop-color="#E6AD10"/>
<stop offset="1" stop-color="#F2C811"/>
</linearGradient>
<linearGradient id="paint1_linear" x1="46" y1="-5.46875" x2="79.2989" y2="90.7134" gradientUnits="userSpaceOnUse">
<stop stop-color="#E6AD10"/>
<stop offset="1" stop-color="#C87E0E"/>
</linearGradient>
<linearGradient id="paint2_linear" x1="36.9982" y1="46" x2="61.7862" y2="93.593" gradientUnits="userSpaceOnUse">
<stop stop-color="#F6D751"/>
<stop offset="1" stop-color="#E6AD10"/>
</linearGradient>
<linearGradient id="paint3_linear" x1="23.9982" y1="64" x2="39.5272" y2="108.11" gradientUnits="userSpaceOnUse">
<stop stop-color="#F9E589"/>
<stop offset="1" stop-color="#F6D751"/>
</linearGradient>
<clipPath id="clip0">
<rect width="96" height="96" fill="white"/>
</clipPath>
</defs>
<g clip-path="url(#clip0)">
<mask id="mask0" mask-type="alpha" maskUnits="userSpaceOnUse" x="0" y="12" width="96" height="84">
<path d="M1.17157 34.8284C0.421427 35.5786 4.73648e-08 36.596 1.31675e-07 37.6569L3.49681e-06 80C3.67237e-06 82.2091 1.79086 84 4 84L24 84V92C24 94.2091 25.7909 96 28 96H68C70.2091 96 72 94.2091 72 92V84H92C94.2091 84 96 82.2091 96 80V16C96 13.7909 94.2091 12 92 12L25.6569 12C24.596 12 23.5786 12.4214 22.8284 13.1716L1.17157 34.8284Z" fill="#C4C4C4"/>
</mask>
<g mask="url(#mask0)">
<path d="M0 84L-3.14722e-06 12L96 12L96 84L0 84Z" fill="url(#paint0_linear)"/>
<path d="M24 12V32C24 34.2091 22.2091 36 20 36H0L24 12Z" fill="#F9E589"/>
<path d="M72 32V96H54C51.7909 96 50 94.2091 50 92V32C50 29.7909 51.7909 28 54 28H68C70.2091 28 72 29.7909 72 32Z" fill="url(#paint1_linear)"/>
<g filter="url(#filter0_f)">
<path d="M59 96.4V50.4C59 48.1909 57.2091 46.4 55 46.4H41C38.7909 46.4 37 48.1909 37 50.4V64.4H28C25.7909 64.4 24 66.1909 24 68.4V96.4H59Z" fill="black" fill-opacity="0.2"/>
</g>
<g filter="url(#filter1_f)">
<path d="M59 98V52C59 49.7909 57.2091 48 55 48H41C38.7909 48 37 49.7909 37 52V66H28C25.7909 66 24 67.7909 24 70V98H59Z" fill="black" fill-opacity="0.18"/>
</g>
<path d="M59 50V96H41C38.7909 96 37 94.2091 37 92V50C37 47.7909 38.7909 46 41 46H55C57.2091 46 59 47.7909 59 50Z" fill="url(#paint2_linear)"/>
<path d="M24 68V96H46V68C46 65.7909 44.2091 64 42 64H28C25.7909 64 24 65.7909 24 68Z" fill="url(#paint3_linear)"/>
</g>
</g>
</svg>
