<?xml version="1.0" encoding="UTF-8" standalone="no"?>
<svg
   xmlns:dc="http://purl.org/dc/elements/1.1/"
   xmlns:cc="http://creativecommons.org/ns#"
   xmlns:rdf="http://www.w3.org/1999/02/22-rdf-syntax-ns#"
   xmlns:svg="http://www.w3.org/2000/svg"
   xmlns="http://www.w3.org/2000/svg"
   viewBox="0 0 2048 1664"
   version="1.1"
   id="svg8897"
   width="2048"
   height="1664">
  <metadata
     id="metadata8903">
    <rdf:RDF>
      <cc:Work
         rdf:about="">
        <dc:format>image/svg+xml</dc:format>
        <dc:type
           rdf:resource="http://purl.org/dc/dcmitype/StillImage" />
        <dc:title></dc:title>
      </cc:Work>
    </rdf:RDF>
  </metadata>
  <defs
     id="defs8901" />
  <path
     d="m 768,512 q 79,0 149,30 70,30 122,82 52,52 82,123 30,71 30,149 0,80 -30,149 -30,69 -82,122 -52,53 -122,83 -70,30 -149,30 -60,0 -117,-18 -57,-18 -105,-53 l -437,436 q -19,19 -45,19 -26,0 -45,-19 -19,-19 -19,-45 0,-26 19,-45 l 436,-437 q -35,-48 -53,-105 -18,-57 -18,-117 0,-79 30,-149 30,-70 82,-122 52,-52 122,-83 70,-31 150,-30 z m 0,640 q 53,0 99,-20 46,-20 82,-55 36,-35 55,-81 19,-46 20,-100 0,-53 -20,-99 -20,-46 -55,-82 -35,-36 -81,-55 -46,-19 -100,-20 -53,0 -99,20 -46,20 -82,55 -36,35 -55,81 -19,46 -20,100 0,53 20,99 20,46 55,82 35,36 81,55 46,19 100,20 z M 0,0 h 2048 v 1280 h -896 q 28,-28 50,-60 22,-32 42,-68 h 676 V 128 H 128 V 1280 H 0 Z"
     id="path8895" />
</svg>
