<?xml version="1.0" encoding="UTF-8" standalone="no"?>
<svg
   xmlns:dc="http://purl.org/dc/elements/1.1/"
   xmlns:cc="http://creativecommons.org/ns#"
   xmlns:rdf="http://www.w3.org/1999/02/22-rdf-syntax-ns#"
   xmlns:svg="http://www.w3.org/2000/svg"
   xmlns="http://www.w3.org/2000/svg"
   viewBox="0 0 2048 1792"
   version="1.1"
   id="svg9484"
   width="2048"
   height="1792">
  <metadata
     id="metadata9490">
    <rdf:RDF>
      <cc:Work
         rdf:about="">
        <dc:format>image/svg+xml</dc:format>
        <dc:type
           rdf:resource="http://purl.org/dc/dcmitype/StillImage" />
        <dc:title></dc:title>
      </cc:Work>
    </rdf:RDF>
  </metadata>
  <defs
     id="defs9488" />
  <path
     d="m 1963,0 q 35,0 60,25 25,25 25,60 v 1622 q 0,35 -25,60 -25,25 -60,25 H 597 q -35,0 -60,-25 -25,-25 -25,-60 V 1408 H 85 Q 50,1408 25,1383 0,1358 0,1323 V 469 Q 0,434 25,409 50,384 85,384 H 512 V 85 Q 512,50 537,25 562,0 597,0 Z M 512,1005 633,1232 H 816 L 613,902 812,578 H 637 L 525,783 q -2,3 -3,6 -1,3 -4,8 Q 491,742 463,688 435,634 407,578 H 221 l 194,326 -212,328 h 184 z m 704,659 V 1408 H 640 v 256 z m 0,-384 V 960 h -192 v 320 z m 0,-448 V 512 h -192 v 320 z m 0,-448 V 128 H 640 v 256 z m 704,1280 v -256 h -576 v 256 z m 0,-384 V 960 h -576 v 320 z m 0,-448 V 512 h -576 v 320 z m 0,-448 V 128 h -576 v 256 z"
     id="path9482" />
</svg>
