<svg width="3429" height="3312" xmlns="http://www.w3.org/2000/svg" xmlns:xlink="http://www.w3.org/1999/xlink" overflow="hidden"><defs><clipPath id="clip0"><rect x="1910" y="-969" width="3429" height="3312"/></clipPath></defs><g clip-path="url(#clip0)" transform="translate(-1910 969)"><rect x="3290" y="-859" width="1002" height="655" stroke="#000000" stroke-width="91.6667" stroke-miterlimit="8" fill="none"/><rect x="4292" y="-859" width="1001" height="655" stroke="#000000" stroke-width="91.6667" stroke-miterlimit="8" fill="none"/><rect x="3290" y="-204" width="1002" height="654" stroke="#000000" stroke-width="91.6667" stroke-miterlimit="8" fill="none"/><rect x="4292" y="-204" width="1001" height="654" stroke="#000000" stroke-width="91.6667" stroke-miterlimit="8" fill="none"/><rect x="3290" y="450" width="1002" height="655" stroke="#000000" stroke-width="91.6667" stroke-miterlimit="8" fill="none"/><rect x="4292" y="450" width="1001" height="655" stroke="#000000" stroke-width="91.6667" stroke-miterlimit="8" fill="none"/><rect x="3290" y="1105" width="1002" height="655" stroke="#000000" stroke-width="91.6667" stroke-miterlimit="8" fill="none"/><rect x="4292" y="1105" width="1001" height="655" stroke="#000000" stroke-width="91.6667" stroke-miterlimit="8" fill="none"/><path d="M2605-133.587C2605-189.596 2650.4-235 2706.41-235L3874.59-235C3930.6-235 3976-189.596 3976-133.587L3976 1034.59C3976 1090.6 3930.6 1136 3874.59 1136L2706.41 1136C2650.4 1136 2605 1090.6 2605 1034.59Z" fill-rule="evenodd"/><text fill="#FFFFFF" font-family="Calibri,Calibri_MSFontService,sans-serif" font-weight="700" font-size="1577" transform="matrix(1 0 0 1 2856 980)">X</text></g></svg>