<?xml version="1.0" encoding="UTF-8" standalone="no"?>
<svg
   xmlns:dc="http://purl.org/dc/elements/1.1/"
   xmlns:cc="http://creativecommons.org/ns#"
   xmlns:rdf="http://www.w3.org/1999/02/22-rdf-syntax-ns#"
   xmlns:svg="http://www.w3.org/2000/svg"
   xmlns="http://www.w3.org/2000/svg"
   viewBox="0 0 2048.1667 1536.1666"
   version="1.1"
   id="svg10065"
   width="2048.1667"
   height="1536.1666">
  <metadata
     id="metadata10071">
    <rdf:RDF>
      <cc:Work
         rdf:about="">
        <dc:format>image/svg+xml</dc:format>
        <dc:type
           rdf:resource="http://purl.org/dc/dcmitype/StillImage" />
        <dc:title></dc:title>
      </cc:Work>
    </rdf:RDF>
  </metadata>
  <defs
     id="defs10069" />
  <path
     d="M 2048.0833,384.08333 V 1408.0833 q 0,27 -10,50 -10,23 -27,40 -17,17 -41,28 -24,11 -50,10 H 128.08333 q -27,0 -49.999997,-10 -23,-10 -40,-27 -17,-17 -28,-41 -10.99999967,-24 -9.99999967,-50 V 128.08333 q 0,-27 9.99999967,-49.999997 10,-23 27,-40 17,-17 41,-28 23.999997,-10.99999967 49.999997,-9.99999967 h 736 q 37,0 69,12.99999967 32,13 58,36 25.99997,23 47.99997,50.999997 22,28 40,59 13,23 25,41 12,18 28,30 16,12 35,19 19,7 49,7 h 704 q 27,0 50,10 23,10 40,27 17,17 28,41 11,24 10,50 z m -1183.99997,-256 h -736 v 256 h 736 q 27,0 45,-9 18,-9 35,-22 17,-13 34,-28 17,-15 38.99997,-28 -15,-17 -30.99997,-45 -16,-28 -36,-56 -20,-28 -40,-48 -20,-20 -46,-20 z M 1920.0833,1408.0833 V 384.08333 h -704 q -56,0 -90,9 -34,9 -58,24 -24,15 -41,31 -17,16 -36.99997,31 -20,15 -50,23 -30,8 -76,10 h -736 v 895.99997 z"
     id="path10063" />
</svg>
