<svg xmlns="http://www.w3.org/2000/svg" viewBox="0 0 16 16">
  <g id="canvas">
    <path d="M16,16H0V0H16Z" fill="none" opacity="0" />
    <path d="M16,16H0V0H16Z" fill="none" opacity="0" />
  </g>
  <g id="level-1">
    <path d="M14.352,6.352a2.852,2.852,0,0,1-.9-.2A8.83,8.83,0,0,0,11.914,8.2c.2.8.208.97.477,1.867a1.9,1.9,0,0,0,.672,1,1,1,0,0,0,.609.172,2.6,2.6,0,0,0,.469-.039,1.6,1.6,0,0,0,.461-.117l-.125.461a4.815,4.815,0,0,1-1.274.43c-.8.119-1.368.011-1.656-.758A16.11,16.11,0,0,1,10.992,9.3a15.038,15.038,0,0,1-1.554,2.117,1.6,1.6,0,0,1-1.2.594.747.747,0,0,1-.164-1.477c.624-.142.676.027,1.25.18a9.094,9.094,0,0,0,1.516-1.992c-.054-.273-.081-.352-.242-1.016-.089-.363-.213-.739-.36-1.164a2.317,2.317,0,0,0-.2-.445,1.257,1.257,0,0,0-.212-.287c-.126-.11-.288-.2-1.107-.18-.629.017-2.2.029-2.2.029L5.274,11.461A5.078,5.078,0,0,1,4.82,12.7a4.521,4.521,0,0,1-1.843,1.977,2.642,2.642,0,0,1-1.7.289,1.009,1.009,0,0,1-.664-.383.81.81,0,0,1,.071-.937.729.729,0,0,1,.875-.141,1.417,1.417,0,0,1,.507.516c.241.388.149.232.25.406a.815.815,0,0,0,.453-.172,1.594,1.594,0,0,0,.36-.391,4.161,4.161,0,0,0,.508-1.109c.238-.825.085-.185,1.57-7.094H3.836l.156-.633H5.344a6.23,6.23,0,0,1,.515-1.742A3.472,3.472,0,0,1,9.367,1.039a1.05,1.05,0,0,1,.672.383.62.62,0,0,1,.109.406.861.861,0,0,1-.171.547.657.657,0,0,1-.532.227c-.628,0-.773-.47-1.109-1.024A.821.821,0,0,0,7.82,1.8a2.9,2.9,0,0,0-.7,1.219A12.13,12.13,0,0,0,6.75,4.484c-.052.23-.086.409-.1.539,1.893-.033,2.307-.092,3.4-.156a1.2,1.2,0,0,1,1.219.867,13.516,13.516,0,0,1,.5,1.867v.024a.091.091,0,0,0,.007.023c.662-1.044,1.488-2.782,2.774-2.812C15.482,4.814,15.635,6.324,14.352,6.352Z" fill="#212121" />
  </g>
</svg>