<?xml version="1.0" encoding="UTF-8" standalone="no"?>
<svg
   xmlns:dc="http://purl.org/dc/elements/1.1/"
   xmlns:cc="http://creativecommons.org/ns#"
   xmlns:rdf="http://www.w3.org/1999/02/22-rdf-syntax-ns#"
   xmlns:svg="http://www.w3.org/2000/svg"
   xmlns="http://www.w3.org/2000/svg"
   viewBox="0 0 2048 2048"
   version="1.1"
   id="svg10658"
   width="2048"
   height="2048">
  <metadata
     id="metadata10664">
    <rdf:RDF>
      <cc:Work
         rdf:about="">
        <dc:format>image/svg+xml</dc:format>
        <dc:type
           rdf:resource="http://purl.org/dc/dcmitype/StillImage" />
        <dc:title></dc:title>
      </cc:Work>
    </rdf:RDF>
  </metadata>
  <defs
     id="defs10662" />
  <path
     d="m 1024,0 q 141,0 272,36 131,36 245,103 114,67 207,160 93,93 160,208 67,115 103,245 36,130 37,272 0,141 -36,272 -36,131 -103,245 -67,114 -160,207 -93,93 -208,160 -115,67 -245,103 -130,36 -272,37 -141,0 -272,-36 Q 621,1976 507,1909 393,1842 300,1749 207,1656 140,1541 73,1426 37,1297 1,1168 0,1024 0,883 36,752 72,621 139,507 206,393 299,300 392,207 507,140 622,73 751,37 880,1 1024,0 Z m 809,640 q -38,-81 -92,-152 -54,-71 -120,-131 -66,-60 -143,-105 -77,-45 -161,-75 36,50 65,106 29,56 51,115 22,59 39,121 17,62 28,121 z m 87,384 q 0,-133 -37,-256 h -363 q 8,64 12,127 4,63 4,129 0,65 -4,128 -4,63 -12,128 h 363 q 37,-123 37,-256 z m -896,896 q 49,0 91,-27 42,-27 79,-71 37,-44 64,-99 27,-55 51,-113 24,-58 37,-110 13,-52 23,-92 H 679 q 8,39 23,92 15,53 37,110 22,57 50,112 28,55 65,100 37,45 78,71 41,26 92,27 z m 367,-640 q 8,-64 12,-127 4,-63 5,-129 0,-65 -4,-128 -4,-63 -13,-128 H 657 q -8,64 -12,127 -4,63 -5,129 0,65 4,128 4,63 13,128 z M 128,1024 q 0,133 37,256 h 363 q -8,-64 -12,-127 -4,-63 -4,-129 0,-65 4,-128 4,-63 12,-128 H 165 q -37,123 -37,256 z m 896,-896 q -49,0 -91,27 -42,27 -79,71 -37,44 -64,99 -27,55 -51,113 -24,58 -37,110 -13,52 -23,92 h 690 q -8,-39 -23,-92 -15,-53 -37,-110 -22,-57 -50,-112 -28,-55 -65,-100 -37,-45 -78,-71 -41,-26 -92,-27 z m -293,49 q -84,29 -161,75 -77,46 -143,105 -66,59 -120,130 -54,71 -92,153 h 333 q 12,-60 28,-121 16,-61 38,-120 22,-59 52,-116 30,-57 65,-106 z M 215,1408 q 38,81 92,152 54,71 120,131 66,60 143,105 77,45 161,75 -36,-50 -65,-106 -29,-56 -51,-115 -22,-59 -39,-121 -17,-62 -28,-121 z m 1102,463 q 84,-29 161,-75 77,-46 143,-105 66,-59 120,-130 54,-71 92,-153 h -333 q -12,60 -28,121 -16,61 -38,120 -22,59 -52,116 -30,57 -65,106 z"
     id="path10656" />
</svg>
