<?xml version="1.0" encoding="UTF-8" standalone="no"?>
<svg
   xmlns:dc="http://purl.org/dc/elements/1.1/"
   xmlns:cc="http://creativecommons.org/ns#"
   xmlns:rdf="http://www.w3.org/1999/02/22-rdf-syntax-ns#"
   xmlns:svg="http://www.w3.org/2000/svg"
   xmlns="http://www.w3.org/2000/svg"
   viewBox="0 0 2048 1536"
   version="1.1"
   id="svg12423"
   width="2048"
   height="1536">
  <metadata
     id="metadata12429">
    <rdf:RDF>
      <cc:Work
         rdf:about="">
        <dc:format>image/svg+xml</dc:format>
        <dc:type
           rdf:resource="http://purl.org/dc/dcmitype/StillImage" />
        <dc:title></dc:title>
      </cc:Work>
    </rdf:RDF>
  </metadata>
  <defs
     id="defs12427" />
  <path
     d="M 1792,640 H 1152 V 512 h 640 z m -256,384 H 1152 V 896 h 384 z M 2048,0 V 1536 H 0 V 0 Z M 1920,128 H 128 V 1408 H 1920 Z M 640,896 q -53,0 -99,20 -46,20 -82,55 -36,35 -55,81 -19,46 -20,100 H 256 q 0,-52 14,-101 14,-49 39,-93 25,-44 62,-80 37,-36 83,-62 -33,-35 -51,-81 -18,-46 -19,-95 0,-53 20,-99 20,-46 55,-82 35,-36 81,-55 46,-19 100,-20 53,0 99,20 46,20 82,55 36,35 55,81 19,46 20,100 0,49 -18,95 -18,46 -52,81 46,26 82,62 36,36 62,79 26,43 40,93 14,50 14,102 H 896 q 0,-53 -20,-99 -20,-46 -55,-82 -35,-36 -81,-55 -46,-19 -100,-20 z M 512,640 q 0,27 10,50 10,23 27,40 17,17 41,28 24,11 50,10 27,0 50,-10 23,-10 40,-27 17,-17 28,-41 11,-24 10,-50 0,-27 -10,-50 -10,-23 -27,-40 -17,-17 -41,-28 -24,-11 -50,-10 -27,0 -50,10 -23,10 -40,27 -17,17 -28,41 -11,24 -10,50 z"
     id="path12421" />
</svg>
