<svg xmlns="http://www.w3.org/2000/svg" viewBox="0 0 2048 2048">
  <path d="M128 128h1792v1664H128V128zm1664 1536V512H256v1152h1536zm0-1280V256H256v128h1536zM640 1322V832q0-39 20-69t54-51 75-35 84-22 83-12 69-3q29 0 69 3t82 11 84 22 75 35 53 51 20 70v490q0 41-19 73t-52 56-74 40-83 26-84 14-72 5q-32 0-73-4t-83-14-84-26-73-40-51-56-20-74zm640 0V980q-61 24-125 34t-130 10q-64 0-130-10t-127-34v342q0 8 6 13t12 11q19 17 49 29t64 19 67 11 58 3q25 0 58-3t67-10 64-19 49-30l12-10q6-5 6-14zM767 836q13 17 47 28t74 18 78 11 59 3q19 0 58-3t80-12 74-20 43-32q-12-16-46-28t-73-19-78-10-58-4q-12 0-34 1t-50 5-56 9-53 13-42 18-23 22z" />
</svg>