<?xml version="1.0" encoding="UTF-8" standalone="no"?>
<svg
   xmlns:dc="http://purl.org/dc/elements/1.1/"
   xmlns:cc="http://creativecommons.org/ns#"
   xmlns:rdf="http://www.w3.org/1999/02/22-rdf-syntax-ns#"
   xmlns:svg="http://www.w3.org/2000/svg"
   xmlns="http://www.w3.org/2000/svg"
   viewBox="0 0 2048 1280"
   version="1.1"
   id="svg14202"
   width="2048"
   height="1280">
  <metadata
     id="metadata14208">
    <rdf:RDF>
      <cc:Work
         rdf:about="">
        <dc:format>image/svg+xml</dc:format>
        <dc:type
           rdf:resource="http://purl.org/dc/dcmitype/StillImage" />
        <dc:title></dc:title>
      </cc:Work>
    </rdf:RDF>
  </metadata>
  <defs
     id="defs14206" />
  <path
     d="m 1536,384 v 128 q 76,0 145,17 69,17 123,56 54,39 84,99 30,60 32,148 0,66 -25,124 -25,58 -69,101 -44,43 -102,69 -58,26 -124,26 h -512 q -66,0 -124,-25 -58,-25 -101,-69 -43,-44 -69,-102 -26,-58 -26,-124 0,-87 31,-147 31,-60 85,-99 54,-39 122,-56 68,-17 146,-18 V 384 h -64 q -93,0 -174,35 -81,35 -142,96 -61,61 -96,142 -35,81 -36,175 0,93 35,174 35,81 96,142 61,61 142,96 81,35 175,36 h 512 q 93,0 174,-35 81,-35 142,-96 61,-61 96,-142 35,-81 36,-175 0,-93 -35,-174 -35,-81 -96,-142 -61,-61 -142,-96 -81,-35 -175,-36 z M 896,896 V 768 q 76,0 145,-17 69,-17 123,-56 54,-39 84,-99 30,-60 32,-148 0,-66 -25,-124 -25,-58 -69,-101 -44,-43 -102,-69 -58,-26 -124,-26 H 448 q -66,0 -124,25 -58,25 -101,69 -43,44 -69,102 -26,58 -26,124 0,87 31,147 31,60 85,99 54,39 122,56 68,17 146,18 V 896 H 448 Q 355,896 274,861 193,826 132,765 71,704 36,623 1,542 0,448 0,355 35,274 70,193 131,132 192,71 273,36 354,1 448,0 h 512 q 93,0 174,35 81,35 142,96 61,61 96,142 35,81 36,175 0,93 -35,174 -35,81 -96,142 -61,61 -142,96 -81,35 -175,36 z"
     id="path14200" />
</svg>
