<svg xmlns="http://www.w3.org/2000/svg" viewBox="0 0 2048 2048">
  <path d="M1875 1721l90 90-237 237-237-237 90-90 83 82v-523h128v523l83-82zm-294-204l-90 90-83-82v523h-128v-523l-83 82-90-90 237-237 237 237zM128 1664h896l128 128H0V128h1664v1024h-128V512H128v1152zm0-1408v128h1408V256H128zm1149 865l-143 143q15-26 26-54t18-58h-124q-5 64-18 126t-40 122l6-4-137 137-16 2q-8 1-17 1-93 0-174-35t-142-96-96-142-36-175q0-93 35-174t96-142 142-96 175-36q93 0 174 35t142 96 96 142 36 175q0 8-1 16t-2 17zm-614 276q-26-59-37-120t-16-125H486q14 78 60 142t117 103zm2-619q-71 38-117 102t-62 144h124q5-64 16-125t39-121zm292 374H706q1 17 5 44t10 60 16 65 23 59 31 43 41 17q21 0 38-17t30-43 24-60 16-65 11-59 6-44zm-251-128h252q-2-16-6-43t-11-60-17-65-23-59-31-44-38-17q-22 0-39 17t-31 43-24 59-16 65-11 60-5 44zm348 0h124q-15-80-63-145T995 776q29 60 41 121t18 127z" />
</svg>