<?xml version="1.0" encoding="UTF-8" standalone="no"?>
<svg
   xmlns:dc="http://purl.org/dc/elements/1.1/"
   xmlns:cc="http://creativecommons.org/ns#"
   xmlns:rdf="http://www.w3.org/1999/02/22-rdf-syntax-ns#"
   xmlns:svg="http://www.w3.org/2000/svg"
   xmlns="http://www.w3.org/2000/svg"
   viewBox="0 0 1408 1382"
   version="1.1"
   id="svg14795"
   width="1408"
   height="1382">
  <metadata
     id="metadata14801">
    <rdf:RDF>
      <cc:Work
         rdf:about="">
        <dc:format>image/svg+xml</dc:format>
        <dc:type
           rdf:resource="http://purl.org/dc/dcmitype/StillImage" />
        <dc:title></dc:title>
      </cc:Work>
    </rdf:RDF>
  </metadata>
  <defs
     id="defs14799" />
  <path
     d="m 128,810 q 27,0 50,11 23,11 41,29 18,18 27,42 9,24 10,51 v 306 q 0,27 -9,51 -9,24 -27,42 -18,18 -41,29 -23,11 -51,11 -27,0 -50,-10 -23,-10 -41,-29 -18,-19 -27,-43 -9,-24 -10,-51 V 943 q 0,-27 9,-51 9,-24 27,-42 18,-18 41,-29 23,-11 51,-11 z M 512,331 q 27,0 50,10 23,10 41,29 18,19 27,43 9,24 10,51 v 785 q 0,27 -9,51 -9,24 -27,42 -18,18 -41,29 -23,11 -51,11 -27,0 -50,-10 -23,-10 -41,-29 -18,-19 -27,-43 -9,-24 -10,-51 V 464 q 0,-27 9,-51 9,-24 27,-42 18,-18 41,-29 23,-11 51,-11 z M 1280,0 q 27,0 50,11 23,11 41,29 18,18 27,42 9,24 10,51 v 1112 q 0,27 -9,51 -9,24 -27,42 -18,18 -41,29 -23,11 -51,11 -27,0 -50,-10 -23,-10 -41,-29 -18,-19 -27,-42 -9,-23 -10,-51 V 133 q 0,-27 9,-51 9,-24 27,-42 18,-18 41,-29 23,-11 51,-11 z M 896,532 q 27,0 50,11 23,11 41,29 18,18 27,42 9,24 10,51 v 584 q 0,27 -9,51 -9,24 -27,42 -18,18 -41,29 -23,11 -51,11 -27,0 -50,-10 -23,-10 -41,-29 -18,-19 -27,-43 -9,-24 -10,-51 V 665 q 0,-27 10,-51 10,-24 27,-42 17,-18 40,-29 23,-11 51,-11 z"
     id="path14793" />
</svg>
