<svg xmlns="http://www.w3.org/2000/svg" viewBox="0 0 2048 2048">
  <path d="M192 2048q-39 0-74-15t-61-41-42-62-15-74v-203q0-38 14-73t42-63l564-563q18-18 27-42t9-50q0-14-3-29-5-32-9-64t-4-64q0-93 26-181t73-167 113-144 143-113 167-73 181-27q97 0 187 25t169 71 142 110 111 143 71 168 25 188q0 97-25 187t-71 168-110 142-143 110-168 71-187 25q-99 0-192-27v2q0 52-14 82t-38 47-56 20-69 5h-39q-20 0-40-1v128q0 53-38 91-37 37-90 37H640v64q0 39-15 74t-41 61-62 42-74 15H192zm256-128q22 0 35-8t19-22 7-29 2-34v-16q0-30 8-56t24-47 40-32 57-12h128v-128q0-53 37-90 38-38 91-38h128v-118q0-27 18-45t46-19q13 0 26 5 31 11 58 20t54 15 55 10 63 4q79 0 152-20t138-58 117-90 90-117 58-137 21-153q0-80-20-153t-58-138-90-117-117-90-137-58-154-21h-21q-29 0-58 5t-58 13q-90 25-170 79T898 355t-95 164-35 185q0 40 8 79t8 79q0 51-19 98t-55 84l-563 564q-19 19-19 45v203q0 26 19 45t45 19h256zm960-1408q0-27 10-50t27-40 41-28 50-10q26 0 49 10t41 27 28 41 10 50q0 27-10 50t-27 40-41 28-50 10q-27 0-50-10t-41-27-27-40-10-51z" />
</svg>