<?xml version="1.0" encoding="UTF-8" standalone="no"?>
<svg
   xmlns:dc="http://purl.org/dc/elements/1.1/"
   xmlns:cc="http://creativecommons.org/ns#"
   xmlns:rdf="http://www.w3.org/1999/02/22-rdf-syntax-ns#"
   xmlns:svg="http://www.w3.org/2000/svg"
   xmlns="http://www.w3.org/2000/svg"
   viewBox="0 0 1664 2048"
   version="1.1"
   id="svg15999"
   width="1664"
   height="2048">
  <metadata
     id="metadata16005">
    <rdf:RDF>
      <cc:Work
         rdf:about="">
        <dc:format>image/svg+xml</dc:format>
        <dc:type
           rdf:resource="http://purl.org/dc/dcmitype/StillImage" />
        <dc:title></dc:title>
      </cc:Work>
    </rdf:RDF>
  </metadata>
  <defs
     id="defs16003" />
  <path
     d="m 896,1280 v -128 h 128 v 128 z m 0,256 v -128 h 128 v 128 z m 384,256 v -128 h 128 v 128 z m 0,-256 v -128 h 128 v 128 z m -384,256 v -128 h 128 v 128 z M 1408,0 V 128 H 128 V 1792 H 0 V 0 Z M 640,1152 v 128 H 512 v -128 z m 0,256 v 128 H 512 v -128 z m 0,256 v 128 H 512 V 1664 Z M 256,256 H 1664 V 2048 H 256 Z M 1536,1920 V 384 H 384 V 1920 Z M 1408,512 V 896 H 512 V 512 Z M 1280,768 V 640 H 640 v 128 z m 0,512 v -128 h 128 v 128 z"
     id="path15997" />
</svg>
