<svg width="19" height="20" viewBox="0 0 19 20" fill="none" xmlns="http://www.w3.org/2000/svg">
<path d="M12.501 0C11.6725 0 11.001 0.671573 11.001 1.5V2H5.50098C4.67255 2 4.00098 2.67157 4.00098 3.5V6H1.50098C0.67255 6 0.000976562 6.67157 0.000976562 7.5V12.5C0.000976562 13.3284 0.672549 14 1.50098 14H4.00098L4.00098 16.5C4.00098 17.3284 4.67255 18 5.50098 18H11.001V18.5C11.001 19.3284 11.6725 20 12.501 20H17.501C18.3294 20 19.001 19.3284 19.001 18.5L19.001 13.5C19.001 12.6716 18.3294 12 17.501 12L12.501 12C11.6725 12 11.001 12.6716 11.001 13.5L11.001 17H5.50098C5.22483 17 5.00098 16.7761 5.00098 16.5L5.00098 14H6.50098C7.3294 14 8.00098 13.3284 8.00098 12.5V7.5C8.00098 6.67157 7.3294 6 6.50098 6H5.00098V3.5C5.00098 3.22386 5.22483 3 5.50098 3H11.001V6.5C11.001 7.32843 11.6725 8 12.501 8H17.501C18.3294 8 19.001 7.32843 19.001 6.5V1.5C19.001 0.671573 18.3294 0 17.501 0H12.501ZM12.001 3H18.001V6.5C18.001 6.77614 17.7771 7 17.501 7H12.501C12.2248 7 12.001 6.77614 12.001 6.5V3ZM18.001 2H12.001V1.5C12.001 1.22386 12.2248 1 12.501 1H17.501C17.7771 1 18.001 1.22386 18.001 1.5V2ZM12.001 18.5L12.001 15H18.001L18.001 18.5C18.001 18.7761 17.7771 19 17.501 19H12.501C12.2248 19 12.001 18.7761 12.001 18.5ZM12.001 14V13.5C12.001 13.2239 12.2248 13 12.501 13L17.501 13C17.7771 13 18.001 13.2239 18.001 13.5V14H12.001ZM1.00098 9H7.00098V12.5C7.00098 12.7761 6.77712 13 6.50098 13H1.50098C1.22483 13 1.00098 12.7761 1.00098 12.5V9ZM7.00098 8H1.00098V7.5C1.00098 7.22386 1.22483 7 1.50098 7H6.50098C6.77712 7 7.00098 7.22386 7.00098 7.5V8Z" fill="black"/>
</svg>
