<svg width="12" height="17" viewBox="0 0 12 17" fill="none" xmlns="http://www.w3.org/2000/svg">
<path d="M4 12C4 11.7239 3.77614 11.5 3.5 11.5C3.22386 11.5 3 11.7239 3 12V14C3 14.2761 3.22386 14.5 3.5 14.5C3.77614 14.5 4 14.2761 4 14V12ZM6 7.5C6.27614 7.5 6.5 7.72386 6.5 8L6.5 14C6.5 14.2761 6.27614 14.5 6 14.5C5.72386 14.5 5.5 14.2761 5.5 14L5.5 8C5.5 7.72386 5.72386 7.5 6 7.5ZM9 10C9 9.72386 8.77614 9.5 8.5 9.5C8.22386 9.5 8 9.72386 8 10V14C8 14.2761 8.22386 14.5 8.5 14.5C8.77614 14.5 9 14.2761 9 14V10ZM0 2.5C0 1.39543 0.89543 0.5 2 0.5H6.58579C6.98361 0.5 7.36514 0.658035 7.64645 0.93934L11.5607 4.85355C11.842 5.13486 12 5.51639 12 5.91421V14.5C12 15.6046 11.1046 16.5 10 16.5H2C0.89543 16.5 0 15.6046 0 14.5V2.5ZM2 1.5C1.44772 1.5 1 1.94772 1 2.5V14.5C1 15.0523 1.44772 15.5 2 15.5H10C10.5523 15.5 11 15.0523 11 14.5V6.5H7.5C6.67157 6.5 6 5.82843 6 5V1.5H2ZM7.5 5.5H10.7929L7 1.70711V5C7 5.27614 7.22386 5.5 7.5 5.5Z" fill="black"/>
</svg>
