<svg xmlns="http://www.w3.org/2000/svg" viewBox="0 0 2048 2048">
  <path d="M1280 1024v640h232q-5 26-6 52t-2 52v24H128V256h1664v742l-32-4q-16-2-32-2-82 0-160 32h-288zm384-128V640h-384v256h384zM256 384v128h1408V384H256zm384 1280V640H256v1024h384zm512 0v-256H768v256h384zm0-384v-256H768v256h384zm0-384V640H768v256h384zm512 1152v-128h128v128h-128zm320-640q0 59-19 96t-46 67-59 56-54 65q-10 16-12 33t-3 35v16q0 8 1 16h-128v-48q0-46 14-81t35-63 47-50 46-45 36-45 14-52q0-27-10-50t-27-40-41-28-50-10q-27 0-50 10t-40 27-28 41-10 50h-128q0-53 20-99t55-82 81-55 100-20q53 0 99 20t82 55 55 81 20 100z" />
</svg>