<?xml version="1.0" encoding="UTF-8" standalone="no"?>
<svg
   xmlns:dc="http://purl.org/dc/elements/1.1/"
   xmlns:cc="http://creativecommons.org/ns#"
   xmlns:rdf="http://www.w3.org/1999/02/22-rdf-syntax-ns#"
   xmlns:svg="http://www.w3.org/2000/svg"
   xmlns="http://www.w3.org/2000/svg"
   viewBox="0 0 1856 1792"
   version="1.1"
   id="svg17778"
   width="1856"
   height="1792">
  <metadata
     id="metadata17784">
    <rdf:RDF>
      <cc:Work
         rdf:about="">
        <dc:format>image/svg+xml</dc:format>
        <dc:type
           rdf:resource="http://purl.org/dc/dcmitype/StillImage" />
        <dc:title></dc:title>
      </cc:Work>
    </rdf:RDF>
  </metadata>
  <defs
     id="defs17782" />
  <path
     d="m 1152,768 v 640 h 232 q -5,26 -6,52 -1,26 -2,52 v 24 H 0 V 0 h 1664 v 742 l -32,-4 q -16,-2 -32,-2 -82,0 -160,32 z M 1536,640 V 384 H 1152 V 640 Z M 128,128 V 256 H 1536 V 128 Z M 512,1408 V 384 H 128 v 1024 z m 512,0 V 1152 H 640 v 256 z m 0,-384 V 768 H 640 v 256 z m 0,-384 V 384 H 640 v 256 z m 512,1152 v -128 h 128 v 128 z m 320,-640 q 0,59 -19,96 -19,37 -46,67 -27,30 -59,56 -32,26 -54,65 -10,16 -12,33 -2,17 -3,35 v 16 q 0,8 1,16 h -128 v -48 q 0,-46 14,-81 14,-35 35,-63 21,-28 47,-50 26,-22 46,-45 20,-23 36,-45 16,-22 14,-52 0,-27 -10,-50 -10,-23 -27,-40 -17,-17 -41,-28 -24,-11 -50,-10 -27,0 -50,10 -23,10 -40,27 -17,17 -28,41 -11,24 -10,50 h -128 q 0,-53 20,-99 20,-46 55,-82 35,-36 81,-55 46,-19 100,-20 53,0 99,20 46,20 82,55 36,35 55,81 19,46 20,100 z"
     id="path17776" />
</svg>
