<?xml version="1.0" encoding="UTF-8" standalone="no"?>
<svg
   xmlns:dc="http://purl.org/dc/elements/1.1/"
   xmlns:cc="http://creativecommons.org/ns#"
   xmlns:rdf="http://www.w3.org/1999/02/22-rdf-syntax-ns#"
   xmlns:svg="http://www.w3.org/2000/svg"
   xmlns="http://www.w3.org/2000/svg"
   xmlns:sodipodi="http://sodipodi.sourceforge.net/DTD/sodipodi-0.dtd"
   xmlns:inkscape="http://www.inkscape.org/namespaces/inkscape"
   width="32"
   height="32"
   viewBox="0,0,2048,2048"
   version="1.1"
   id="svg13045"
   sodipodi:docname="Power-Query-List.svg"
   inkscape:version="1.0.2-2 (e86c870879, 2021-01-15)">
  <metadata
     id="metadata13051">
    <rdf:RDF>
      <cc:Work
         rdf:about="">
        <dc:format>image/svg+xml</dc:format>
        <dc:type
           rdf:resource="http://purl.org/dc/dcmitype/StillImage" />
        <dc:title></dc:title>
      </cc:Work>
    </rdf:RDF>
  </metadata>
  <defs
     id="defs13049" />
  <sodipodi:namedview
     pagecolor="#ffffff"
     bordercolor="#666666"
     borderopacity="1"
     objecttolerance="10"
     gridtolerance="10"
     guidetolerance="10"
     inkscape:pageopacity="0"
     inkscape:pageshadow="2"
     inkscape:window-width="820"
     inkscape:window-height="480"
     id="namedview13047"
     showgrid="false"
     inkscape:zoom="3.9375"
     inkscape:cx="8.2392173"
     inkscape:cy="9.5781577"
     inkscape:window-x="0"
     inkscape:window-y="410"
     inkscape:window-maximized="0"
     inkscape:current-layer="svg13045" />
  <path
     class="OfficeIconColors_HighContrast"
     d="M 1600 128 v 1792 h -1216 v -1792 m 1152 64 h -1088 v 1664 h 1088 m -192 -1408 h -704 v -64 h 704 m 0 320 h -704 v -64 h 704 m 0 320 h -704 v -64 h 704 m 0 320 h -704 v -64 h 704 m 0 320 h -704 v -64 h 704 z"
     id="path13037" />
  <path
     class="OfficeIconColors_m23"
     d="M 1344 448 h -704 v -64 h 704 m 0 320 h -704 v -64 h 704 m 0 320 h -704 v -64 h 704 m 0 320 h -704 v -64 h 704 m 0 320 h -704 v -64 h 704 z"
     id="path13041" />
  <path
     class="OfficeIconColors_m22"
     d="M 1600 128 v 1792 h -1216 v -1792 m 1152 64 h -1088 v 1664 h 1088 z"
     id="path13043" />
</svg>
