<?xml version="1.0" encoding="utf-8"?>
<!-- Generator: Adobe Illustrator 25.0.0, SVG Export Plug-In . SVG Version: 6.00 Build 0)  -->
<svg version="1.1" id="Layer_1" xmlns="http://www.w3.org/2000/svg" xmlns:xlink="http://www.w3.org/1999/xlink" x="0px" y="0px"
	 width="32px" height="32px" viewBox="0 0 32 32" enable-background="new 0 0 32 32" xml:space="preserve">
<path fill="#FAFAFA" d="M9.5,10.76V2.5h18V13l-0.066,0.076c-0.051-0.352-0.09-0.721-0.107-1.127L27.288,11h-3.586l-0.029,0.962
	c-0.028,0.902-0.14,1.672-0.334,2.289c-0.169,0.539-0.416,0.966-0.754,1.303c-0.334,0.327-0.769,0.578-1.319,0.759
	c-0.623,0.202-1.404,0.324-2.317,0.36L18,16.711V17.5h-1v-3.61C16.102,11.924,12.845,10.857,9.5,10.76z M25.5,22.984l0.516-0.891
	c0.365-0.635,0.792-1.193,1.281-1.672c0.49-0.49,1.062-0.911,1.719-1.266l0.938-0.531l-0.938-0.516
	c-0.656-0.365-1.234-0.792-1.734-1.281c-0.51-0.49-0.948-1.062-1.312-1.719l-0.516-0.938l-0.531,0.938
	c-0.708,1.26-1.698,2.255-2.969,2.984l-0.906,0.5l0.891,0.531c1.292,0.729,2.302,1.719,3.031,2.969L25.5,22.984z M15,26.529V15
	c0-0.705-2.278-2-6-2s-6,1.295-6,2v12c0,0.705,2.278,2,6,2c1.755,0,3.173-0.292,4.199-0.67L15,26.529z"/>
<rect x="9.5" y="2.5" fill="#C8C6C4" width="18" height="3"/>
<path fill="#1E8BCD" d="M28.5,24.5c0.438-0.115,0.771-0.281,1-0.5c0.219-0.229,0.385-0.562,0.5-1c0.115,0.438,0.286,0.771,0.516,1
	c0.219,0.219,0.547,0.385,0.984,0.5c-0.438,0.115-0.766,0.286-0.984,0.516C30.286,25.234,30.115,25.562,30,26
	c-0.115-0.438-0.281-0.766-0.5-0.984C29.271,24.786,28.938,24.615,28.5,24.5 M26.5,28.5c0.438-0.115,0.771-0.281,1-0.5
	c0.219-0.229,0.385-0.562,0.5-1c0.094,0.26,0.193,0.479,0.297,0.656c0.094,0.177,0.203,0.323,0.328,0.438
	c0.115,0.115,0.245,0.203,0.391,0.266c0.135,0.062,0.297,0.109,0.484,0.141c-0.438,0.115-0.766,0.286-0.984,0.516
	C28.286,29.234,28.115,29.562,28,30c-0.115-0.438-0.281-0.766-0.5-0.984C27.271,28.786,26.938,28.615,26.5,28.5 M26.078,12
	c0.042,1.021,0.182,1.896,0.422,2.625c0.229,0.729,0.583,1.333,1.062,1.812c0.469,0.479,1.068,0.839,1.797,1.078
	c0.729,0.229,1.609,0.359,2.641,0.391v1.172c-1.031,0.042-1.911,0.182-2.641,0.422c-0.74,0.24-1.344,0.599-1.812,1.078
	c-0.479,0.469-0.833,1.068-1.062,1.797c-0.24,0.729-0.375,1.604-0.406,2.625h-1.188c-0.062-1.771-0.443-3.115-1.141-4.031
	L12.875,31.844C12.75,31.948,12.615,32,12.469,32c-0.125,0-0.234-0.042-0.328-0.125S12,31.682,12,31.547
	c0-0.167,0.062-0.312,0.188-0.438L23.047,20.25c-0.469-0.365-1.036-0.641-1.703-0.828S19.896,19.12,19,19.078v-1.156
	c1.031-0.042,1.917-0.182,2.656-0.422c0.729-0.24,1.333-0.594,1.812-1.062c0.479-0.479,0.833-1.083,1.062-1.812
	s0.359-1.604,0.391-2.625H26.078z M25.484,22.25c0.281-0.979,0.729-1.771,1.344-2.375c0.604-0.615,1.396-1.073,2.375-1.375
	c-0.969-0.281-1.75-0.719-2.344-1.312c-0.604-0.604-1.057-1.391-1.359-2.359c-0.573,1.875-1.823,3.099-3.75,3.672
	c0.979,0.302,1.771,0.76,2.375,1.375C24.729,20.479,25.182,21.271,25.484,22.25z"/>
<path fill="#3A3A38" d="M13.199,28.33C12.173,28.708,10.755,29,9,29c-3.722,0-6-1.295-6-2V16.539C4.223,17.413,6.449,18,9,18
	s4.777-0.587,6-1.461v9.99l1-1V15c0-1.657-3.134-3-7-3s-7,1.343-7,3v12c0,1.657,3.134,3,7,3c0.986,0,1.924-0.088,2.775-0.246
	L13.199,28.33z M9,13c3.722,0,6,1.295,6,2c0,0.705-2.278,2-6,2s-6-1.295-6-2C3,14.295,5.278,13,9,13z M15,12
	c0.374,0.195,0.707,0.416,1,0.656V10h5v3h-4.627c0.263,0.273,0.48,0.568,0.627,0.89V14h4v2.385c0.089-0.024,0.183-0.046,0.266-0.073
	c0.273-0.09,0.516-0.197,0.734-0.322V14h1.405c0.08-0.302,0.142-0.636,0.187-1H22v-3h5v1h0.288l0.039,0.949
	c0.037,0.901,0.158,1.67,0.365,2.301c0.083,0.263,0.185,0.498,0.307,0.711V2H9v8.75c0.334,0,0.668,0.013,1,0.032V10h5V12z M21,9h-5
	V6h5V9z M27,9h-5V6h5V9z M10,3h17v2H10V3z M10,9V6h5v3H10z M18,18h-1v-1h1V18z"/>
</svg>
