<?xml version="1.0" encoding="UTF-8" standalone="no"?>
<svg
   xmlns:dc="http://purl.org/dc/elements/1.1/"
   xmlns:cc="http://creativecommons.org/ns#"
   xmlns:rdf="http://www.w3.org/1999/02/22-rdf-syntax-ns#"
   xmlns:svg="http://www.w3.org/2000/svg"
   xmlns="http://www.w3.org/2000/svg"
   xmlns:sodipodi="http://sodipodi.sourceforge.net/DTD/sodipodi-0.dtd"
   xmlns:inkscape="http://www.inkscape.org/namespaces/inkscape"
   width="32px"
   height="32px"
   viewBox="0 0 32 32"
   version="1.1"
   id="svg13772"
   sodipodi:docname="Power-Query-Record.svg"
   inkscape:version="1.0.2-2 (e86c870879, 2021-01-15)">
  <metadata
     id="metadata13778">
    <rdf:RDF>
      <cc:Work
         rdf:about="">
        <dc:format>image/svg+xml</dc:format>
        <dc:type
           rdf:resource="http://purl.org/dc/dcmitype/StillImage" />
        <dc:title></dc:title>
      </cc:Work>
    </rdf:RDF>
  </metadata>
  <defs
     id="defs13776" />
  <sodipodi:namedview
     pagecolor="#ffffff"
     bordercolor="#666666"
     borderopacity="1"
     objecttolerance="10"
     gridtolerance="10"
     guidetolerance="10"
     inkscape:pageopacity="0"
     inkscape:pageshadow="2"
     inkscape:window-width="1620"
     inkscape:window-height="1057"
     id="namedview13774"
     showgrid="false"
     inkscape:zoom="15.75"
     inkscape:cx="15.238727"
     inkscape:cy="22.826118"
     inkscape:window-x="-8"
     inkscape:window-y="402"
     inkscape:window-maximized="1"
     inkscape:current-layer="svg13772" />
  <path
     class="OfficeIconColors_HighContrast"
     d="M3,2v28h25V2H3z M15,21H4v-1h11V21z M15,12H4v-1h11V12z M27,29H16v-8h11V29z M27,20H16v-8h11V20z M27,11H16  V3h11V11z"
     id="path13760" />
  <path
     class="OfficeIconColors_m23"
     d="M16,11h11.5v1H16 M16,20h11.5v1H16V20z"
     id="path13768" />
  <path
     class="OfficeIconColors_m22"
     d="M3,2h25v28H3 M27,29V3H4v26H27z"
     id="path13770" />
</svg>
