<?xml version="1.0" encoding="UTF-8" standalone="no"?>
<svg
   xmlns:dc="http://purl.org/dc/elements/1.1/"
   xmlns:cc="http://creativecommons.org/ns#"
   xmlns:rdf="http://www.w3.org/1999/02/22-rdf-syntax-ns#"
   xmlns:svg="http://www.w3.org/2000/svg"
   xmlns="http://www.w3.org/2000/svg"
   xmlns:sodipodi="http://sodipodi.sourceforge.net/DTD/sodipodi-0.dtd"
   xmlns:inkscape="http://www.inkscape.org/namespaces/inkscape"
   width="32px"
   height="32px"
   viewBox="0 0 32 32"
   version="1.1"
   id="svg4690"
   sodipodi:docname="Power-Query-Whole-Number.svg"
   inkscape:version="1.0.2-2 (e86c870879, 2021-01-15)">
  <metadata
     id="metadata4696">
    <rdf:RDF>
      <cc:Work
         rdf:about="">
        <dc:format>image/svg+xml</dc:format>
        <dc:type
           rdf:resource="http://purl.org/dc/dcmitype/StillImage" />
        <dc:title></dc:title>
      </cc:Work>
    </rdf:RDF>
  </metadata>
  <defs
     id="defs4694" />
  <sodipodi:namedview
     pagecolor="#ffffff"
     bordercolor="#666666"
     borderopacity="1"
     objecttolerance="10"
     gridtolerance="10"
     guidetolerance="10"
     inkscape:pageopacity="0"
     inkscape:pageshadow="2"
     inkscape:window-width="820"
     inkscape:window-height="480"
     id="namedview4692"
     showgrid="false"
     inkscape:zoom="31.5"
     inkscape:cx="16"
     inkscape:cy="16"
     inkscape:window-x="0"
     inkscape:window-y="410"
     inkscape:window-maximized="0"
     inkscape:current-layer="svg4690" />
  <path
     class="OfficeIconColors_HighContrast"
     d="M5.431,22.756V11.128c-0.269,0.269-0.724,0.569-1.366,0.901c-0.641,0.332-1.224,0.563-1.75,0.694v-1.558  c0.675-0.188,1.404-0.491,2.187-0.911c0.782-0.419,1.411-0.839,1.886-1.257H6.97v13.759H5.431z M17.769,6.2  c0-0.823-0.242-1.474-0.725-1.95c-0.484-0.476-1.14-0.714-1.971-0.714c-0.605,0-1.216,0.16-1.832,0.48  c-0.616,0.32-1.173,0.755-1.669,1.307V3.526c0.469-0.457,0.994-0.805,1.577-1.047c0.582-0.241,1.291-0.362,2.128-0.362  c1.259,0,2.273,0.356,3.042,1.067c0.769,0.711,1.153,1.669,1.153,2.873c0,1.048-0.24,1.968-0.719,2.761  c-0.481,0.793-1.325,1.625-2.538,2.496c-1.204,0.857-2.004,1.473-2.398,1.847c-0.396,0.374-0.673,0.735-0.833,1.082  c-0.16,0.347-0.239,0.765-0.239,1.255h7.289V17H11v-0.725c0-0.769,0.104-1.428,0.311-1.976c0.207-0.547,0.553-1.081,1.036-1.603  c0.483-0.52,1.358-1.243,2.624-2.169c1.014-0.728,1.733-1.42,2.158-2.078C17.556,7.794,17.769,7.044,17.769,6.2z M29.984,23.675  c0,1.298-0.463,2.342-1.394,3.137C27.66,27.604,26.439,28,24.927,28c-1.372,0-2.462-0.262-3.273-0.783V25.45  c0.97,0.763,2.083,1.145,3.333,1.145c1.01,0,1.815-0.249,2.413-0.749c0.6-0.498,0.9-1.172,0.9-2.021c0-1.881-1.339-2.82-4.016-2.82  h-1.194V19.61h1.134c2.37,0,3.553-0.883,3.553-2.65c0-1.632-0.903-2.448-2.71-2.448c-1.016,0-1.97,0.341-2.86,1.023V13.94  c0.918-0.549,2.008-0.823,3.273-0.823c1.19,0,2.152,0.316,2.886,0.949c0.732,0.632,1.098,1.46,1.098,2.484  c0,1.892-0.956,3.111-2.87,3.653v0.04c1.016,0.114,1.835,0.482,2.459,1.103C29.673,21.968,29.984,22.744,29.984,23.675z"
     id="path4686" />
  <path
     class="OfficeIconColors_m22"
     d="M5.431,22.756V11.128c-0.269,0.269-0.724,0.569-1.366,0.901c-0.641,0.332-1.224,0.563-1.75,0.694v-1.558  c0.675-0.188,1.404-0.491,2.187-0.911c0.782-0.419,1.411-0.839,1.886-1.257H6.97v13.759H5.431z M17.769,6.2  c0-0.823-0.242-1.474-0.725-1.95c-0.484-0.476-1.14-0.714-1.971-0.714c-0.605,0-1.216,0.16-1.832,0.48  c-0.616,0.32-1.173,0.755-1.669,1.307V3.526c0.469-0.457,0.994-0.805,1.577-1.047c0.582-0.241,1.291-0.362,2.128-0.362  c1.259,0,2.273,0.356,3.042,1.067c0.769,0.711,1.153,1.669,1.153,2.873c0,1.048-0.24,1.968-0.719,2.761  c-0.481,0.793-1.325,1.625-2.538,2.496c-1.204,0.857-2.004,1.473-2.398,1.847c-0.396,0.374-0.673,0.735-0.833,1.082  c-0.16,0.347-0.239,0.765-0.239,1.255h7.289V17H11v-0.725c0-0.769,0.104-1.428,0.311-1.976c0.207-0.547,0.553-1.081,1.036-1.603  c0.483-0.52,1.358-1.243,2.624-2.169c1.014-0.728,1.733-1.42,2.158-2.078C17.556,7.794,17.769,7.044,17.769,6.2z M29.984,23.675  c0,1.298-0.463,2.342-1.394,3.137C27.66,27.604,26.439,28,24.927,28c-1.372,0-2.462-0.262-3.273-0.783V25.45  c0.97,0.763,2.083,1.145,3.333,1.145c1.01,0,1.815-0.249,2.413-0.749c0.6-0.498,0.9-1.172,0.9-2.021c0-1.881-1.339-2.82-4.016-2.82  h-1.194V19.61h1.134c2.37,0,3.553-0.883,3.553-2.65c0-1.632-0.903-2.448-2.71-2.448c-1.016,0-1.97,0.341-2.86,1.023V13.94  c0.918-0.549,2.008-0.823,3.273-0.823c1.19,0,2.152,0.316,2.886,0.949c0.732,0.632,1.098,1.46,1.098,2.484  c0,1.892-0.956,3.111-2.87,3.653v0.04c1.016,0.114,1.835,0.482,2.459,1.103C29.673,21.968,29.984,22.744,29.984,23.675z"
     id="path4688" />
</svg>
