<?xml version="1.0" encoding="UTF-8" standalone="no"?>
<svg
   xmlns:dc="http://purl.org/dc/elements/1.1/"
   xmlns:cc="http://creativecommons.org/ns#"
   xmlns:rdf="http://www.w3.org/1999/02/22-rdf-syntax-ns#"
   xmlns:svg="http://www.w3.org/2000/svg"
   xmlns="http://www.w3.org/2000/svg"
   xmlns:sodipodi="http://sodipodi.sourceforge.net/DTD/sodipodi-0.dtd"
   xmlns:inkscape="http://www.inkscape.org/namespaces/inkscape"
   width="32"
   height="32"
   viewBox="0,0,2048,2048"
   version="1.1"
   id="svg14437"
   sodipodi:docname="Power-Query-Binary.svg"
   inkscape:version="1.0.2-2 (e86c870879, 2021-01-15)">
  <metadata
     id="metadata14443">
    <rdf:RDF>
      <cc:Work
         rdf:about="">
        <dc:format>image/svg+xml</dc:format>
        <dc:type
           rdf:resource="http://purl.org/dc/dcmitype/StillImage" />
        <dc:title></dc:title>
      </cc:Work>
    </rdf:RDF>
  </metadata>
  <defs
     id="defs14441" />
  <sodipodi:namedview
     pagecolor="#ffffff"
     bordercolor="#666666"
     borderopacity="1"
     objecttolerance="10"
     gridtolerance="10"
     guidetolerance="10"
     inkscape:pageopacity="0"
     inkscape:pageshadow="2"
     inkscape:window-width="820"
     inkscape:window-height="480"
     id="namedview14439"
     showgrid="false"
     inkscape:zoom="31.5"
     inkscape:cx="16"
     inkscape:cy="16"
     inkscape:window-x="0"
     inkscape:window-y="410"
     inkscape:window-maximized="0"
     inkscape:current-layer="svg14437" />
  <path
     class="OfficeIconColors_HighContrast"
     d="M 409 899 q -55 0 -97 -25 q -42 -25 -70 -72 q -29 -48 -43 -115 q -15 -68 -15 -154 q 0 -197 62 -297 q 61 -100 179 -100 q 223 0 223 378 q 0 184 -62 285 q -62 100 -177 100 m 12 -706 q -82 0 -125 83 q -44 83 -44 252 q 0 155 41 235 q 41 79 124 79 q 80 0 122 -82 q 41 -83 41 -238 q 0 -329 -159 -329 m 1261 706 q -56 0 -98 -25 q -42 -26 -70 -73 q -29 -48 -43 -115 q -14 -68 -14 -153 q 0 -197 61 -297 q 60 -100 180 -100 q 222 0 222 378 q 0 183 -61 284 q -62 101 -177 101 m 11 -706 q -81 0 -125 83 q -44 82 -44 252 q 0 154 41 234 q 41 80 124 80 q 80 0 122 -82 q 41 -83 41 -238 q 0 -329 -159 -329 m -671 694 v -661 q -15 12 -35 26 q -21 14 -44 27 q -24 13 -49 25 q -25 11 -49 19 v -59 q 110 -34 224 -133 h 19 v 756 m -39 1036 q -55 0 -97 -25 q -42 -25 -70 -72 q -29 -48 -43 -115 q -15 -68 -15 -154 q 0 -197 62 -297 q 61 -100 179 -100 q 223 0 223 378 q 0 184 -62 285 q -62 100 -177 100 m 12 -706 q -82 0 -125 83 q -44 83 -44 252 q 0 155 41 235 q 41 79 124 79 q 80 0 122 -82 q 41 -83 41 -238 q 0 -329 -159 -329 m -679 694 v -661 q -15 12 -35 26 q -21 14 -44 27 q -24 13 -49 25 q -25 11 -49 19 v -59 q 110 -34 224 -133 h 19 v 756 m 1278 0 v -661 q -15 12 -35 26 q -21 14 -44 27 q -23 13 -48 25 q -25 11 -49 19 v -59 q 109 -34 223 -133 h 19 v 756 z"
     id="path14433" />
  <path
     class="OfficeIconColors_m22"
     d="M 409 899 q -55 0 -97 -25 q -42 -25 -70 -72 q -29 -48 -43 -115 q -15 -68 -15 -154 q 0 -197 62 -297 q 61 -100 179 -100 q 223 0 223 378 q 0 184 -62 285 q -62 100 -177 100 m 12 -706 q -82 0 -125 83 q -44 83 -44 252 q 0 155 41 235 q 41 79 124 79 q 80 0 122 -82 q 41 -83 41 -238 q 0 -329 -159 -329 m 1261 706 q -56 0 -98 -25 q -42 -26 -70 -73 q -29 -48 -43 -115 q -14 -68 -14 -153 q 0 -197 61 -297 q 60 -100 180 -100 q 222 0 222 378 q 0 183 -61 284 q -62 101 -177 101 m 11 -706 q -81 0 -125 83 q -44 82 -44 252 q 0 154 41 234 q 41 80 124 80 q 80 0 122 -82 q 41 -83 41 -238 q 0 -329 -159 -329 m -671 694 v -661 q -15 12 -35 26 q -21 14 -44 27 q -24 13 -49 25 q -25 11 -49 19 v -59 q 110 -34 224 -133 h 19 v 756 m -39 1036 q -55 0 -97 -25 q -42 -25 -70 -72 q -29 -48 -43 -115 q -15 -68 -15 -154 q 0 -197 62 -297 q 61 -100 179 -100 q 223 0 223 378 q 0 184 -62 285 q -62 100 -177 100 m 12 -706 q -82 0 -125 83 q -44 83 -44 252 q 0 155 41 235 q 41 79 124 79 q 80 0 122 -82 q 41 -83 41 -238 q 0 -329 -159 -329 m -679 694 v -661 q -15 12 -35 26 q -21 14 -44 27 q -24 13 -49 25 q -25 11 -49 19 v -59 q 110 -34 224 -133 h 19 v 756 m 1278 0 v -661 q -15 12 -35 26 q -21 14 -44 27 q -23 13 -48 25 q -25 11 -49 19 v -59 q 109 -34 223 -133 h 19 v 756 z"
     id="path14435" />
</svg>
