<?xml version="1.0" encoding="UTF-8" standalone="no"?>
<svg
   xmlns:dc="http://purl.org/dc/elements/1.1/"
   xmlns:cc="http://creativecommons.org/ns#"
   xmlns:rdf="http://www.w3.org/1999/02/22-rdf-syntax-ns#"
   xmlns:svg="http://www.w3.org/2000/svg"
   xmlns="http://www.w3.org/2000/svg"
   version="1.1"
   id="Layer_1"
   x="0px"
   y="0px"
   width="30"
   height="30"
   viewBox="0 0 30 30"
   enable-background="new 0 0 32 32"
   xml:space="preserve"><metadata
   id="metadata20296"><rdf:RDF><cc:Work
       rdf:about=""><dc:format>image/svg+xml</dc:format><dc:type
         rdf:resource="http://purl.org/dc/dcmitype/StillImage" /><dc:title></dc:title></cc:Work></rdf:RDF></metadata><defs
   id="defs20294" />
<path
   fill="#fafafa"
   d="M 7.5,8.76 V 0.5 h 18 V 11 l -0.066,0.076 C 25.383,10.724 25.344,10.355 25.327,9.949 L 25.288,9 h -3.586 l -0.029,0.962 c -0.028,0.902 -0.14,1.672 -0.334,2.289 -0.169,0.539 -0.416,0.966 -0.754,1.303 -0.334,0.327 -0.769,0.578 -1.319,0.759 -0.623,0.202 -1.404,0.324 -2.317,0.36 L 16,14.711 V 15.5 H 15 V 11.89 C 14.102,9.924 10.845,8.857 7.5,8.76 Z m 16,12.224 0.516,-0.891 c 0.365,-0.635 0.792,-1.193 1.281,-1.672 0.49,-0.49 1.062,-0.911 1.719,-1.266 l 0.938,-0.531 -0.938,-0.516 c -0.656,-0.365 -1.234,-0.792 -1.734,-1.281 -0.51,-0.49 -0.948,-1.062 -1.312,-1.719 l -0.516,-0.938 -0.531,0.938 c -0.708,1.26 -1.698,2.255 -2.969,2.984 l -0.906,0.5 0.891,0.531 c 1.292,0.729 2.302,1.719 3.031,2.969 z M 13,24.529 V 13 c 0,-0.705 -2.278,-2 -6,-2 -3.722,0 -6,1.295 -6,2 v 12 c 0,0.705 2.278,2 6,2 1.755,0 3.173,-0.292 4.199,-0.67 z"
   id="path20283" />
<rect
   x="7.5"
   y="0.5"
   fill="#c8c6c4"
   width="18"
   height="3"
   id="rect20285" />
<path
   fill="#1e8bcd"
   d="m 26.5,22.5 c 0.438,-0.115 0.771,-0.281 1,-0.5 0.219,-0.229 0.385,-0.562 0.5,-1 0.115,0.438 0.286,0.771 0.516,1 0.219,0.219 0.547,0.385 0.984,0.5 -0.438,0.115 -0.766,0.286 -0.984,0.516 C 28.286,23.234 28.115,23.562 28,24 27.885,23.562 27.719,23.234 27.5,23.016 27.271,22.786 26.938,22.615 26.5,22.5 m -2,4 c 0.438,-0.115 0.771,-0.281 1,-0.5 0.219,-0.229 0.385,-0.562 0.5,-1 0.094,0.26 0.193,0.479 0.297,0.656 0.094,0.177 0.203,0.323 0.328,0.438 0.115,0.115 0.245,0.203 0.391,0.266 0.135,0.062 0.297,0.109 0.484,0.141 -0.438,0.115 -0.766,0.286 -0.984,0.516 C 26.286,27.234 26.115,27.562 26,28 25.885,27.562 25.719,27.234 25.5,27.016 25.271,26.786 24.938,26.615 24.5,26.5 M 24.078,10 c 0.042,1.021 0.182,1.896 0.422,2.625 0.229,0.729 0.583,1.333 1.062,1.812 0.469,0.479 1.068,0.839 1.797,1.078 0.729,0.229 1.609,0.359 2.641,0.391 v 1.172 c -1.031,0.042 -1.911,0.182 -2.641,0.422 -0.74,0.24 -1.344,0.599 -1.812,1.078 -0.479,0.469 -0.833,1.068 -1.062,1.797 -0.24,0.729 -0.375,1.604 -0.406,2.625 H 22.891 C 22.829,21.229 22.448,19.885 21.75,18.969 L 10.875,29.844 C 10.75,29.948 10.615,30 10.469,30 10.344,30 10.235,29.958 10.141,29.875 10.047,29.792 10,29.682 10,29.547 10,29.38 10.062,29.235 10.188,29.109 L 21.047,18.25 C 20.578,17.885 20.011,17.609 19.344,17.422 18.677,17.235 17.896,17.12 17,17.078 v -1.156 c 1.031,-0.042 1.917,-0.182 2.656,-0.422 0.729,-0.24 1.333,-0.594 1.812,-1.062 0.479,-0.479 0.833,-1.083 1.062,-1.812 0.229,-0.729 0.359,-1.604 0.391,-2.625 h 1.157 z m -0.594,10.25 c 0.281,-0.979 0.729,-1.771 1.344,-2.375 0.604,-0.615 1.396,-1.073 2.375,-1.375 -0.969,-0.281 -1.75,-0.719 -2.344,-1.312 -0.604,-0.604 -1.057,-1.391 -1.359,-2.359 -0.573,1.875 -1.823,3.099 -3.75,3.672 0.979,0.302 1.771,0.76 2.375,1.375 0.604,0.603 1.057,1.395 1.359,2.374 z"
   id="path20287" />
<path
   fill="#3a3a38"
   d="M 11.199,26.33 C 10.173,26.708 8.755,27 7,27 3.278,27 1,25.705 1,25 V 14.539 C 2.223,15.413 4.449,16 7,16 c 2.551,0 4.777,-0.587 6,-1.461 v 9.99 l 1,-1 V 13 c 0,-1.657 -3.134,-3 -7,-3 -3.866,0 -7,1.343 -7,3 v 12 c 0,1.657 3.134,3 7,3 0.986,0 1.924,-0.088 2.775,-0.246 z M 7,11 c 3.722,0 6,1.295 6,2 0,0.705 -2.278,2 -6,2 -3.722,0 -6,-1.295 -6,-2 0,-0.705 2.278,-2 6,-2 z m 6,-1 c 0.374,0.195 0.707,0.416 1,0.656 V 8 h 5 v 3 h -4.627 c 0.263,0.273 0.48,0.568 0.627,0.89 V 12 h 4 v 2.385 c 0.089,-0.024 0.183,-0.046 0.266,-0.073 0.273,-0.09 0.516,-0.197 0.734,-0.322 V 12 h 1.405 c 0.08,-0.302 0.142,-0.636 0.187,-1 H 20 V 8 h 5 v 1 h 0.288 l 0.039,0.949 c 0.037,0.901 0.158,1.67 0.365,2.301 0.083,0.263 0.185,0.498 0.307,0.711 V 0 H 7 v 8.75 c 0.334,0 0.668,0.013 1,0.032 V 8 h 5 z M 19,7 H 14 V 4 h 5 z m 6,0 H 20 V 4 h 5 z M 8,1 H 25 V 3 H 8 Z M 8,7 V 4 h 5 v 3 z m 8,9 h -1 v -1 h 1 z"
   id="path20289" />
</svg>
