<?xml version="1.0" encoding="UTF-8" standalone="no"?>
<svg
   xmlns:dc="http://purl.org/dc/elements/1.1/"
   xmlns:cc="http://creativecommons.org/ns#"
   xmlns:rdf="http://www.w3.org/1999/02/22-rdf-syntax-ns#"
   xmlns:svg="http://www.w3.org/2000/svg"
   xmlns="http://www.w3.org/2000/svg"
   xmlns:sodipodi="http://sodipodi.sourceforge.net/DTD/sodipodi-0.dtd"
   xmlns:inkscape="http://www.inkscape.org/namespaces/inkscape"
   width="32"
   height="32"
   viewBox="0,0,2048,2048"
   version="1.1"
   id="svg4049"
   sodipodi:docname="Power-Query-Currency.svg"
   inkscape:version="1.0.2-2 (e86c870879, 2021-01-15)">
  <metadata
     id="metadata4055">
    <rdf:RDF>
      <cc:Work
         rdf:about="">
        <dc:format>image/svg+xml</dc:format>
        <dc:type
           rdf:resource="http://purl.org/dc/dcmitype/StillImage" />
        <dc:title></dc:title>
      </cc:Work>
    </rdf:RDF>
  </metadata>
  <defs
     id="defs4053" />
  <sodipodi:namedview
     pagecolor="#ffffff"
     bordercolor="#666666"
     borderopacity="1"
     objecttolerance="10"
     gridtolerance="10"
     guidetolerance="10"
     inkscape:pageopacity="0"
     inkscape:pageshadow="2"
     inkscape:window-width="820"
     inkscape:window-height="480"
     id="namedview4051"
     showgrid="false"
     inkscape:zoom="31.5"
     inkscape:cx="16"
     inkscape:cy="16"
     inkscape:window-x="0"
     inkscape:window-y="410"
     inkscape:window-maximized="0"
     inkscape:current-layer="svg4049" />
  <path
     class="OfficeIconColors_HighContrast"
     d="M 1023 1654 v 202 h -75 v -198 q -181 0 -315 -76 v -97 q 147 93 315 93 v -566 q -94 -52 -155 -95 q -61 -43 -96 -84 q -36 -42 -50 -87 q -14 -45 -14 -103 q 0 -66 23 -124 q 23 -58 65 -103 q 41 -45 99 -75 q 58 -30 128 -41 v -172 h 75 v 171 q 149 0 250 40 v 98 q -99 -57 -250 -57 v 576 q 89 48 150 90 q 60 41 97 83 q 36 42 52 88 q 15 46 15 103 q 0 68 -22 125 q -22 57 -63 100 q -41 43 -99 71 q -58 28 -130 38 m -75 -1272 q -51 8 -92 29 q -41 21 -70 54 q -29 32 -45 75 q -16 42 -16 91 q 0 47 12 84 q 11 37 37 70 q 26 32 69 63 q 43 30 105 65 m 75 143 v 520 q 54 -9 95 -30 q 41 -21 70 -51 q 28 -31 43 -71 q 14 -40 14 -86 q 0 -45 -11 -81 q -11 -37 -37 -70 q -26 -33 -68 -64 q -43 -32 -106 -67 z"
     id="path4045" />
  <path
     class="OfficeIconColors_m22"
     d="M 1023 1654 v 202 h -75 v -198 q -181 0 -315 -76 v -97 q 147 93 315 93 v -566 q -94 -52 -155 -95 q -61 -43 -96 -84 q -36 -42 -50 -87 q -14 -45 -14 -103 q 0 -66 23 -124 q 23 -58 65 -103 q 41 -45 99 -75 q 58 -30 128 -41 v -172 h 75 v 171 q 149 0 250 40 v 98 q -99 -57 -250 -57 v 576 q 89 48 150 90 q 60 41 97 83 q 36 42 52 88 q 15 46 15 103 q 0 68 -22 125 q -22 57 -63 100 q -41 43 -99 71 q -58 28 -130 38 m -75 -1272 q -51 8 -92 29 q -41 21 -70 54 q -29 32 -45 75 q -16 42 -16 91 q 0 47 12 84 q 11 37 37 70 q 26 32 69 63 q 43 30 105 65 m 75 143 v 520 q 54 -9 95 -30 q 41 -21 70 -51 q 28 -31 43 -71 q 14 -40 14 -86 q 0 -45 -11 -81 q -11 -37 -37 -70 q -26 -33 -68 -64 q -43 -32 -106 -67 z"
     id="path4047" />
</svg>
