<?xml version="1.0" encoding="utf-8"?>
<!-- Generator: Adobe Illustrator 26.2.1, SVG Export Plug-In . SVG Version: 6.00 Build 0)  -->
<svg version="1.1" id="Layer_1" xmlns="http://www.w3.org/2000/svg" xmlns:xlink="http://www.w3.org/1999/xlink" x="0px" y="0px"
	 viewBox="0 0 48 48" style="enable-background:new 0 0 48 48;" xml:space="preserve">
<style type="text/css">
	.st0{fill:#FFFFFF;filter:url(#Adobe_OpacityMaskFilter);}
	.st1{mask:url(#mask0_2871_188_00000011737632939326521680000005722902583284474265_);}
	.st2{fill:url(#SVGID_1_);}
	.st3{fill:url(#SVGID_00000155865749804809628970000010773205050728960952_);}
	.st4{fill-opacity:0.24;}
	.st5{fill-opacity:0.32;}
	.st6{fill:url(#SVGID_00000152260659616698682990000000842056369234293646_);}
	.st7{fill:url(#SVGID_00000072239164755807265270000015070638629682861974_);}
</style>
<defs>
	<filter id="Adobe_OpacityMaskFilter" filterUnits="userSpaceOnUse" x="-1.5" y="-0.5" width="51" height="49">
		<feColorMatrix  type="matrix" values="1 0 0 0 0  0 1 0 0 0  0 0 1 0 0  0 0 0 1 0"/>
	</filter>
</defs>
<mask maskUnits="userSpaceOnUse" x="-1.5" y="-0.5" width="51" height="49" id="mask0_2871_188_00000011737632939326521680000005722902583284474265_">
	<path class="st0" d="M25.5,0.6c-0.9-0.7-2.1-0.7-3,0l-21.3,16c-1.3,1-1.3,3,0,4l10.6,7.9l-4.5,3.4c-1.3,1-1.3,3,0,4l15.2,11.4
		c0.9,0.7,2.1,0.7,3,0l21.3-16c1.3-1,1.3-3,0-4l-10.6-7.9l4.5-3.4c1.3-1,1.3-3,0-4L25.5,0.6z"/>
</mask>
<g class="st1">
	
		<linearGradient id="SVGID_1_" gradientUnits="userSpaceOnUse" x1="17.8001" y1="51.4921" x2="30.6402" y2="5.5354" gradientTransform="matrix(1 0 0 -1 0 50)">
		<stop  offset="0" style="stop-color:#A391E8"/>
		<stop  offset="1" style="stop-color:#685CD0"/>
	</linearGradient>
	<path class="st2" d="M4.6,33.9l25.5-19.1l19.4,14.5L24,48.5L4.6,33.9z"/>
	
		<linearGradient id="SVGID_00000109015261823114175640000002199749320620791970_" gradientUnits="userSpaceOnUse" x1="36.7246" y1="3.4389" x2="27.9746" y2="28.6889" gradientTransform="matrix(1 0 0 -1 0 50)">
		<stop  offset="0" style="stop-color:#38389F"/>
		<stop  offset="1" style="stop-color:#4B44C0"/>
	</linearGradient>
	<path style="fill:url(#SVGID_00000109015261823114175640000002199749320620791970_);" d="M11.8,28.6l18.4-13.8l19.4,14.5L32.6,42
		c-0.9,0.7-2.1,0.7-3,0L11.8,28.6z"/>
	<g>
		<path class="st4" d="M-1.5,18.8L24-0.3l19.4,14.5l-24,18c-0.9,0.7-2.1,0.7-3,0L-1.5,18.8z"/>
	</g>
	<g>
		<path class="st5" d="M-1.5,19.6L24,0.5l19.4,14.5l-24,18c-0.9,0.7-2.1,0.7-3,0L-1.5,19.6z"/>
	</g>
	
		<linearGradient id="SVGID_00000128451513899304435790000010979619739219756443_" gradientUnits="userSpaceOnUse" x1="13.6802" y1="54.9001" x2="26.113" y2="18.5112" gradientTransform="matrix(1 0 0 -1 0 50)">
		<stop  offset="0" style="stop-color:#DBCEF8"/>
		<stop  offset="1" style="stop-color:#C0AFF1"/>
	</linearGradient>
	<path style="fill:url(#SVGID_00000128451513899304435790000010979619739219756443_);" d="M-1.5,18.6L24-0.5l19.4,14.5l-24,18
		c-0.9,0.7-2.1,0.7-3,0L-1.5,18.6z"/>
	
		<linearGradient id="SVGID_00000165954391941838892000000017109940976007304329_" gradientUnits="userSpaceOnUse" x1="11.5444" y1="51.7811" x2="24.9318" y2="3.9691" gradientTransform="matrix(1 0 0 -1 0 50)">
		<stop  offset="0" style="stop-color:#C0AFF1"/>
		<stop  offset="1" style="stop-color:#8675DD"/>
	</linearGradient>
	<path style="fill:url(#SVGID_00000165954391941838892000000017109940976007304329_);" d="M-1.5,18.6L15.4,6c0.9-0.7,2.1-0.7,3,0
		l17.9,13.4L19.4,32.1c-0.9,0.7-2.1,0.7-3,0L-1.5,18.6z"/>
</g>
</svg>
