<?xml version="1.0" encoding="UTF-8" standalone="no"?>
<svg
   xmlns:dc="http://purl.org/dc/elements/1.1/"
   xmlns:cc="http://creativecommons.org/ns#"
   xmlns:rdf="http://www.w3.org/1999/02/22-rdf-syntax-ns#"
   xmlns:svg="http://www.w3.org/2000/svg"
   xmlns="http://www.w3.org/2000/svg"
   xmlns:sodipodi="http://sodipodi.sourceforge.net/DTD/sodipodi-0.dtd"
   xmlns:inkscape="http://www.inkscape.org/namespaces/inkscape"
   width="32"
   height="32"
   viewBox="0,0,2048,2048"
   version="1.1"
   id="svg3382"
   sodipodi:docname="Power-Query-Decimal-Number.svg"
   inkscape:version="1.0.2-2 (e86c870879, 2021-01-15)">
  <metadata
     id="metadata3388">
    <rdf:RDF>
      <cc:Work
         rdf:about="">
        <dc:format>image/svg+xml</dc:format>
        <dc:type
           rdf:resource="http://purl.org/dc/dcmitype/StillImage" />
        <dc:title></dc:title>
      </cc:Work>
    </rdf:RDF>
  </metadata>
  <defs
     id="defs3386" />
  <sodipodi:namedview
     pagecolor="#ffffff"
     bordercolor="#666666"
     borderopacity="1"
     objecttolerance="10"
     gridtolerance="10"
     guidetolerance="10"
     inkscape:pageopacity="0"
     inkscape:pageshadow="2"
     inkscape:window-width="1620"
     inkscape:window-height="1057"
     id="namedview3384"
     showgrid="false"
     inkscape:zoom="31.5"
     inkscape:cx="16"
     inkscape:cy="16"
     inkscape:window-x="-8"
     inkscape:window-y="402"
     inkscape:window-maximized="1"
     inkscape:current-layer="svg3382" />
  <path
     class="OfficeIconColors_HighContrast"
     d="M 545 1536 v -952 q -21 18 -51 38 q -30 20 -63 39 q -34 19 -70 35 q -37 16 -71 27 v -84 q 158 -50 323 -191 h 27 v 1088 m 256 0 q -26 0 -45 -19 q -19 -19 -19 -45 q 0 -27 19 -45 q 18 -19 45 -19 q 26 0 45 19 q 19 18 19 45 q 0 25 -18 45 q -19 19 -46 19 m 770 -795 q 0 -100 -56 -154 q -56 -55 -154 -55 q -135 0 -262 124 v -106 q 118 -102 275 -102 q 66 0 121 21 q 54 20 93 57 q 39 37 60 89 q 21 52 21 114 q 0 57 -12 106 q -12 48 -41 94 q -29 46 -77 93 q -49 46 -123 99 q -42 30 -88 63 q -46 33 -84 73 q -38 39 -63 87 q -25 47 -25 106 h 534 v 86 h -633 v -51 q 0 -41 5 -75 q 5 -35 17 -65 q 12 -31 31 -59 q 18 -28 45 -57 q 53 -56 198 -161 q 66 -48 108 -88 q 42 -40 67 -78 q 24 -38 34 -77 q 9 -39 9 -84 z"
     id="path3378" />
  <path
     class="OfficeIconColors_m22"
     d="M 545 1536 v -952 q -21 18 -51 38 q -30 20 -63 39 q -34 19 -70 35 q -37 16 -71 27 v -84 q 158 -50 323 -191 h 27 v 1088 m 256 0 q -26 0 -45 -19 q -19 -19 -19 -45 q 0 -27 19 -45 q 18 -19 45 -19 q 26 0 45 19 q 19 18 19 45 q 0 25 -18 45 q -19 19 -46 19 m 770 -795 q 0 -100 -56 -154 q -56 -55 -154 -55 q -135 0 -262 124 v -106 q 118 -102 275 -102 q 66 0 121 21 q 54 20 93 57 q 39 37 60 89 q 21 52 21 114 q 0 57 -12 106 q -12 48 -41 94 q -29 46 -77 93 q -49 46 -123 99 q -42 30 -88 63 q -46 33 -84 73 q -38 39 -63 87 q -25 47 -25 106 h 534 v 86 h -633 v -51 q 0 -41 5 -75 q 5 -35 17 -65 q 12 -31 31 -59 q 18 -28 45 -57 q 53 -56 198 -161 q 66 -48 108 -88 q 42 -40 67 -78 q 24 -38 34 -77 q 9 -39 9 -84 z"
     id="path3380" />
</svg>
