<?xml version="1.0" encoding="UTF-8" standalone="no"?>
<svg
   xmlns:dc="http://purl.org/dc/elements/1.1/"
   xmlns:cc="http://creativecommons.org/ns#"
   xmlns:rdf="http://www.w3.org/1999/02/22-rdf-syntax-ns#"
   xmlns:svg="http://www.w3.org/2000/svg"
   xmlns="http://www.w3.org/2000/svg"
   xmlns:sodipodi="http://sodipodi.sourceforge.net/DTD/sodipodi-0.dtd"
   xmlns:inkscape="http://www.inkscape.org/namespaces/inkscape"
   width="32"
   height="32"
   viewBox="0,0,2048,2048"
   version="1.1"
   id="svg12380"
   sodipodi:docname="Power-Query-Table.svg"
   inkscape:version="1.0.2-2 (e86c870879, 2021-01-15)">
  <metadata
     id="metadata12386">
    <rdf:RDF>
      <cc:Work
         rdf:about="">
        <dc:format>image/svg+xml</dc:format>
        <dc:type
           rdf:resource="http://purl.org/dc/dcmitype/StillImage" />
        <dc:title></dc:title>
      </cc:Work>
    </rdf:RDF>
  </metadata>
  <defs
     id="defs12384" />
  <sodipodi:namedview
     pagecolor="#ffffff"
     bordercolor="#666666"
     borderopacity="1"
     objecttolerance="10"
     gridtolerance="10"
     guidetolerance="10"
     inkscape:pageopacity="0"
     inkscape:pageshadow="2"
     inkscape:window-width="820"
     inkscape:window-height="480"
     id="namedview12382"
     showgrid="false"
     inkscape:zoom="5.5684659"
     inkscape:cx="2.9856848"
     inkscape:cy="15.872329"
     inkscape:window-x="0"
     inkscape:window-y="410"
     inkscape:window-maximized="0"
     inkscape:current-layer="svg12380" />
  <path
     class="OfficeIconColors_HighContrast"
     d="M 128 128 h 1792 v 1792 h -1792 m 64 -1728 v 192 h 1664 v -192 m -1152 1152 v -384 h -512 v 384 m 576 -384 v 384 h 512 v -384 m 0 448 h -512 v 448 h 512 m -512 -960 h 512 v -448 h -512 m 576 512 v 384 h 512 v -384 m -512 -64 h 512 v -448 h -512 m -640 0 h -512 v 448 h 512 m -512 512 v 448 h 512 v -448 m 640 448 h 512 v -448 h -512 z"
     id="path12370" />
  <path
     class="OfficeIconColors_m21"
     d="M 160 416 v -256 h 1728 v 256 z"
     id="path12374" />
  <path
     class="OfficeIconColors_m23"
     d="M 1888 960 h -544 v 384 h 544 v 64 h -544 v 480 h -64 v -480 h -512 v 480 h -64 v -480 h -544 v -64 h 544 v -384 h -544 v -64 h 544 v -480 h 64 v 480 h 512 v -480 h 64 v 480 h 544 m -608 448 v -384 h -512 v 384 z"
     id="path12376" />
  <path
     class="OfficeIconColors_m22"
     d="M 128 128 h 1792 v 1792 h -1792 m 1728 -64 v -1408 h -1664 v 1408 m 1664 -1472 v -192 h -1664 v 192 z"
     id="path12378" />
</svg>
