<?xml version="1.0" encoding="UTF-8" standalone="no"?>
<svg
   xmlns:dc="http://purl.org/dc/elements/1.1/"
   xmlns:cc="http://creativecommons.org/ns#"
   xmlns:rdf="http://www.w3.org/1999/02/22-rdf-syntax-ns#"
   xmlns:svg="http://www.w3.org/2000/svg"
   xmlns="http://www.w3.org/2000/svg"
   xmlns:sodipodi="http://sodipodi.sourceforge.net/DTD/sodipodi-0.dtd"
   xmlns:inkscape="http://www.inkscape.org/namespaces/inkscape"
   width="32"
   height="32"
   viewBox="0,0,2048,2048"
   version="1.1"
   id="svg15817"
   sodipodi:docname="Power-Query-Date.svg"
   inkscape:version="1.0.2-2 (e86c870879, 2021-01-15)">
  <metadata
     id="metadata15823">
    <rdf:RDF>
      <cc:Work
         rdf:about="">
        <dc:format>image/svg+xml</dc:format>
        <dc:type
           rdf:resource="http://purl.org/dc/dcmitype/StillImage" />
        <dc:title></dc:title>
      </cc:Work>
    </rdf:RDF>
  </metadata>
  <defs
     id="defs15821" />
  <sodipodi:namedview
     pagecolor="#ffffff"
     bordercolor="#666666"
     borderopacity="1"
     objecttolerance="10"
     gridtolerance="10"
     guidetolerance="10"
     inkscape:pageopacity="0"
     inkscape:pageshadow="2"
     inkscape:window-width="1620"
     inkscape:window-height="1057"
     id="namedview15819"
     showgrid="false"
     inkscape:zoom="11.136932"
     inkscape:cx="19.534144"
     inkscape:cy="27.686919"
     inkscape:window-x="-8"
     inkscape:window-y="402"
     inkscape:window-maximized="1"
     inkscape:current-layer="svg15817" />
  <path
     class="OfficeIconColors_HighContrast"
     d="M 1600 256 h 320 v 1664 h -1792 v -1664 h 320 v -128 h 64 v 128 h 1024 v -128 h 64 m 256 1728 v -1216 h -1664 v 1216 m 1664 -1280 v -256 h -256 v 128 h -64 v -128 h -1024 v 128 h -64 v -128 h -256 v 256 m 640 192 v 128 h -128 v -128 m 384 0 v 128 h -128 v -128 m 384 0 v 128 h -128 v -128 m 384 0 v 128 h -128 v -128 m -896 256 v 128 h -128 v -128 m 384 0 v 128 h -128 v -128 m 384 0 v 128 h -128 v -128 m 384 0 v 128 h -128 v -128 m 384 0 v 128 h -128 v -128 m -896 256 v 128 h -128 v -128 m 384 0 v 128 h -128 v -128 m 384 0 v 128 h -128 v -128 m 384 0 v 128 h -128 v -128 m 384 0 v 128 h -128 v -128 m -896 256 v 128 h -128 v -128 m 384 0 v 128 h -128 v -128 m 384 0 v 128 h -128 v -128 m 384 0 v 128 h -128 v -128 z"
     id="path15811" />
</svg>
