<?xml version="1.0" encoding="UTF-8" standalone="no"?>
<svg
   xmlns:dc="http://purl.org/dc/elements/1.1/"
   xmlns:cc="http://creativecommons.org/ns#"
   xmlns:rdf="http://www.w3.org/1999/02/22-rdf-syntax-ns#"
   xmlns:svg="http://www.w3.org/2000/svg"
   xmlns="http://www.w3.org/2000/svg"
   viewBox="0 0 2013 1664"
   version="1.1"
   id="svg18958"
   width="2013"
   height="1664">
  <metadata
     id="metadata18964">
    <rdf:RDF>
      <cc:Work
         rdf:about="">
        <dc:format>image/svg+xml</dc:format>
        <dc:type
           rdf:resource="http://purl.org/dc/dcmitype/StillImage" />
        <dc:title></dc:title>
      </cc:Work>
    </rdf:RDF>
  </metadata>
  <defs
     id="defs18962" />
  <path
     d="m 2013,832 q 0,56 -37,98 l -597,683 q -21,24 -51,37 -30,13 -62,14 H 149 q -31,0 -58,-12 -27,-12 -47,-32 -20,-20 -32,-47 -12,-27 -12,-59 0,-56 37,-98 L 548,832 37,248 Q 0,206 0,150 0,119 11,92 22,65 43,44 64,23 91,12 118,1 149,0 h 1117 q 32,0 62,13 30,13 51,38 l 597,683 q 37,42 37,98 z M 633,735 1160,128 H 149 q -9,0 -15,6 -6,6 -6,16 0,6 5,13 z M 149,1536 H 626 L 1574,469 1303,159 q -292,336 -584,671 -292,335 -586,671 -5,7 -5,13 0,9 6,15 6,6 15,7 z M 1885,832 q 0,-7 -5,-14 L 1659,566 797,1536 h 469 q 9,0 16,-7 l 598,-683 q 5,-7 5,-14 z"
     id="path18956" />
</svg>
