<?xml version="1.0" encoding="UTF-8" standalone="no"?>
<svg
   xmlns:dc="http://purl.org/dc/elements/1.1/"
   xmlns:cc="http://creativecommons.org/ns#"
   xmlns:rdf="http://www.w3.org/1999/02/22-rdf-syntax-ns#"
   xmlns:svg="http://www.w3.org/2000/svg"
   xmlns="http://www.w3.org/2000/svg"
   xmlns:sodipodi="http://sodipodi.sourceforge.net/DTD/sodipodi-0.dtd"
   xmlns:inkscape="http://www.inkscape.org/namespaces/inkscape"
   width="32"
   height="32"
   viewBox="0,0,2048,2048"
   version="1.1"
   id="svg6018"
   sodipodi:docname="Power-Query-Percentage.svg"
   inkscape:version="1.0.2-2 (e86c870879, 2021-01-15)">
  <metadata
     id="metadata6024">
    <rdf:RDF>
      <cc:Work
         rdf:about="">
        <dc:format>image/svg+xml</dc:format>
        <dc:type
           rdf:resource="http://purl.org/dc/dcmitype/StillImage" />
        <dc:title></dc:title>
      </cc:Work>
    </rdf:RDF>
  </metadata>
  <defs
     id="defs6022" />
  <sodipodi:namedview
     pagecolor="#ffffff"
     bordercolor="#666666"
     borderopacity="1"
     objecttolerance="10"
     gridtolerance="10"
     guidetolerance="10"
     inkscape:pageopacity="0"
     inkscape:pageshadow="2"
     inkscape:window-width="820"
     inkscape:window-height="480"
     id="namedview6020"
     showgrid="false"
     inkscape:zoom="31.5"
     inkscape:cx="16"
     inkscape:cy="16"
     inkscape:window-x="0"
     inkscape:window-y="410"
     inkscape:window-maximized="0"
     inkscape:current-layer="svg6018" />
  <path
     class="OfficeIconColors_HighContrast"
     d="M 574 959 q -73 0 -132 -24 q -60 -25 -102 -70 q -42 -45 -65 -109 q -23 -64 -23 -142 q 0 -83 23 -149 q 23 -67 67 -113 q 43 -47 105 -71 q 62 -25 139 -25 q 73 0 132 24 q 58 24 99 69 q 40 45 62 111 q 21 65 21 147 q 0 79 -22 144 q -23 64 -65 111 q -43 46 -103 72 q -61 25 -136 25 m 7 -630 q -56 0 -101 20 q -45 19 -76 56 q -32 36 -48 89 q -17 52 -17 118 q 0 62 17 113 q 16 51 48 87 q 31 36 75 56 q 44 19 100 19 q 112 0 173 -71 q 61 -72 61 -208 q 0 -136 -60 -207 q -60 -72 -172 -72 m 889 1463 q -74 0 -133 -25 q -60 -25 -102 -70 q -42 -45 -64 -109 q -23 -64 -23 -142 q 0 -83 24 -149 q 23 -66 67 -112 q 43 -47 105 -71 q 61 -25 138 -25 q 73 0 132 24 q 58 24 99 69 q 40 45 62 111 q 21 65 21 147 q 0 79 -23 144 q -23 64 -65 111 q -43 46 -103 72 q -60 25 -135 25 m 7 -631 q -56 0 -100 20 q -45 19 -76 56 q -32 36 -49 89 q -17 53 -17 119 q 0 62 17 113 q 17 50 48 86 q 31 36 76 56 q 44 20 99 20 q 113 0 174 -72 q 60 -73 60 -207 q 0 -137 -60 -208 q -60 -72 -172 -72 m 59 -905 l -926 1536 h -75 l 927 -1536 z"
     id="path6014" />
  <path
     class="OfficeIconColors_m22"
     d="M 574 959 q -73 0 -132 -24 q -60 -25 -102 -70 q -42 -45 -65 -109 q -23 -64 -23 -142 q 0 -83 23 -149 q 23 -67 67 -113 q 43 -47 105 -71 q 62 -25 139 -25 q 73 0 132 24 q 58 24 99 69 q 40 45 62 111 q 21 65 21 147 q 0 79 -22 144 q -23 64 -65 111 q -43 46 -103 72 q -61 25 -136 25 m 7 -630 q -56 0 -101 20 q -45 19 -76 56 q -32 36 -48 89 q -17 52 -17 118 q 0 62 17 113 q 16 51 48 87 q 31 36 75 56 q 44 19 100 19 q 112 0 173 -71 q 61 -72 61 -208 q 0 -136 -60 -207 q -60 -72 -172 -72 m 889 1463 q -74 0 -133 -25 q -60 -25 -102 -70 q -42 -45 -64 -109 q -23 -64 -23 -142 q 0 -83 24 -149 q 23 -66 67 -112 q 43 -47 105 -71 q 61 -25 138 -25 q 73 0 132 24 q 58 24 99 69 q 40 45 62 111 q 21 65 21 147 q 0 79 -23 144 q -23 64 -65 111 q -43 46 -103 72 q -60 25 -135 25 m 7 -631 q -56 0 -100 20 q -45 19 -76 56 q -32 36 -49 89 q -17 53 -17 119 q 0 62 17 113 q 17 50 48 86 q 31 36 76 56 q 44 20 99 20 q 113 0 174 -72 q 60 -73 60 -207 q 0 -137 -60 -208 q -60 -72 -172 -72 m 59 -905 l -926 1536 h -75 l 927 -1536 z"
     id="path6016" />
</svg>
