<?xml version="1.0" encoding="UTF-8" standalone="no"?>
<svg
   xmlns:dc="http://purl.org/dc/elements/1.1/"
   xmlns:cc="http://creativecommons.org/ns#"
   xmlns:rdf="http://www.w3.org/1999/02/22-rdf-syntax-ns#"
   xmlns:svg="http://www.w3.org/2000/svg"
   xmlns="http://www.w3.org/2000/svg"
   xmlns:sodipodi="http://sodipodi.sourceforge.net/DTD/sodipodi-0.dtd"
   xmlns:inkscape="http://www.inkscape.org/namespaces/inkscape"
   width="32"
   height="32"
   viewBox="0,0,2048,2048"
   version="1.1"
   id="svg5349"
   sodipodi:docname="Power-Query-True-False.svg"
   inkscape:version="1.0.2-2 (e86c870879, 2021-01-15)">
  <metadata
     id="metadata5355">
    <rdf:RDF>
      <cc:Work
         rdf:about="">
        <dc:format>image/svg+xml</dc:format>
        <dc:type
           rdf:resource="http://purl.org/dc/dcmitype/StillImage" />
        <dc:title></dc:title>
      </cc:Work>
    </rdf:RDF>
  </metadata>
  <defs
     id="defs5353" />
  <sodipodi:namedview
     pagecolor="#ffffff"
     bordercolor="#666666"
     borderopacity="1"
     objecttolerance="10"
     gridtolerance="10"
     guidetolerance="10"
     inkscape:pageopacity="0"
     inkscape:pageshadow="2"
     inkscape:window-width="820"
     inkscape:window-height="480"
     id="namedview5351"
     showgrid="false"
     inkscape:zoom="31.5"
     inkscape:cx="16"
     inkscape:cy="16"
     inkscape:window-x="0"
     inkscape:window-y="410"
     inkscape:window-maximized="0"
     inkscape:current-layer="svg5349" />
  <path
     class="OfficeIconColors_HighContrast"
     d="M 499 544 l -371 -371 l 45 -45 l 371 371 l 371 -371 l 45 45 l -371 371 l 371 371 l -45 45 l -371 -371 l -371 371 l -45 -45 m 896 986 l -448 -448 l 45 -45 l 403 403 l 851 -851 l 45 45 z"
     id="path5343" />
  <path
     class="OfficeIconColors_m213"
     d="M 499 544 l -371 -371 l 45 -45 l 371 371 l 371 -371 l 45 45 l -371 371 l 371 371 l -45 45 l -371 -371 l -371 371 l -45 -45 z"
     id="path5345" />
  <path
     class="OfficeIconColors_m27"
     d="M 1024 1901 l -448 -448 l 45 -45 l 403 403 l 851 -851 l 45 45 z"
     id="path5347" />
</svg>
