<?xml version="1.0" encoding="UTF-8" standalone="no"?>
<svg
   xmlns:dc="http://purl.org/dc/elements/1.1/"
   xmlns:cc="http://creativecommons.org/ns#"
   xmlns:rdf="http://www.w3.org/1999/02/22-rdf-syntax-ns#"
   xmlns:svg="http://www.w3.org/2000/svg"
   xmlns="http://www.w3.org/2000/svg"
   xmlns:sodipodi="http://sodipodi.sourceforge.net/DTD/sodipodi-0.dtd"
   xmlns:inkscape="http://www.inkscape.org/namespaces/inkscape"
   width="32"
   height="32"
   viewBox="0,0,2048,2048"
   version="1.1"
   id="svg15084"
   sodipodi:docname="Power-Query-Duration.svg"
   inkscape:version="1.0.2-2 (e86c870879, 2021-01-15)">
  <metadata
     id="metadata15090">
    <rdf:RDF>
      <cc:Work
         rdf:about="">
        <dc:format>image/svg+xml</dc:format>
        <dc:type
           rdf:resource="http://purl.org/dc/dcmitype/StillImage" />
        <dc:title></dc:title>
      </cc:Work>
    </rdf:RDF>
  </metadata>
  <defs
     id="defs15088" />
  <sodipodi:namedview
     pagecolor="#ffffff"
     bordercolor="#666666"
     borderopacity="1"
     objecttolerance="10"
     gridtolerance="10"
     guidetolerance="10"
     inkscape:pageopacity="0"
     inkscape:pageshadow="2"
     inkscape:window-width="1620"
     inkscape:window-height="1057"
     id="namedview15086"
     showgrid="false"
     inkscape:zoom="31.5"
     inkscape:cx="16"
     inkscape:cy="16"
     inkscape:window-x="-8"
     inkscape:window-y="402"
     inkscape:window-maximized="1"
     inkscape:current-layer="svg15084" />
  <path
     class="OfficeIconColors_HighContrast"
     d="M 1558 600 q 54 52 98 115 q 43 62 73 132 q 30 70 47 147 q 16 77 16 158 q 0 106 -27 204 q -28 98 -78 184 q -50 85 -120 155 q -70 70 -155 120 q -86 50 -184 78 q -98 27 -204 27 q -106 0 -204 -27 q -98 -28 -183 -78 q -86 -50 -156 -120 q -70 -70 -120 -155 q -50 -86 -77 -184 q -28 -98 -28 -204 q 0 -101 25 -194 q 25 -94 70 -176 q 45 -83 109 -152 q 64 -69 143 -120 q 78 -51 168 -83 q 90 -32 189 -40 v -195 h -192 v -64 h 512 v 64 h -192 v 195 q 120 10 227 54 q 107 44 195 116 l 163 -164 l 46 46 m -695 1417 q 97 0 187 -25 q 90 -25 168 -71 q 78 -46 143 -110 q 64 -65 110 -143 q 46 -78 71 -168 q 25 -90 25 -187 q 0 -97 -25 -187 q -25 -90 -71 -168 q -46 -78 -110 -142 q -65 -65 -143 -111 q -78 -46 -168 -71 q -90 -25 -187 -25 q -97 0 -187 25 q -90 25 -168 71 q -78 46 -142 111 q -65 64 -111 142 q -46 78 -71 168 q -25 90 -25 187 q 0 97 25 187 q 25 90 71 168 q 46 78 111 143 q 64 64 142 110 q 78 46 168 71 q 90 25 187 25 m 0 -768 h 384 v 64 h -448 v -512 h 64 z"
     id="path15078" />
  <path
     class="OfficeIconColors_m22"
     d="M 1558 600 q 54 52 98 115 q 43 62 73 132 q 30 70 47 147 q 16 77 16 158 q 0 106 -27 204 q -28 98 -78 184 q -50 85 -120 155 q -70 70 -155 120 q -86 50 -184 78 q -98 27 -204 27 q -106 0 -204 -27 q -98 -28 -183 -78 q -86 -50 -156 -120 q -70 -70 -120 -155 q -50 -86 -77 -184 q -28 -98 -28 -204 q 0 -101 25 -194 q 25 -94 70 -176 q 45 -83 109 -152 q 64 -69 143 -120 q 78 -51 168 -83 q 90 -32 189 -40 v -195 h -192 v -64 h 512 v 64 h -192 v 195 q 120 10 227 54 q 107 44 195 116 l 163 -164 l 46 46 m -695 1417 q 97 0 187 -25 q 90 -25 168 -71 q 78 -46 143 -110 q 64 -65 110 -143 q 46 -78 71 -168 q 25 -90 25 -187 q 0 -97 -25 -187 q -25 -90 -71 -168 q -46 -78 -110 -142 q -65 -65 -143 -111 q -78 -46 -168 -71 q -90 -25 -187 -25 q -97 0 -187 25 q -90 25 -168 71 q -78 46 -142 111 q -65 64 -111 142 q -46 78 -71 168 q -25 90 -25 187 q 0 97 25 187 q 25 90 71 168 q 46 78 111 143 q 64 64 142 110 q 78 46 168 71 q 90 25 187 25 m 0 -768 h 384 v 64 h -448 v -512 h 64 z"
     id="path15082" />
</svg>
