<?xml version="1.0" encoding="UTF-8" standalone="no"?>
<svg
   xmlns:dc="http://purl.org/dc/elements/1.1/"
   xmlns:cc="http://creativecommons.org/ns#"
   xmlns:rdf="http://www.w3.org/1999/02/22-rdf-syntax-ns#"
   xmlns:svg="http://www.w3.org/2000/svg"
   xmlns="http://www.w3.org/2000/svg"
   viewBox="0 0 2044 2024"
   version="1.1"
   id="svg18371"
   width="2044"
   height="2024">
  <metadata
     id="metadata18377">
    <rdf:RDF>
      <cc:Work
         rdf:about="">
        <dc:format>image/svg+xml</dc:format>
        <dc:type
           rdf:resource="http://purl.org/dc/dcmitype/StillImage" />
        <dc:title></dc:title>
      </cc:Work>
    </rdf:RDF>
  </metadata>
  <defs
     id="defs18375" />
  <path
     d="m 2044,1013 q 0,26 -8,50 -8,24 -26,44 l -709,862 q -22,26 -51,40 -29,14 -64,15 -33,0 -58,-12 -25,-12 -47,-32 -22,-20 -39,-44 -17,-24 -37,-47 -19,24 -36,47 -17,23 -36,42 -19,19 -44,30 -25,11 -59,12 -34,0 -65,-15 -31,-15 -52,-41 L 32,1105 Q 0,1065 0,1012 0,987 8,963 16,939 32,919 L 713,61 q 21,-27 51,-42 30,-15 66,-15 33,0 58,11 25,11 44,30 19,19 37,42 18,23 36,48 19,-23 37,-47 18,-24 39,-43 21,-19 46,-32 25,-13 59,-13 34,0 63,14 29,14 52,41 l 408,496 301,366 q 34,42 34,96 z M 865,514 q 0,6 5,13 l 316,384 294,-358 q 8,-10 17,-18 9,-8 21,-14 L 1202,137 q -6,-8 -16,-8 -10,0 -16,8 L 870,500 q -5,7 -5,14 z m 57,1274 -151,-183 q -34,-40 -34,-95 0,-26 8,-50 8,-24 26,-45 l 321,-389 q 4,-5 4,-14 0,-8 -4,-13 L 771,609 q -34,-42 -34,-95 0,-53 34,-95 L 922,236 847,140 q -6,-7 -17,-7 -11,0 -17,7 L 133,999 q -5,7 -5,13 0,5 1,7 1,2 4,6 l 680,859 q 6,8 17,8 11,0 17,-8 z m 596,-284 q -22,-14 -38,-33 l -294,-358 -316,384 q -5,7 -5,14 0,6 5,13 l 300,364 q 6,8 16,8 10,0 16,-8 z m 398,-494 q 0,-2 -1,-5 -1,-3 -4,-6 L 1611,634 q -6,-7 -15,-7 -11,0 -17,8 l -299,364 q -5,7 -5,13 0,7 5,14 l 299,363 q 6,8 16,8 11,0 17,-8 l 299,-363 q 5,-6 5,-16 z"
     id="path18369" />
</svg>
