<?xml version="1.0" encoding="UTF-8" standalone="no"?>
<svg
   xmlns:dc="http://purl.org/dc/elements/1.1/"
   xmlns:cc="http://creativecommons.org/ns#"
   xmlns:rdf="http://www.w3.org/1999/02/22-rdf-syntax-ns#"
   xmlns:svg="http://www.w3.org/2000/svg"
   xmlns="http://www.w3.org/2000/svg"
   xmlns:sodipodi="http://sodipodi.sourceforge.net/DTD/sodipodi-0.dtd"
   xmlns:inkscape="http://www.inkscape.org/namespaces/inkscape"
   width="32px"
   height="32px"
   viewBox="0 0 32 32"
   version="1.1"
   id="svg11527"
   sodipodi:docname="Power-Query-Any.svg"
   inkscape:version="1.0.2-2 (e86c870879, 2021-01-15)">
  <metadata
     id="metadata11533">
    <rdf:RDF>
      <cc:Work
         rdf:about="">
        <dc:format>image/svg+xml</dc:format>
        <dc:type
           rdf:resource="http://purl.org/dc/dcmitype/StillImage" />
        <dc:title></dc:title>
      </cc:Work>
    </rdf:RDF>
  </metadata>
  <defs
     id="defs11531" />
  <sodipodi:namedview
     pagecolor="#ffffff"
     bordercolor="#666666"
     borderopacity="1"
     objecttolerance="10"
     gridtolerance="10"
     guidetolerance="10"
     inkscape:pageopacity="0"
     inkscape:pageshadow="2"
     inkscape:window-width="820"
     inkscape:window-height="480"
     id="namedview11529"
     showgrid="false"
     inkscape:zoom="31.5"
     inkscape:cx="16"
     inkscape:cy="16"
     inkscape:window-x="0"
     inkscape:window-y="410"
     inkscape:window-maximized="0"
     inkscape:current-layer="svg11527" />
  <path
     class="OfficeIconColors_HighContrast"
     d="M11.766,12.984h-1.031l-1.188-3H5.453l-1.156,3H3.266l3.797-9.969h0.922 M9.234,9.141L7.703,4.766  c-0.094-0.25-0.156-0.484-0.188-0.703H7.484C7.453,4.292,7.385,4.526,7.281,4.766L5.766,9.141 M3.875,19.203  c1.25-0.396,2.49-1.13,3.719-2.203H8v12.781H6.875V18.562c-0.188,0.156-0.401,0.312-0.641,0.469c-0.24,0.146-0.49,0.292-0.75,0.438  c-0.26,0.135-0.526,0.266-0.797,0.391c-0.281,0.125-0.552,0.234-0.812,0.328 M12.797,27.844c-0.115,0.312-0.172,0.625-0.172,0.938  h6.281v1h-7.438v-0.594c0-0.531,0.047-0.984,0.141-1.359c0.083-0.375,0.25-0.734,0.5-1.078c0.25-0.354,0.604-0.719,1.062-1.094  c0.448-0.375,1.036-0.828,1.766-1.359c0.51-0.365,0.932-0.703,1.266-1.016c0.323-0.312,0.583-0.62,0.781-0.922  c0.188-0.302,0.323-0.604,0.406-0.906c0.073-0.312,0.109-0.646,0.109-1c0-0.781-0.214-1.385-0.641-1.812  C16.422,18.214,15.812,18,15.031,18c-1.052,0-2.078,0.484-3.078,1.453v-1.234c0.958-0.802,2.036-1.203,3.234-1.203  c0.5,0,0.964,0.083,1.391,0.25c0.427,0.156,0.792,0.38,1.094,0.672c0.302,0.281,0.542,0.625,0.719,1.031  c0.167,0.406,0.25,0.854,0.25,1.344c0,0.406-0.031,0.776-0.094,1.109c-0.073,0.333-0.188,0.651-0.344,0.953  s-0.365,0.604-0.625,0.906c-0.271,0.302-0.604,0.615-1,0.938c-0.25,0.208-0.557,0.438-0.922,0.688  c-0.365,0.24-0.729,0.51-1.094,0.812c-0.375,0.292-0.724,0.615-1.047,0.969S12.953,27.427,12.797,27.844 M16.703,7.719  c0.323,0.031,0.62,0.109,0.891,0.234s0.505,0.292,0.703,0.5s0.354,0.453,0.469,0.734c0.104,0.281,0.156,0.594,0.156,0.938  c0,0.458-0.083,0.865-0.25,1.219c-0.177,0.354-0.406,0.656-0.688,0.906c-0.292,0.24-0.625,0.422-1,0.547s-0.766,0.188-1.172,0.188  h-2.781V3.016h2.719c0.385,0,0.745,0.052,1.078,0.156c0.323,0.104,0.604,0.255,0.844,0.453s0.427,0.443,0.562,0.734  c0.135,0.281,0.203,0.599,0.203,0.953c0,0.583-0.151,1.083-0.453,1.5c-0.312,0.406-0.74,0.698-1.281,0.875 M13.953,7.391h1.281  c0.719,0,1.271-0.172,1.656-0.516c0.385-0.354,0.578-0.818,0.578-1.391c0-1.083-0.672-1.625-2.016-1.625h-1.5 M17.375,11.625  c0.385-0.354,0.578-0.844,0.578-1.469c0-1.281-0.87-1.922-2.609-1.922h-1.391v3.906h1.703  C16.406,12.141,16.979,11.969,17.375,11.625 M22.875,12.797c-0.875-0.375-1.552-0.964-2.031-1.766  c-0.49-0.802-0.734-1.75-0.734-2.844c0-0.76,0.12-1.464,0.359-2.109c0.24-0.656,0.583-1.224,1.031-1.703  c0.438-0.479,0.964-0.854,1.578-1.125s1.297-0.406,2.047-0.406c0.865,0,1.62,0.13,2.266,0.391v0.984  c-0.698-0.354-1.458-0.531-2.281-0.531c-0.583,0-1.12,0.104-1.609,0.312c-0.5,0.198-0.927,0.49-1.281,0.875  c-0.365,0.375-0.646,0.839-0.844,1.391c-0.208,0.542-0.312,1.161-0.312,1.859c0,0.615,0.094,1.177,0.281,1.688  c0.177,0.51,0.432,0.953,0.766,1.328c0.323,0.365,0.719,0.651,1.188,0.859s0.99,0.312,1.562,0.312c0.969,0,1.812-0.203,2.531-0.609  v0.906c-0.792,0.365-1.667,0.547-2.625,0.547C24.099,13.156,23.469,13.036,22.875,12.797 M27.781,25.125  C27.927,25.5,28,25.891,28,26.297c0,0.573-0.109,1.089-0.328,1.547s-0.516,0.849-0.891,1.172c-0.385,0.312-0.839,0.557-1.359,0.734  C24.901,29.917,24.339,30,23.734,30c-1.083,0-2.005-0.224-2.766-0.672v-1.219c0.927,0.615,1.865,0.922,2.812,0.922  c0.469,0,0.896-0.062,1.281-0.188c0.375-0.135,0.698-0.318,0.969-0.547c0.26-0.229,0.464-0.505,0.609-0.828  c0.135-0.323,0.203-0.677,0.203-1.062c0-0.896-0.312-1.557-0.938-1.984c-0.625-0.438-1.531-0.656-2.719-0.656h-1v-0.969h0.922  c1.073,0,1.891-0.203,2.453-0.609c0.552-0.417,0.828-1.057,0.828-1.922c0-0.74-0.203-1.302-0.609-1.688S24.766,18,23.953,18  c-0.865,0-1.693,0.286-2.484,0.859v-1.141c0.875-0.469,1.781-0.703,2.719-0.703c0.49,0,0.943,0.073,1.359,0.219  c0.406,0.146,0.76,0.349,1.062,0.609c0.292,0.26,0.521,0.573,0.688,0.938s0.25,0.766,0.25,1.203c0,1.677-0.823,2.75-2.469,3.219  v0.031c0.604,0.073,1.146,0.276,1.625,0.609C27.182,24.167,27.542,24.594,27.781,25.125z"
     id="path11523" />
  <path
     class="OfficeIconColors_m22"
     d="M11.766,12.984h-1.031l-1.188-3H5.453l-1.156,3H3.266l3.797-9.969h0.922 M9.234,9.141L7.703,4.766  c-0.094-0.25-0.156-0.484-0.188-0.703H7.484C7.453,4.292,7.385,4.526,7.281,4.766L5.766,9.141 M3.875,19.203  c1.25-0.396,2.49-1.13,3.719-2.203H8v12.781H6.875V18.562c-0.188,0.156-0.401,0.312-0.641,0.469c-0.24,0.146-0.49,0.292-0.75,0.438  c-0.26,0.135-0.526,0.266-0.797,0.391c-0.281,0.125-0.552,0.234-0.812,0.328 M12.797,27.844c-0.115,0.312-0.172,0.625-0.172,0.938  h6.281v1h-7.438v-0.594c0-0.531,0.047-0.984,0.141-1.359c0.083-0.375,0.25-0.734,0.5-1.078c0.25-0.354,0.604-0.719,1.062-1.094  c0.448-0.375,1.036-0.828,1.766-1.359c0.51-0.365,0.932-0.703,1.266-1.016c0.323-0.312,0.583-0.62,0.781-0.922  c0.188-0.302,0.323-0.604,0.406-0.906c0.073-0.312,0.109-0.646,0.109-1c0-0.781-0.214-1.385-0.641-1.812  C16.422,18.214,15.812,18,15.031,18c-1.052,0-2.078,0.484-3.078,1.453v-1.234c0.958-0.802,2.036-1.203,3.234-1.203  c0.5,0,0.964,0.083,1.391,0.25c0.427,0.156,0.792,0.38,1.094,0.672c0.302,0.281,0.542,0.625,0.719,1.031  c0.167,0.406,0.25,0.854,0.25,1.344c0,0.406-0.031,0.776-0.094,1.109c-0.073,0.333-0.188,0.651-0.344,0.953  s-0.365,0.604-0.625,0.906c-0.271,0.302-0.604,0.615-1,0.938c-0.25,0.208-0.557,0.438-0.922,0.688  c-0.365,0.24-0.729,0.51-1.094,0.812c-0.375,0.292-0.724,0.615-1.047,0.969S12.953,27.427,12.797,27.844 M16.703,7.719  c0.323,0.031,0.62,0.109,0.891,0.234s0.505,0.292,0.703,0.5s0.354,0.453,0.469,0.734c0.104,0.281,0.156,0.594,0.156,0.938  c0,0.458-0.083,0.865-0.25,1.219c-0.177,0.354-0.406,0.656-0.688,0.906c-0.292,0.24-0.625,0.422-1,0.547s-0.766,0.188-1.172,0.188  h-2.781V3.016h2.719c0.385,0,0.745,0.052,1.078,0.156c0.323,0.104,0.604,0.255,0.844,0.453s0.427,0.443,0.562,0.734  c0.135,0.281,0.203,0.599,0.203,0.953c0,0.583-0.151,1.083-0.453,1.5c-0.312,0.406-0.74,0.698-1.281,0.875 M13.953,7.391h1.281  c0.719,0,1.271-0.172,1.656-0.516c0.385-0.354,0.578-0.818,0.578-1.391c0-1.083-0.672-1.625-2.016-1.625h-1.5 M17.375,11.625  c0.385-0.354,0.578-0.844,0.578-1.469c0-1.281-0.87-1.922-2.609-1.922h-1.391v3.906h1.703  C16.406,12.141,16.979,11.969,17.375,11.625 M22.875,12.797c-0.875-0.375-1.552-0.964-2.031-1.766  c-0.49-0.802-0.734-1.75-0.734-2.844c0-0.76,0.12-1.464,0.359-2.109c0.24-0.656,0.583-1.224,1.031-1.703  c0.438-0.479,0.964-0.854,1.578-1.125s1.297-0.406,2.047-0.406c0.865,0,1.62,0.13,2.266,0.391v0.984  c-0.698-0.354-1.458-0.531-2.281-0.531c-0.583,0-1.12,0.104-1.609,0.312c-0.5,0.198-0.927,0.49-1.281,0.875  c-0.365,0.375-0.646,0.839-0.844,1.391c-0.208,0.542-0.312,1.161-0.312,1.859c0,0.615,0.094,1.177,0.281,1.688  c0.177,0.51,0.432,0.953,0.766,1.328c0.323,0.365,0.719,0.651,1.188,0.859s0.99,0.312,1.562,0.312c0.969,0,1.812-0.203,2.531-0.609  v0.906c-0.792,0.365-1.667,0.547-2.625,0.547C24.099,13.156,23.469,13.036,22.875,12.797 M27.781,25.125  C27.927,25.5,28,25.891,28,26.297c0,0.573-0.109,1.089-0.328,1.547s-0.516,0.849-0.891,1.172c-0.385,0.312-0.839,0.557-1.359,0.734  C24.901,29.917,24.339,30,23.734,30c-1.083,0-2.005-0.224-2.766-0.672v-1.219c0.927,0.615,1.865,0.922,2.812,0.922  c0.469,0,0.896-0.062,1.281-0.188c0.375-0.135,0.698-0.318,0.969-0.547c0.26-0.229,0.464-0.505,0.609-0.828  c0.135-0.323,0.203-0.677,0.203-1.062c0-0.896-0.312-1.557-0.938-1.984c-0.625-0.438-1.531-0.656-2.719-0.656h-1v-0.969h0.922  c1.073,0,1.891-0.203,2.453-0.609c0.552-0.417,0.828-1.057,0.828-1.922c0-0.74-0.203-1.302-0.609-1.688S24.766,18,23.953,18  c-0.865,0-1.693,0.286-2.484,0.859v-1.141c0.875-0.469,1.781-0.703,2.719-0.703c0.49,0,0.943,0.073,1.359,0.219  c0.406,0.146,0.76,0.349,1.062,0.609c0.292,0.26,0.521,0.573,0.688,0.938s0.25,0.766,0.25,1.203c0,1.677-0.823,2.75-2.469,3.219  v0.031c0.604,0.073,1.146,0.276,1.625,0.609C27.182,24.167,27.542,24.594,27.781,25.125z"
     id="path11525" />
</svg>
