<svg width="1600" height="1600" viewBox="0 0 1600 1600" fill="none" xmlns="http://www.w3.org/2000/svg">
<mask id="mask0" mask-type="alpha" maskUnits="userSpaceOnUse" x="200" y="0" width="1200" height="1600">
<path d="M1333.25 0C1370.11 0 1400 29.8849 1400 66.75V1533.25C1400 1570.11 1370.11 1600 1333.25 1600H266.667C229.848 1600 200 1570.15 200 1533.33V866.667C200 829.848 229.848 800 266.667 800H525V466.667C525 429.848 554.848 400 591.667 400H850V66.75C850 29.885 879.885 0 916.75 0H1333.25Z" fill="white"/>
</mask>
<g mask="url(#mask0)">
<path d="M1400 66.75L1400 1533.25C1400 1570.11 1370.11 1600 1333.25 1600H916.75C879.885 1600 850 1570.11 850 1533.25L850 66.75C850 29.885 879.885 0 916.75 0H1333.25C1370.12 0 1400 29.8849 1400 66.75Z" fill="url(#paint0_linear)"/>
<g filter="url(#filter0_dd)">
<path d="M1075 466.667V1600H525V466.667C525 429.848 554.848 400 591.667 400H1008.33C1045.15 400 1075 429.848 1075 466.667Z" fill="url(#paint1_linear)"/>
</g>
<path d="M200 866.667V1533.33C200 1570.15 229.848 1600 266.667 1600H750V866.667C750 829.848 720.152 800 683.333 800H266.667C229.848 800 200 829.848 200 866.667Z" fill="url(#paint2_linear)"/>
</g>
<defs>
<filter id="filter0_dd" x="519.667" y="396" width="560.667" height="1210.67" filterUnits="userSpaceOnUse" color-interpolation-filters="sRGB">
<feFlood flood-opacity="0" result="BackgroundImageFix"/>
<feColorMatrix in="SourceAlpha" type="matrix" values="0 0 0 0 0 0 0 0 0 0 0 0 0 0 0 0 0 0 127 0"/>
<feOffset dy="0.253333"/>
<feGaussianBlur stdDeviation="0.253333"/>
<feColorMatrix type="matrix" values="0 0 0 0 0 0 0 0 0 0 0 0 0 0 0 0 0 0 0.2 0"/>
<feBlend mode="normal" in2="BackgroundImageFix" result="effect1_dropShadow"/>
<feColorMatrix in="SourceAlpha" type="matrix" values="0 0 0 0 0 0 0 0 0 0 0 0 0 0 0 0 0 0 127 0"/>
<feOffset dy="1.33333"/>
<feGaussianBlur stdDeviation="2.66667"/>
<feColorMatrix type="matrix" values="0 0 0 0 0 0 0 0 0 0 0 0 0 0 0 0 0 0 0.18 0"/>
<feBlend mode="normal" in2="effect1_dropShadow" result="effect2_dropShadow"/>
<feBlend mode="normal" in="SourceGraphic" in2="effect2_dropShadow" result="shape"/>
</filter>
<linearGradient id="paint0_linear" x1="758.333" y1="-1.49632e-05" x2="1447.82" y2="1507.15" gradientUnits="userSpaceOnUse">
<stop stop-color="#E6AD10"/>
<stop offset="1" stop-color="#C87E0E"/>
</linearGradient>
<linearGradient id="paint1_linear" x1="524.955" y1="400" x2="1105.79" y2="1561.67" gradientUnits="userSpaceOnUse">
<stop stop-color="#F6D751"/>
<stop offset="1" stop-color="#E6AD10"/>
</linearGradient>
<linearGradient id="paint2_linear" x1="199.955" y1="800" x2="519.784" y2="1581.68" gradientUnits="userSpaceOnUse">
<stop stop-color="#F9E589"/>
<stop offset="1" stop-color="#F6D751"/>
</linearGradient>
</defs>
</svg>
