<?xml version="1.0" encoding="UTF-8" standalone="no"?>
<svg
   xmlns:dc="http://purl.org/dc/elements/1.1/"
   xmlns:cc="http://creativecommons.org/ns#"
   xmlns:rdf="http://www.w3.org/1999/02/22-rdf-syntax-ns#"
   xmlns:svg="http://www.w3.org/2000/svg"
   xmlns="http://www.w3.org/2000/svg"
   xmlns:sodipodi="http://sodipodi.sourceforge.net/DTD/sodipodi-0.dtd"
   xmlns:inkscape="http://www.inkscape.org/namespaces/inkscape"
   width="32px"
   height="32px"
   viewBox="0 0 32 32"
   version="1.1"
   id="svg933"
   sodipodi:docname="Power-Query-Text.svg"
   inkscape:version="1.0.2-2 (e86c870879, 2021-01-15)">
  <metadata
     id="metadata939">
    <rdf:RDF>
      <cc:Work
         rdf:about="">
        <dc:format>image/svg+xml</dc:format>
        <dc:type
           rdf:resource="http://purl.org/dc/dcmitype/StillImage" />
        <dc:title></dc:title>
      </cc:Work>
    </rdf:RDF>
  </metadata>
  <defs
     id="defs937" />
  <sodipodi:namedview
     pagecolor="#ffffff"
     bordercolor="#666666"
     borderopacity="1"
     objecttolerance="10"
     gridtolerance="10"
     guidetolerance="10"
     inkscape:pageopacity="0"
     inkscape:pageshadow="2"
     inkscape:window-width="1620"
     inkscape:window-height="1057"
     id="namedview935"
     showgrid="false"
     inkscape:zoom="20.9375"
     inkscape:cx="16"
     inkscape:cy="16"
     inkscape:window-x="-8"
     inkscape:window-y="402"
     inkscape:window-maximized="1"
     inkscape:current-layer="svg933" />
  <path
     class="OfficeIconColors_HighContrast"
     d="M14.852,25h-1.875l-1.522-4.042H5.316L3.875,25H2l5.524-14.454h1.754L14.852,25z M10.89,19.426l-2.268-6.149  c-0.06-0.168-0.137-0.494-0.232-0.978H8.35c-0.06,0.41-0.135,0.736-0.222,0.978l-2.248,6.149H10.89z M21.9,12.302  c0,1.264-0.46,2.278-1.381,3.044c-0.881,0.739-1.982,1.109-3.306,1.109H13V2h4.113c1.304,0,2.322,0.329,3.054,0.988  c0.672,0.598,1.008,1.371,1.008,2.318c0,0.813-0.22,1.522-0.661,2.127c-0.44,0.605-1.049,1.038-1.829,1.3v0.04  c0.981,0.115,1.758,0.474,2.328,1.079C21.605,10.484,21.9,11.3,21.9,12.302z M19.401,5.639c0-1.404-0.921-2.107-2.762-2.107h-1.945  v4.667h1.734c0.927,0,1.655-0.223,2.183-0.67C19.137,7.082,19.401,6.452,19.401,5.639z M20.126,12.282  c0-1.707-1.163-2.56-3.488-2.56h-1.945v5.201h2.298c1.028,0,1.818-0.252,2.369-0.756C19.871,13.703,20.126,13.075,20.126,12.282z   M30,29.153C28.938,29.718,27.611,30,26.018,30c-2.07,0-3.726-0.672-4.969-2.016c-1.216-1.317-1.824-3.047-1.824-5.191  c0-2.359,0.726-4.256,2.177-5.695c1.377-1.364,3.108-2.046,5.191-2.046c1.377,0,2.514,0.199,3.407,0.595v1.794  c-1.028-0.577-2.171-0.867-3.427-0.867c-1.627,0-2.95,0.534-3.971,1.603c-1.068,1.116-1.603,2.621-1.603,4.516  c0,1.802,0.504,3.226,1.512,4.274c0.954,1.002,2.201,1.502,3.74,1.502c1.451,0,2.701-0.323,3.75-0.968V29.153z"
     id="path929" />
  <path
     class="OfficeIconColors_m22"
     d="M14.852,25h-1.875l-1.522-4.042H5.316L3.875,25H2l5.524-14.454h1.754L14.852,25z M10.89,19.426l-2.268-6.149  c-0.06-0.168-0.137-0.494-0.232-0.978H8.35c-0.06,0.41-0.135,0.736-0.222,0.978l-2.248,6.149H10.89z M21.9,12.302  c0,1.264-0.46,2.278-1.381,3.044c-0.881,0.739-1.982,1.109-3.306,1.109H13V2h4.113c1.304,0,2.322,0.329,3.054,0.988  c0.672,0.598,1.008,1.371,1.008,2.318c0,0.813-0.22,1.522-0.661,2.127c-0.44,0.605-1.049,1.038-1.829,1.3v0.04  c0.981,0.115,1.758,0.474,2.328,1.079C21.605,10.484,21.9,11.3,21.9,12.302z M19.401,5.639c0-1.404-0.921-2.107-2.762-2.107h-1.945  v4.667h1.734c0.927,0,1.655-0.223,2.183-0.67C19.137,7.082,19.401,6.452,19.401,5.639z M20.126,12.282  c0-1.707-1.163-2.56-3.488-2.56h-1.945v5.201h2.298c1.028,0,1.818-0.252,2.369-0.756C19.871,13.703,20.126,13.075,20.126,12.282z   M30,29.153C28.938,29.718,27.611,30,26.018,30c-2.07,0-3.726-0.672-4.969-2.016c-1.216-1.317-1.824-3.047-1.824-5.191  c0-2.359,0.726-4.256,2.177-5.695c1.377-1.364,3.108-2.046,5.191-2.046c1.377,0,2.514,0.199,3.407,0.595v1.794  c-1.028-0.577-2.171-0.867-3.427-0.867c-1.627,0-2.95,0.534-3.971,1.603c-1.068,1.116-1.603,2.621-1.603,4.516  c0,1.802,0.504,3.226,1.512,4.274c0.954,1.002,2.201,1.502,3.74,1.502c1.451,0,2.701-0.323,3.75-0.968V29.153z"
     id="path931" />
</svg>
