<?xml version="1.0" encoding="UTF-8" standalone="no"?>
<svg
   xmlns:dc="http://purl.org/dc/elements/1.1/"
   xmlns:cc="http://creativecommons.org/ns#"
   xmlns:rdf="http://www.w3.org/1999/02/22-rdf-syntax-ns#"
   xmlns:svg="http://www.w3.org/2000/svg"
   xmlns="http://www.w3.org/2000/svg"
   viewBox="0 0 2055 1920"
   version="1.1"
   id="svg2188"
   width="2055"
   height="1920">
  <metadata
     id="metadata2194">
    <rdf:RDF>
      <cc:Work
         rdf:about="">
        <dc:format>image/svg+xml</dc:format>
        <dc:type
           rdf:resource="http://purl.org/dc/dcmitype/StillImage" />
        <dc:title></dc:title>
      </cc:Work>
    </rdf:RDF>
  </metadata>
  <defs
     id="defs2192" />
  <path
     d="M 1158,768 H 669 l 309,792 q -69,107 -94,228 L 15,745 Q 0,727 0,704 0,686 9,671 L 393,31 q 8,-14 23,-22 15,-8 32,-9 h 1152 q 17,0 32,8 15,8 23,23 l 384,640 q 9,15 9,33 0,14 -9,30 -9,16 -21,31 -12,15 -25,30 -13,15 -22,25 -49,-62 -112,-108 -63,-46 -139,-72 h 151 L 1564,128 h -253 l 193,484 q -32,2 -64,8 -32,6 -64,17 L 1173,128 H 875 L 671,640 h 695 q -59,20 -111,51 -52,31 -97,77 z M 484,128 177,640 H 533 L 737,128 Z M 822,1514 532,768 H 201 Z m 949,-53 q 64,33 116,81 52,48 90,108 38,60 58,128 20,68 20,142 h -128 q 0,-79 -30,-149 -30,-70 -83,-122 -53,-52 -122,-82 -69,-30 -149,-31 -80,0 -149,30 -69,30 -122,82 -53,52 -83,123 -30,71 -30,149 h -128 q 0,-73 20,-141 20,-68 57,-128 37,-60 89,-108 52,-48 118,-82 -74,-55 -115,-136 -41,-81 -41,-173 0,-79 30,-149 30,-70 82,-122 52,-52 122,-83 70,-31 150,-30 79,0 149,30 70,30 122,82 52,52 83,123 31,71 30,149 0,92 -41,173 -41,81 -115,136 z m -228,-53 q 53,0 99,-20 46,-20 82,-55 36,-35 55,-81 19,-46 20,-100 0,-53 -20,-99 -20,-46 -55,-82 -35,-36 -81,-55 -46,-19 -100,-20 -53,0 -99,20 -46,20 -82,55 -36,35 -55,81 -19,46 -20,100 0,53 20,99 20,46 55,82 35,36 81,55 46,19 100,20 z"
     id="path2186" />
</svg>
