<svg xmlns="http://www.w3.org/2000/svg" viewBox="0 0 2048 2048">
  <path d="M1158 896H669l309 792q-69 107-94 228L15 873Q0 855 0 832q0-18 9-33l384-640q8-14 23-22t32-9h1152q17 0 32 8t23 23l384 640q9 15 9 33 0 14-9 30t-21 31-25 30-22 25q-49-62-112-108t-139-72h151l-307-512h-253l193 484q-32 2-64 8t-64 17l-203-509H875L671 768h695q-59 20-111 51t-97 77zM484 256L177 768h356l204-512H484zm338 1386L532 896H201l621 746zm949-53q64 33 116 81t90 108 58 128 20 142h-128q0-79-30-149t-83-122-122-82-149-31q-80 0-149 30t-122 82-83 123-30 149h-128q0-73 20-141t57-128 89-108 118-82q-74-55-115-136t-41-173q0-79 30-149t82-122 122-83 150-30q79 0 149 30t122 82 83 123 30 149q0 92-41 173t-115 136zm-228-53q53 0 99-20t82-55 55-81 20-100q0-53-20-99t-55-82-81-55-100-20q-53 0-99 20t-82 55-55 81-20 100q0 53 20 99t55 82 81 55 100 20z" />
</svg>