<svg xmlns="http://www.w3.org/2000/svg" viewBox="0 0 2048 2048">
  <path d="M1771 850l104-104q23 67 34 137t11 141q0 124-32 238t-90 213-141 182-181 140-214 91-238 32q-124 0-238-32t-213-90-182-141-140-181-91-214-32-238q0-123 32-237t90-214 141-182 181-140 214-91 238-32q168 0 322 60t279 174l-90 90q-106-94-237-145t-274-51q-106 0-204 27t-183 78-156 120-120 155-77 184-28 204q0 106 27 204t78 183 120 156 155 120 184 77 204 28q106 0 204-27t183-78 156-120 120-155 77-184 28-204q0-45-5-88t-16-86zM621 915l339 339 979-979 90 90L960 1434l-429-429 90-90z" />
</svg>