<?xml version="1.0" encoding="UTF-8" standalone="no"?>
<svg
   xmlns:dc="http://purl.org/dc/elements/1.1/"
   xmlns:cc="http://creativecommons.org/ns#"
   xmlns:rdf="http://www.w3.org/1999/02/22-rdf-syntax-ns#"
   xmlns:svg="http://www.w3.org/2000/svg"
   xmlns="http://www.w3.org/2000/svg"
   viewBox="0 0 1901.1111 1792.1405"
   version="1.1"
   id="svg2775"
   width="1901.1111"
   height="1792.1405">
  <metadata
     id="metadata2781">
    <rdf:RDF>
      <cc:Work
         rdf:about="">
        <dc:format>image/svg+xml</dc:format>
        <dc:type
           rdf:resource="http://purl.org/dc/dcmitype/StillImage" />
        <dc:title></dc:title>
      </cc:Work>
    </rdf:RDF>
  </metadata>
  <defs
     id="defs2779" />
  <path
     d="m 1643.1111,722.02941 104,-104 q 23,67 34,137 11,70 11,141 0,123.99999 -32,237.99999 -32,114 -90,213 -58,99 -141,182 -83,83 -181,140 -98,57 -214,91 -116,34 -237.99999,32 -124,0 -238,-32 -114,-32 -213,-90 -99,-58 -182,-141 -83,-83 -140,-181 -56.999999,-98 -90.999999,-214 -33.9999999,-116 -31.99999989,-237.99999 0,-123 31.99999989,-237 32,-114 89.999999,-214 58,-100 141,-182 83,-82 181,-140 98,-57.999998 214,-90.999998 116,-33.00000024 238,-32.00000024 167.99999,0 321.99999,60.00000024 154,59.999998 279,173.999998 l -90,90 q -106,-94 -237,-145 -131,-51 -273.99999,-51 -106,0 -204,27 -98,27 -183,78 -85,51 -156,120 -71,69 -120,155 -49,86 -77,184 -28,98 -28,204 0,105.99999 27,203.99999 27,98 78,183 51,85 120,156 69,71 155,120 86,49 184,77 98,28 204,28 105.99999,0 203.99999,-27 98,-27 183,-78 85,-51 156,-120 71,-69 120,-155 49,-86 77,-184 28,-98 28,-203.99999 0,-45 -5,-88 -5,-43 -16,-86 z m -1149.99999,65 339,338.99999 978.99999,-978.99999 90,90 -1068.99999,1068.99999 -429,-428.99999 z"
     id="path2773" />
</svg>
