<?xml version="1.0" encoding="UTF-8" standalone="no"?>
<svg
   xmlns:dc="http://purl.org/dc/elements/1.1/"
   xmlns:cc="http://creativecommons.org/ns#"
   xmlns:rdf="http://www.w3.org/1999/02/22-rdf-syntax-ns#"
   xmlns:svg="http://www.w3.org/2000/svg"
   xmlns="http://www.w3.org/2000/svg"
   xmlns:sodipodi="http://sodipodi.sourceforge.net/DTD/sodipodi-0.dtd"
   xmlns:inkscape="http://www.inkscape.org/namespaces/inkscape"
   width="80"
   height="96"
   viewBox="0 0 80 96"
   fill="none"
   version="1.1"
   id="svg4077"
   sodipodi:docname="ReportBuilder.svg"
   inkscape:version="1.0.2-2 (e86c870879, 2021-01-15)">
  <metadata
     id="metadata4081">
    <rdf:RDF>
      <cc:Work
         rdf:about="">
        <dc:format>image/svg+xml</dc:format>
        <dc:type
           rdf:resource="http://purl.org/dc/dcmitype/StillImage" />
        <dc:title></dc:title>
      </cc:Work>
    </rdf:RDF>
  </metadata>
  <sodipodi:namedview
     pagecolor="#ffffff"
     bordercolor="#666666"
     borderopacity="1"
     objecttolerance="10"
     gridtolerance="10"
     guidetolerance="10"
     inkscape:pageopacity="0"
     inkscape:pageshadow="2"
     inkscape:window-width="820"
     inkscape:window-height="480"
     id="namedview4079"
     showgrid="false"
     inkscape:zoom="1.8561553"
     inkscape:cx="53.330146"
     inkscape:cy="85.330145"
     inkscape:window-x="3441"
     inkscape:window-y="72"
     inkscape:window-maximized="0"
     inkscape:current-layer="svg4077" />
  <defs
     id="defs4050">
    <filter
       id="filter0_f">
      <feFlood
         flood-opacity="0"
         result="BackgroundImageFix"
         id="feFlood4013" />
      <feBlend
         mode="normal"
         in="SourceGraphic"
         in2="BackgroundImageFix"
         result="shape"
         id="feBlend4015" />
      <feGaussianBlur
         stdDeviation="0.4"
         result="effect1_foregroundBlur"
         id="feGaussianBlur4017" />
    </filter>
    <filter
       id="filter1_f">
      <feFlood
         flood-opacity="0"
         result="BackgroundImageFix"
         id="feFlood4020" />
      <feBlend
         mode="normal"
         in="SourceGraphic"
         in2="BackgroundImageFix"
         result="shape"
         id="feBlend4022" />
      <feGaussianBlur
         stdDeviation="4"
         result="effect1_foregroundBlur"
         id="feGaussianBlur4024" />
    </filter>
    <linearGradient
       id="paint0_linear"
       x1="73.697403"
       y1="88"
       x2="29.996599"
       y2="0.91952801"
       gradientUnits="userSpaceOnUse">
      <stop
         stop-color="#E6AD10"
         id="stop4027" />
      <stop
         offset="1"
         stop-color="#F2C811"
         id="stop4029" />
    </linearGradient>
    <linearGradient
       id="paint1_linear"
       x1="62"
       y1="-5.46875"
       x2="95.298897"
       y2="90.713402"
       gradientUnits="userSpaceOnUse">
      <stop
         stop-color="#E6AD10"
         id="stop4032" />
      <stop
         offset="1"
         stop-color="#C87E0E"
         id="stop4034" />
    </linearGradient>
    <linearGradient
       id="paint2_linear"
       x1="52.998199"
       y1="46"
       x2="77.786201"
       y2="93.593002"
       gradientUnits="userSpaceOnUse">
      <stop
         stop-color="#F6D751"
         id="stop4037" />
      <stop
         offset="1"
         stop-color="#E6AD10"
         id="stop4039" />
    </linearGradient>
    <linearGradient
       id="paint3_linear"
       x1="39.998199"
       y1="64"
       x2="55.527199"
       y2="108.11"
       gradientUnits="userSpaceOnUse">
      <stop
         stop-color="#F9E589"
         id="stop4042" />
      <stop
         offset="1"
         stop-color="#F6D751"
         id="stop4044" />
    </linearGradient>
    <clipPath
       id="clip0">
      <rect
         width="96"
         height="96"
         fill="#ffffff"
         id="rect4047"
         x="0"
         y="0" />
    </clipPath>
  </defs>
  <g
     clip-path="url(#clip0)"
     id="g4075"
     transform="translate(-8)">
    <mask
       id="mask0"
       mask-type="alpha"
       maskUnits="userSpaceOnUse"
       x="8"
       y="0"
       width="80"
       height="96">
      <path
         d="M 9.17157,22.8284 C 8.42143,23.5786 8,24.596 8,25.6568 V 84 c 0,2.2091 1.79086,4 4,4 h 28 v 4 c 0,2.2091 1.7909,4 4,4 h 40 c 2.2091,0 4,-1.7908 4,-4 V 28 H 80 V 4 C 80,1.79086 78.2091,0 76,0 H 33.6569 C 32.596,0 31.5786,0.421426 30.8284,1.17157 Z"
         fill="#c4c4c4"
         id="path4052" />
    </mask>
    <g
       mask="url(#mask0)"
       id="g4073">
      <path
         d="M 8,0 H 80 V 88 H 8 Z"
         fill="url(#paint0_linear)"
         id="path4055"
         style="fill:url(#paint0_linear)" />
      <path
         d="m 32,0 v 20 c 0,2.2091 -1.7909,4 -4,4 H 8 Z"
         fill="#f9e589"
         id="path4057" />
      <path
         d="M 88,32 V 96 H 70 c -2.2091,0 -4,-1.7909 -4,-4 V 32 c 0,-2.2091 1.7909,-4 4,-4 h 14 c 2.2091,0 4,1.7909 4,4 z"
         fill="url(#paint1_linear)"
         id="path4059"
         style="fill:url(#paint1_linear)" />
      <g
         filter="url(#filter0_f)"
         id="g4063">
        <path
           d="m 75,96.4 v -46 c 0,-2.2091 -1.7909,-4 -4,-4 H 57 c -2.2091,0 -4,1.7909 -4,4 v 14 h -9 c -2.2091,0 -4,1.7909 -4,4 v 28 z"
           fill="#000000"
           fill-opacity="0.2"
           id="path4061" />
      </g>
      <g
         filter="url(#filter1_f)"
         id="g4067">
        <path
           d="M 75,98 V 52 c 0,-2.2091 -1.7909,-4 -4,-4 H 57 c -2.2091,0 -4,1.7909 -4,4 v 14 h -9 c -2.2091,0 -4,1.7909 -4,4 v 28 z"
           fill="#000000"
           fill-opacity="0.18"
           id="path4065" />
      </g>
      <path
         d="M 75,50 V 96 H 57 c -2.2091,0 -4,-1.7909 -4,-4 V 50 c 0,-2.2091 1.7909,-4 4,-4 h 14 c 2.2091,0 4,1.7909 4,4 z"
         fill="url(#paint2_linear)"
         id="path4069"
         style="fill:url(#paint2_linear)" />
      <path
         d="M 40,68 V 96 H 62 V 68 c 0,-2.2091 -1.7909,-4 -4,-4 H 44 c -2.2091,0 -4,1.7909 -4,4 z"
         fill="url(#paint3_linear)"
         id="path4071"
         style="fill:url(#paint3_linear)" />
    </g>
  </g>
</svg>
