<svg xmlns="http://www.w3.org/2000/svg" viewBox="0 0 2048 2048">
  <path d="M256 440q0-90 36-170t98-140 143-95T704 0q92 0 173 35t143 97 96 142 36 174q0 92-35 173t-97 143-142 96-174 36q-95 0-177-36t-142-98-94-145-35-177zm768 1q0-65-26-122t-70-99-102-67-122-25q-67 0-125 25t-101 68-69 102-25 125q0 67 25 125t68 101 102 69 125 25q69 0 127-25t102-70 67-104 24-128zm256 128q0-65 26-122t70-99 102-67 122-25q67 0 125 25t101 68 69 102 25 125q0 67-25 125t-68 101-102 69-125 25q-69 0-127-25t-102-70-67-104-24-128zm512 7q0-39-15-74t-41-61-62-42-74-15q-39 0-74 15t-61 41-42 62-15 74q0 39 15 74t41 61 62 42 74 15q39 0 74-15t61-41 42-62 15-74zM0 1276q0-43 14-88t42-81 65-60 87-23h992q48 0 86 23t66 59 41 82 15 88q0 87-18 167t-55 152-94 130-134 104q-45 26-94 43t-101 28-103 15-105 5q-105 0-208-19t-195-72q-78-45-134-104t-94-129-55-151-18-169zm1397 516q49-59 84-131 93-7 173-34t140-78 92-125 34-176q0-15-4-31t-13-31-22-24-30-10h-301q-11-34-26-66t-35-62h362q44 0 80 19t63 51 40 72 14 82q0 154-69 273t-205 193q-86 47-183 62t-194 16zm-117-512q0-17-5-39t-15-42-27-33-37-14H212q-21 0-37 13t-26 33-16 42-5 40q0 133 43 229t121 160 182 93 230 30q124 0 229-30t183-93 120-159 44-230z" />
</svg>