<?xml version="1.0" encoding="UTF-8" standalone="no"?>
<svg
   xmlns:dc="http://purl.org/dc/elements/1.1/"
   xmlns:cc="http://creativecommons.org/ns#"
   xmlns:rdf="http://www.w3.org/1999/02/22-rdf-syntax-ns#"
   xmlns:svg="http://www.w3.org/2000/svg"
   xmlns="http://www.w3.org/2000/svg"
   viewBox="0 0 1738 1862"
   version="1.1"
   id="svg5261"
   width="1738"
   height="1862">
  <metadata
     id="metadata5267">
    <rdf:RDF>
      <cc:Work
         rdf:about="">
        <dc:format>image/svg+xml</dc:format>
        <dc:type
           rdf:resource="http://purl.org/dc/dcmitype/StillImage" />
        <dc:title></dc:title>
      </cc:Work>
    </rdf:RDF>
  </metadata>
  <defs
     id="defs5265" />
  <path
     d="m 919,1341 q -24,32 -37,70 -13,38 -13,79 0,40 13,78 13,38 37,71 l -100,74 q -36,-48 -55,-105 -19,-57 -19,-117 0,-61 19,-118 19,-57 56,-107 z M 720,1192 q -48,65 -74,141 -26,76 -27,157 0,81 26,157 26,76 75,140 l -99,75 q -60,-80 -92,-175 -32,-95 -32,-196 0,-101 31,-196 31,-95 93,-177 z m 695,74 q 36,48 55,105 19,57 20,118 0,60 -19,118 -19,58 -56,106 l -99,-75 q 49,-66 49,-148 0,-40 -12,-78 -12,-38 -37,-71 z m 199,-149 q 60,81 92,176 32,95 32,197 0,100 -32,195 -32,95 -92,177 l -99,-75 q 48,-65 74,-140 26,-75 27,-157 0,-81 -26,-157 -26,-76 -75,-141 z m -497,248 q 25,0 48,10 23,10 40,27 17,17 27,40 10,23 10,48 0,25 -10,47 -10,22 -27,40 -17,18 -40,27 -23,9 -48,10 -25,0 -47,-10 -22,-10 -40,-27 -18,-17 -27,-39 -9,-22 -10,-48 0,-25 10,-47 10,-22 26,-40 16,-18 39,-28 23,-10 49,-10 z m 125,-871 q -56,35 -126,59 -70,24 -145,40 -75,16 -150,21 -75,5 -140,7 -65,0 -139,-6 -74,-6 -150,-22 -76,-16 -144,-39 -68,-23 -125,-60 v 934 q 0,27 27,51 27,24 63,42 36,18 74,32 38,14 60,18 4,34 10,67 6,33 15,67 -51,-11 -115,-31 -64,-20 -122,-54 Q 77,1586 39,1540 1,1494 0,1428 V 310 q 0,-46 21,-83 21,-37 57,-68 36,-31 81,-53 45,-22 92,-39 47,-17 92,-28 45,-11 82,-18 63,-11 127,-16 64,-5 129,-5 66,0 129,5 63,5 128,17 36,6 81,17 45,11 93,28 48,17 93,40 45,23 80,53 35,30 57,67 22,37 22,84 v 799 l -122,93 z m -2,-184 q 0,-17 -13,-33 -13,-16 -27,-28 -43,-36 -109,-60 -66,-24 -138,-39 -72,-15 -145,-20 -73,-5 -127,-6 -55,0 -127,6 -72,6 -145,20 -73,14 -139,39 -66,25 -109,60 -14,11 -26,26 -12,15 -12,35 0,20 12,35 12,15 26,26 48,38 113,62 65,24 135,38 70,14 142,20 72,6 130,6 60,0 130,-5 70,-5 140,-20 70,-15 136,-39 66,-24 113,-62 14,-11 27,-26 13,-15 13,-35 z"
     id="path5259" />
</svg>
