<svg width="2802" height="2475" xmlns="http://www.w3.org/2000/svg" xmlns:xlink="http://www.w3.org/1999/xlink" overflow="hidden"><defs><clipPath id="clip0"><rect x="-209" y="-62" width="2802" height="2475"/></clipPath><clipPath id="clip1"><rect x="-209" y="-62" width="2475" height="2476"/></clipPath><clipPath id="clip2"><rect x="-209" y="-62" width="2475" height="2476"/></clipPath><clipPath id="clip3"><rect x="-209" y="-62" width="2475" height="2476"/></clipPath><clipPath id="clip4"><rect x="764" y="1921" width="1730" height="493"/></clipPath><clipPath id="clip5"><rect x="764" y="1921" width="1730" height="493"/></clipPath><clipPath id="clip6"><rect x="-195" y="-278" width="2689" height="2692"/></clipPath><clipPath id="clip7"><rect x="863" y="1431" width="1730" height="491"/></clipPath><clipPath id="clip8"><rect x="863" y="1431" width="1730" height="491"/></clipPath><clipPath id="clip9"><rect x="863" y="1431" width="2690" height="2691"/></clipPath></defs><g clip-path="url(#clip0)" transform="translate(209 62)"><g clip-path="url(#clip1)"><g clip-path="url(#clip2)"><g clip-path="url(#clip3)"><path d="M1337.88-61.9999 2111.31-61.9999 2111.31 711.438 1801.94 711.438 1801.94 1330.19 409.75 1330.19 409.75 1639.56 719.125 1639.56 719.125 2413-54.3125 2413-54.3125 1639.56 255.062 1639.56 255.062 711.438-54.3125 711.438-54.3125-61.9999 719.125-61.9999 719.125 711.438 409.75 711.438 409.75 1175.5 1647.25 1175.5 1647.25 711.438 1337.88 711.438 1337.88-61.9999ZM100.375 556.75 564.438 556.75 564.438 92.6876 100.375 92.6876 100.375 556.75ZM564.438 2258.31 564.438 1794.25 100.375 1794.25 100.375 2258.31 564.438 2258.31ZM1956.62 556.75 1956.62 92.6876 1492.56 92.6876 1492.56 556.75 1956.62 556.75Z"/></g></g></g><g clip-path="url(#clip4)"><g clip-path="url(#clip5)"><g clip-path="url(#clip6)"><path d="M1613.64 2004.9C1592.63 2032.91 1576.44 2063.55 1565.06 2096.81 1553.68 2130.07 1547.99 2164.65 1547.99 2200.53 1547.99 2235.55 1553.68 2269.68 1565.06 2302.95 1576.44 2336.21 1592.63 2367.28 1613.64 2396.17L1482.34 2493.33C1450.83 2451.31 1426.76 2405.36 1410.13 2355.46 1393.5 2305.57 1385.18 2254.37 1385.18 2201.85 1385.18 2148.45 1393.5 2096.81 1410.13 2046.92 1426.76 1997.02 1451.27 1950.19 1483.65 1906.43L1613.64 2004.9ZM1352.36 1809.27C1310.34 1866.16 1277.96 1927.87 1255.2 1994.4 1232.44 2060.92 1220.62 2129.63 1219.75 2200.53 1219.75 2271.43 1231.13 2340.15 1253.88 2406.67 1276.64 2473.19 1309.47 2534.47 1352.36 2590.49L1222.37 2688.96C1169.85 2618.93 1129.59 2542.34 1101.58 2459.19 1073.57 2376.03 1059.56 2290.25 1059.56 2201.85 1059.56 2113.44 1073.13 2027.66 1100.27 1944.51 1127.4 1861.35 1168.1 1783.89 1222.37 1712.11L1352.36 1809.27ZM2264.87 1906.43C2296.38 1948.44 2320.45 1994.4 2337.08 2044.29 2353.71 2094.18 2362.47 2145.83 2363.34 2199.22 2363.34 2251.74 2355.03 2303.38 2338.4 2354.15 2321.76 2404.92 2297.26 2451.31 2264.87 2493.33L2134.89 2394.85C2177.78 2337.08 2199.22 2272.31 2199.22 2200.53 2199.22 2165.52 2193.97 2131.38 2183.47 2098.12 2172.96 2064.86 2156.77 2033.79 2134.89 2004.9L2264.87 1906.43ZM2526.15 1710.8C2578.67 1781.7 2618.93 1858.72 2646.94 1941.88 2674.95 2025.03 2688.96 2111.25 2688.96 2200.53 2688.96 2288.07 2674.95 2373.41 2646.94 2456.56 2618.93 2539.72 2578.67 2617.18 2526.15 2688.96L2396.17 2590.49C2438.18 2533.59 2470.57 2472.32 2493.33 2406.67 2516.08 2341.02 2527.9 2272.31 2528.78 2200.53 2528.78 2129.63 2517.4 2060.92 2494.64 1994.4 2471.88 1927.87 2439.06 1866.16 2396.17 1809.27L2526.15 1710.8ZM1873.6 2036.41C1895.49 2036.41 1916.5 2040.79 1936.63 2049.54 1956.76 2058.3 1974.27 2070.11 1989.15 2084.99 2004.03 2099.87 2015.84 2117.38 2024.6 2137.51 2033.35 2157.64 2037.73 2178.65 2037.73 2200.53 2037.73 2222.42 2033.35 2242.99 2024.6 2262.24 2015.84 2281.5 2004.03 2299.01 1989.15 2314.76 1974.27 2330.52 1956.76 2342.33 1936.63 2350.21 1916.5 2358.09 1895.49 2362.47 1873.6 2363.34 1851.72 2363.34 1831.15 2358.97 1811.9 2350.21 1792.64 2341.46 1775.13 2329.64 1759.38 2314.76 1743.62 2299.88 1731.8 2282.81 1723.93 2263.56 1716.05 2244.3 1711.67 2223.29 1710.8 2200.53 1710.8 2178.65 1715.17 2158.08 1723.93 2138.82 1732.68 2119.57 1744.06 2102.06 1758.06 2086.31 1772.07 2070.55 1789.14 2058.3 1809.27 2049.54 1829.4 2040.79 1850.85 2036.41 1873.6 2036.41ZM2037.73 892.818C1988.71 923.454 1933.56 949.276 1872.29 970.283 1811.02 991.291 1747.56 1008.8 1681.91 1022.8 1616.26 1036.81 1550.61 1046 1484.97 1050.37 1419.32 1054.75 1358.05 1057.81 1301.15 1059.56 1244.26 1059.56 1183.42 1056.94 1118.65 1051.69 1053.88 1046.44 988.227 1036.81 921.703 1022.8 855.18 1008.8 792.157 991.728 732.636 971.596 673.115 951.464 618.408 925.205 568.515 892.818L568.515 2119.13C568.515 2142.76 580.332 2165.08 603.965 2186.09 627.599 2207.1 655.171 2225.48 686.682 2241.24 718.193 2256.99 750.58 2271 783.842 2283.25 817.104 2295.51 843.363 2303.38 862.62 2306.88 866.121 2336.65 870.498 2365.97 875.75 2394.85 881.001 2423.74 887.566 2453.06 895.444 2482.82 850.803 2473.19 800.473 2459.63 744.453 2442.12 688.433 2424.61 635.039 2400.98 584.271 2371.22 533.503 2341.46 491.488 2306.45 458.226 2266.18 424.964 2225.92 407.895 2176.9 407.02 2119.13L407.02 651.232C407.02 610.968 416.211 574.642 434.592 542.256 452.974 509.869 477.92 480.109 509.431 452.974 540.943 425.839 576.393 402.643 615.782 383.387 655.171 364.13 695.435 347.061 736.575 332.181 777.715 317.301 817.979 305.046 857.368 295.418 896.757 285.789 932.645 277.912 965.031 271.784 1020.18 262.156 1075.76 255.153 1131.78 250.777 1187.8 246.4 1244.26 244.212 1301.15 244.212 1358.92 244.212 1415.38 246.4 1470.52 250.777 1525.67 255.153 1581.69 262.594 1638.58 273.097 1670.09 278.349 1705.55 285.789 1744.93 295.418 1784.32 305.046 1825.03 317.301 1867.04 332.181 1909.06 347.061 1949.76 364.567 1989.15 384.7 2028.54 404.832 2063.55 428.027 2094.18 454.287 2124.82 480.546 2149.77 509.869 2169.02 542.256 2188.28 574.642 2197.91 611.405 2197.91 652.545L2197.91 1701.61 2037.73 1823.71 2037.73 892.818ZM2035.1 651.232C2035.1 636.352 2029.41 621.909 2018.03 607.904 2006.65 593.899 1994.84 581.645 1982.58 571.141 1944.94 539.63 1897.24 513.37 1839.47 492.363 1781.7 471.355 1721.3 454.287 1658.28 441.157 1595.26 428.027 1531.8 419.274 1467.9 414.898 1404 410.521 1348.42 407.895 1301.15 407.02 1253.01 407.02 1197.43 409.646 1134.4 414.898 1071.38 420.15 1007.92 428.903 944.024 441.157 880.126 453.412 819.292 470.48 761.521 492.363 703.751 514.246 656.046 540.505 618.408 571.141 606.153 580.769 594.774 592.148 584.271 605.278 573.767 618.408 568.515 633.726 568.515 651.232 568.515 668.738 573.767 684.056 584.271 697.186 594.774 710.316 606.153 721.695 618.408 731.323 660.423 764.585 709.878 791.72 766.773 812.727 823.668 833.735 882.752 850.365 944.024 862.62 1005.3 874.874 1067.44 883.627 1130.47 888.879 1193.49 894.131 1250.38 896.757 1301.15 896.757 1353.67 896.757 1410.57 894.569 1471.84 890.192 1533.11 885.816 1594.38 877.062 1655.65 863.933 1716.92 850.803 1776.45 833.735 1834.22 812.727 1891.99 791.72 1941.44 764.585 1982.58 731.323 1994.84 721.695 2006.65 710.316 2018.03 697.186 2029.41 684.056 2035.1 668.738 2035.1 651.232Z" transform="matrix(1 0 0 1.00049 -194.958 -277.265)"/></g></g></g><g clip-path="url(#clip7)"><g clip-path="url(#clip8)"><g clip-path="url(#clip9)"><path d="M1613.64 2004.9C1592.63 2032.91 1576.44 2063.55 1565.06 2096.81 1553.68 2130.07 1547.99 2164.65 1547.99 2200.53 1547.99 2235.55 1553.68 2269.68 1565.06 2302.95 1576.44 2336.21 1592.63 2367.28 1613.64 2396.17L1482.34 2493.33C1450.83 2451.31 1426.76 2405.36 1410.13 2355.46 1393.5 2305.57 1385.18 2254.37 1385.18 2201.85 1385.18 2148.45 1393.5 2096.81 1410.13 2046.92 1426.76 1997.02 1451.27 1950.19 1483.65 1906.43L1613.64 2004.9ZM1352.36 1809.27C1310.34 1866.16 1277.96 1927.87 1255.2 1994.4 1232.44 2060.92 1220.62 2129.63 1219.75 2200.53 1219.75 2271.43 1231.13 2340.15 1253.88 2406.67 1276.64 2473.19 1309.47 2534.47 1352.36 2590.49L1222.37 2688.96C1169.85 2618.93 1129.59 2542.34 1101.58 2459.19 1073.57 2376.03 1059.56 2290.25 1059.56 2201.85 1059.56 2113.44 1073.13 2027.66 1100.27 1944.51 1127.4 1861.35 1168.1 1783.89 1222.37 1712.11L1352.36 1809.27ZM2264.87 1906.43C2296.38 1948.44 2320.45 1994.4 2337.08 2044.29 2353.71 2094.18 2362.47 2145.83 2363.34 2199.22 2363.34 2251.74 2355.03 2303.38 2338.4 2354.15 2321.76 2404.92 2297.26 2451.31 2264.87 2493.33L2134.89 2394.85C2177.78 2337.08 2199.22 2272.31 2199.22 2200.53 2199.22 2165.52 2193.97 2131.38 2183.47 2098.12 2172.96 2064.86 2156.77 2033.79 2134.89 2004.9L2264.87 1906.43ZM2526.15 1710.8C2578.67 1781.7 2618.93 1858.72 2646.94 1941.88 2674.95 2025.03 2688.96 2111.25 2688.96 2200.53 2688.96 2288.07 2674.95 2373.41 2646.94 2456.56 2618.93 2539.72 2578.67 2617.18 2526.15 2688.96L2396.17 2590.49C2438.18 2533.59 2470.57 2472.32 2493.33 2406.67 2516.08 2341.02 2527.9 2272.31 2528.78 2200.53 2528.78 2129.63 2517.4 2060.92 2494.64 1994.4 2471.88 1927.87 2439.06 1866.16 2396.17 1809.27L2526.15 1710.8ZM1873.6 2036.41C1895.49 2036.41 1916.5 2040.79 1936.63 2049.54 1956.76 2058.3 1974.27 2070.11 1989.15 2084.99 2004.03 2099.87 2015.84 2117.38 2024.6 2137.51 2033.35 2157.64 2037.73 2178.65 2037.73 2200.53 2037.73 2222.42 2033.35 2242.99 2024.6 2262.24 2015.84 2281.5 2004.03 2299.01 1989.15 2314.76 1974.27 2330.52 1956.76 2342.33 1936.63 2350.21 1916.5 2358.09 1895.49 2362.47 1873.6 2363.34 1851.72 2363.34 1831.15 2358.97 1811.9 2350.21 1792.64 2341.46 1775.13 2329.64 1759.38 2314.76 1743.62 2299.88 1731.8 2282.81 1723.93 2263.56 1716.05 2244.3 1711.67 2223.29 1710.8 2200.53 1710.8 2178.65 1715.17 2158.08 1723.93 2138.82 1732.68 2119.57 1744.06 2102.06 1758.06 2086.31 1772.07 2070.55 1789.14 2058.3 1809.27 2049.54 1829.4 2040.79 1850.85 2036.41 1873.6 2036.41ZM2037.73 892.818C1988.71 923.454 1933.56 949.276 1872.29 970.283 1811.02 991.291 1747.56 1008.8 1681.91 1022.8 1616.26 1036.81 1550.61 1046 1484.97 1050.37 1419.32 1054.75 1358.05 1057.81 1301.15 1059.56 1244.26 1059.56 1183.42 1056.94 1118.65 1051.69 1053.88 1046.44 988.227 1036.81 921.703 1022.8 855.18 1008.8 792.157 991.728 732.636 971.596 673.115 951.464 618.408 925.205 568.515 892.818L568.515 2119.13C568.515 2142.76 580.332 2165.08 603.965 2186.09 627.599 2207.1 655.171 2225.48 686.682 2241.24 718.193 2256.99 750.58 2271 783.842 2283.25 817.104 2295.51 843.363 2303.38 862.62 2306.88 866.121 2336.65 870.498 2365.97 875.75 2394.85 881.001 2423.74 887.566 2453.06 895.444 2482.82 850.803 2473.19 800.473 2459.63 744.453 2442.12 688.433 2424.61 635.039 2400.98 584.271 2371.22 533.503 2341.46 491.488 2306.45 458.226 2266.18 424.964 2225.92 407.895 2176.9 407.02 2119.13L407.02 651.232C407.02 610.968 416.211 574.642 434.592 542.256 452.974 509.869 477.92 480.109 509.431 452.974 540.943 425.839 576.393 402.643 615.782 383.387 655.171 364.13 695.435 347.061 736.575 332.181 777.715 317.301 817.979 305.046 857.368 295.418 896.757 285.789 932.645 277.912 965.031 271.784 1020.18 262.156 1075.76 255.153 1131.78 250.777 1187.8 246.4 1244.26 244.212 1301.15 244.212 1358.92 244.212 1415.38 246.4 1470.52 250.777 1525.67 255.153 1581.69 262.594 1638.58 273.097 1670.09 278.349 1705.55 285.789 1744.93 295.418 1784.32 305.046 1825.03 317.301 1867.04 332.181 1909.06 347.061 1949.76 364.567 1989.15 384.7 2028.54 404.832 2063.55 428.027 2094.18 454.287 2124.82 480.546 2149.77 509.869 2169.02 542.256 2188.28 574.642 2197.91 611.405 2197.91 652.545L2197.91 1701.61 2037.73 1823.71 2037.73 892.818ZM2035.1 651.232C2035.1 636.352 2029.41 621.909 2018.03 607.904 2006.65 593.899 1994.84 581.645 1982.58 571.141 1944.94 539.63 1897.24 513.37 1839.47 492.363 1781.7 471.355 1721.3 454.287 1658.28 441.157 1595.26 428.027 1531.8 419.274 1467.9 414.898 1404 410.521 1348.42 407.895 1301.15 407.02 1253.01 407.02 1197.43 409.646 1134.4 414.898 1071.38 420.15 1007.92 428.903 944.024 441.157 880.126 453.412 819.292 470.48 761.521 492.363 703.751 514.246 656.046 540.505 618.408 571.141 606.153 580.769 594.774 592.148 584.271 605.278 573.767 618.408 568.515 633.726 568.515 651.232 568.515 668.738 573.767 684.056 584.271 697.186 594.774 710.316 606.153 721.695 618.408 731.323 660.423 764.585 709.878 791.72 766.773 812.727 823.668 833.735 882.752 850.365 944.024 862.62 1005.3 874.874 1067.44 883.627 1130.47 888.879 1193.49 894.131 1250.38 896.757 1301.15 896.757 1353.67 896.757 1410.57 894.569 1471.84 890.192 1533.11 885.816 1594.38 877.062 1655.65 863.933 1716.92 850.803 1776.45 833.735 1834.22 812.727 1891.99 791.72 1941.44 764.585 1982.58 731.323 1994.84 721.695 2006.65 710.316 2018.03 697.186 2029.41 684.056 2035.1 668.738 2035.1 651.232Z" transform="matrix(-1 1.22465e-16 -1.22524e-16 -1.00049 3552.96 4121.26)"/></g></g></g></g></svg>