<svg width="16" height="17" viewBox="0 0 16 17" fill="none" xmlns="http://www.w3.org/2000/svg">
<path d="M11.5 0.5C12.8807 0.5 14 1.61929 14 3V9.26654C13.6852 9.01321 13.3509 8.78313 13 8.57897V3C13 2.17157 12.3284 1.5 11.5 1.5H2.5C1.67157 1.5 1 2.17157 1 3V12C1 12.8284 1.67157 13.5 2.5 13.5H7.03697C7.14452 13.7655 7.32227 14.0223 7.50001 14.2C7.41466 14.2853 7.33741 14.3869 7.27055 14.5H2.5C1.11929 14.5 0 13.3807 0 12V3C0 1.61929 1.11929 0.5 2.5 0.5H11.5Z" fill="black"/>
<path d="M7 8.5C7.03046 8.5 7.0606 8.50136 7.09037 8.50403C7.02577 8.69397 7.00001 8.89699 7.00001 9.1C7.00001 9.5 7.20001 9.8 7.40001 10C7.26622 10.1338 7.1722 10.3074 7.1091 10.4941C7.07327 10.498 7.03687 10.5 7 10.5C6.44772 10.5 6 10.0523 6 9.5C6 8.94772 6.44772 8.5 7 8.5Z" fill="black"/>
<path d="M5 9.5C5 8.94772 4.55228 8.5 4 8.5C3.44772 8.5 3 8.94772 3 9.5C3 10.0523 3.44772 10.5 4 10.5C4.55228 10.5 5 10.0523 5 9.5Z" fill="black"/>
<path d="M4 4.5C4.55228 4.5 5 4.94772 5 5.5C5 6.05228 4.55228 6.5 4 6.5C3.44772 6.5 3 6.05228 3 5.5C3 4.94772 3.44772 4.5 4 4.5Z" fill="black"/>
<path d="M8 5.5C8 4.94772 7.55228 4.5 7 4.5C6.44772 4.5 6 4.94772 6 5.5C6 6.05228 6.44772 6.5 7 6.5C7.55228 6.5 8 6.05228 8 5.5Z" fill="black"/>
<path d="M10 4.5C10.5523 4.5 11 4.94772 11 5.5C11 6.05228 10.5523 6.5 10 6.5C9.44772 6.5 9 6.05228 9 5.5C9 4.94772 9.44772 4.5 10 4.5Z" fill="black"/>
<path d="M8.46217 8.52039C8.6398 8.50687 8.81919 8.5 9.0001 8.5C12.8661 8.5 16.0001 11.634 16.0001 15.5C16.0001 15.6809 15.9932 15.8603 15.9797 16.0379C15.9588 16.3133 15.7186 16.5195 15.4432 16.4986C15.1679 16.4776 14.9616 16.2374 14.9826 15.9621C14.9942 15.8097 15.0001 15.6556 15.0001 15.5C15.0001 12.1863 12.3138 9.5 9.0001 9.5C8.84453 9.5 8.69044 9.50591 8.53802 9.5175C8.26268 9.53845 8.02248 9.33222 8.00154 9.05687C7.98059 8.78152 8.18682 8.54133 8.46217 8.52039Z" fill="black"/>
<path d="M8.44516 10.5305C8.62753 10.5103 8.8127 10.5 9.0001 10.5C11.7615 10.5 14.0001 12.7386 14.0001 15.5C14.0001 15.6874 13.9898 15.8726 13.9696 16.0549C13.9393 16.3294 13.6922 16.5273 13.4177 16.497C13.1432 16.4666 12.9453 16.2195 12.9757 15.9451C12.9918 15.7991 13.0001 15.6506 13.0001 15.5C13.0001 13.2909 11.2092 11.5 9.0001 11.5C8.84948 11.5 8.70099 11.5083 8.55503 11.5244C8.28057 11.5548 8.03347 11.3569 8.00313 11.0824C7.97278 10.8079 8.17069 10.5608 8.44516 10.5305Z" fill="black"/>
<path d="M8.40063 12.56C8.59474 12.5206 8.79527 12.5 9.0001 12.5C10.657 12.5 12.0001 13.8431 12.0001 15.5C12.0001 15.7048 11.9795 15.9054 11.9401 16.0995C11.8852 16.3701 11.6212 16.5449 11.3506 16.49C11.08 16.4351 10.9051 16.1712 10.9601 15.9005C10.9863 15.7715 11.0001 15.6376 11.0001 15.5C11.0001 14.3954 10.1047 13.5 9.0001 13.5C8.86246 13.5 8.72857 13.5138 8.59956 13.54C8.32894 13.5949 8.06503 13.4201 8.01009 13.1495C7.95516 12.8789 8.13001 12.6149 8.40063 12.56Z" fill="black"/>
<path d="M9.0001 16.5C9.55238 16.5 10.0001 16.0523 10.0001 15.5C10.0001 14.9477 9.55238 14.5 9.0001 14.5C8.44781 14.5 8.0001 14.9477 8.0001 15.5C8.0001 16.0523 8.44781 16.5 9.0001 16.5Z" fill="black"/>
</svg>
