<svg xmlns="http://www.w3.org/2000/svg" viewBox="0 0 2048 2048">
  <path d="M1229 1527q-24 32-37 70t-13 79q0 40 13 78t37 71l-100 74q-36-48-55-105t-19-117q0-61 19-118t56-107l99 75zm-199-149q-48 65-74 141t-27 157q0 81 26 157t75 140l-99 75q-60-80-92-175t-32-196q0-101 31-196t93-177l99 74zm695 74q36 48 55 105t20 118q0 60-19 118t-56 106l-99-75q49-66 49-148 0-40-12-78t-37-71l99-75zm199-149q60 81 92 176t32 197q0 100-32 195t-92 177l-99-75q48-65 74-140t27-157q0-81-26-157t-75-141l99-75zm-497 248q25 0 48 10t40 27 27 40 10 48q0 25-10 47t-27 40-40 27-48 10q-25 0-47-10t-40-27-27-39-10-48q0-25 10-47t26-40 39-28 49-10zm125-871q-56 35-126 59t-145 40-150 21-140 7q-65 0-139-6t-150-22-144-39-125-60v934q0 27 27 51t63 42 74 32 60 18q4 34 10 67t15 67q-51-11-115-31t-122-54-96-80-39-112V496q0-46 21-83t57-68 81-53 92-39 92-28 82-18q63-11 127-16t129-5q66 0 129 5t128 17q36 6 81 17t93 28 93 40 80 53 57 67 22 84v799l-122 93V680zm-2-184q0-17-13-33t-27-28q-43-36-109-60t-138-39-145-20-127-6q-55 0-127 6t-145 20-139 39-109 60q-14 11-26 26t-12 35q0 20 12 35t26 26q48 38 113 62t135 38 142 20 130 6q60 0 130-5t140-20 136-39 113-62q14-11 27-26t13-35z" />
</svg>