<svg width="16" height="18" viewBox="0 0 16 18" fill="none" xmlns="http://www.w3.org/2000/svg">
<path d="M6 3.5C6 1.84315 4.65685 0.5 3 0.5C1.34315 0.5 0 1.84315 0 3.5C0 4.9865 1.08114 6.22048 2.5 6.45852V10.5415C1.08114 10.7795 0 12.0135 0 13.5C0 15.1569 1.34315 16.5 3 16.5C4.65685 16.5 6 15.1569 6 13.5C6 12.0135 4.91886 10.7795 3.5 10.5415V9.5H7.09174C7.15449 9.31722 7.25335 9.14666 7.40001 9C7.70001 8.7 8.00001 8.5 8.40001 8.5H3.5V6.45852C4.91886 6.22048 6 4.9865 6 3.5ZM3 5.5C1.89543 5.5 1 4.60457 1 3.5C1 2.39543 1.89543 1.5 3 1.5C4.10457 1.5 5 2.39543 5 3.5C5 4.60457 4.10457 5.5 3 5.5ZM3 15.5C1.89543 15.5 1 14.6046 1 13.5C1 12.3954 1.89543 11.5 3 11.5C4.10457 11.5 5 12.3954 5 13.5C5 14.6046 4.10457 15.5 3 15.5Z" fill="black"/>
<path d="M11.5 7C11.5 7.66187 11.2428 8.26367 10.8229 8.7109C10.2369 8.573 9.62654 8.5 9 8.5C9.82843 8.5 10.5 7.82843 10.5 7V6.45852C9.08114 6.22048 8 4.9865 8 3.5C8 1.84315 9.34315 0.5 11 0.5C12.6569 0.5 14 1.84315 14 3.5C14 4.9865 12.9189 6.22048 11.5 6.45852V7ZM13 3.5C13 2.39543 12.1046 1.5 11 1.5C9.89543 1.5 9 2.39543 9 3.5C9 4.60457 9.89543 5.5 11 5.5C12.1046 5.5 13 4.60457 13 3.5Z" fill="black"/>
<path d="M8.46217 9.52039C8.6398 9.50687 8.81919 9.5 9.0001 9.5C12.8661 9.5 16.0001 12.634 16.0001 16.5C16.0001 16.6809 15.9932 16.8603 15.9797 17.0379C15.9588 17.3133 15.7186 17.5195 15.4432 17.4986C15.1679 17.4776 14.9616 17.2374 14.9826 16.9621C14.9942 16.8097 15.0001 16.6556 15.0001 16.5C15.0001 13.1863 12.3138 10.5 9.0001 10.5C8.84453 10.5 8.69044 10.5059 8.53802 10.5175C8.26268 10.5385 8.02248 10.3322 8.00154 10.0569C7.98059 9.78152 8.18682 9.54133 8.46217 9.52039Z" fill="black"/>
<path d="M8.44516 11.5305C8.62753 11.5103 8.8127 11.5 9.0001 11.5C11.7615 11.5 14.0001 13.7386 14.0001 16.5C14.0001 16.6874 13.9898 16.8726 13.9696 17.0549C13.9393 17.3294 13.6922 17.5273 13.4177 17.497C13.1432 17.4666 12.9453 17.2195 12.9757 16.9451C12.9918 16.7991 13.0001 16.6506 13.0001 16.5C13.0001 14.2909 11.2092 12.5 9.0001 12.5C8.84948 12.5 8.70099 12.5083 8.55503 12.5244C8.28057 12.5548 8.03347 12.3569 8.00313 12.0824C7.97278 11.8079 8.17069 11.5608 8.44516 11.5305Z" fill="black"/>
<path d="M8.40063 13.56C8.59474 13.5206 8.79527 13.5 9.0001 13.5C10.657 13.5 12.0001 14.8431 12.0001 16.5C12.0001 16.7048 11.9795 16.9054 11.9401 17.0995C11.8852 17.3701 11.6212 17.5449 11.3506 17.49C11.08 17.4351 10.9051 17.1712 10.9601 16.9005C10.9863 16.7715 11.0001 16.6376 11.0001 16.5C11.0001 15.3954 10.1047 14.5 9.0001 14.5C8.86246 14.5 8.72857 14.5138 8.59956 14.54C8.32894 14.5949 8.06503 14.4201 8.01009 14.1495C7.95516 13.8789 8.13001 13.6149 8.40063 13.56Z" fill="black"/>
<path d="M9.0001 17.5C9.55238 17.5 10.0001 17.0523 10.0001 16.5C10.0001 15.9477 9.55238 15.5 9.0001 15.5C8.44781 15.5 8.0001 15.9477 8.0001 16.5C8.0001 17.0523 8.44781 17.5 9.0001 17.5Z" fill="black"/>
</svg>
