<svg xmlns="http://www.w3.org/2000/svg" viewBox="0 0 2048 2048">
  <path d="M1407 1536q27 0 50 10t41 27 28 40 10 51q0 27-10 50t-27 41-40 27-51 10q-27 0-50-10t-40-27-28-40-10-50q0-27 9-50t27-41 41-28 50-10zm-204-25q-51 68-51 153 0 42 13 81t38 73l-102 76q-37-50-57-108t-20-121q0-63 19-122t58-109l102 77zm717-231q62 84 95 182t33 202q0 103-32 201t-96 182l-103-76q51-66 78-144t27-163q0-84-27-162t-78-145l103-77zm-205 153q37 51 57 109t20 122q0 63-19 121t-58 109l-102-77q51-68 51-153 0-42-13-81t-38-73l102-77zm-1331-25h256v640H0v-640h256V640H0V0h640v640H384v384h1024V640h-256V0h640v640h-256v512H384v256zm1280-896V128h-384v384h384zm-1152 0V128H128v384h384zM128 1536v384h384v-384H128zm871-179q-51 66-78 144t-27 163q0 84 27 162t78 145l-103 77q-63-83-95-181t-33-202q0-104 32-202t96-182l103 76z" />
</svg>