<?xml version="1.0" encoding="UTF-8" standalone="no"?>
<svg
   xmlns:dc="http://purl.org/dc/elements/1.1/"
   xmlns:cc="http://creativecommons.org/ns#"
   xmlns:rdf="http://www.w3.org/1999/02/22-rdf-syntax-ns#"
   xmlns:svg="http://www.w3.org/2000/svg"
   xmlns="http://www.w3.org/2000/svg"
   viewBox="0 0 2048 2048"
   version="1.1"
   id="svg4668"
   width="2048"
   height="2048">
  <metadata
     id="metadata4674">
    <rdf:RDF>
      <cc:Work
         rdf:about="">
        <dc:format>image/svg+xml</dc:format>
        <dc:type
           rdf:resource="http://purl.org/dc/dcmitype/StillImage" />
        <dc:title></dc:title>
      </cc:Work>
    </rdf:RDF>
  </metadata>
  <defs
     id="defs4672" />
  <path
     d="m 1407,1536 q 27,0 50,10 23,10 41,27 18,17 28,40 10,23 10,51 0,27 -10,50 -10,23 -27,41 -17,18 -40,27 -23,9 -51,10 -27,0 -50,-10 -23,-10 -40,-27 -17,-17 -28,-40 -11,-23 -10,-50 0,-27 9,-50 9,-23 27,-41 18,-18 41,-28 23,-10 50,-10 z m -204,-25 q -51,68 -51,153 0,42 13,81 13,39 38,73 l -102,76 q -37,-50 -57,-108 -20,-58 -20,-121 0,-63 19,-122 19,-59 58,-109 z m 717,-231 q 62,84 95,182 33,98 33,202 0,103 -32,201 -32,98 -96,182 l -103,-76 q 51,-66 78,-144 27,-78 27,-163 0,-84 -27,-162 -27,-78 -78,-145 z m -205,153 q 37,51 57,109 20,58 20,122 0,63 -19,121 -19,58 -58,109 l -102,-77 q 51,-68 51,-153 0,-42 -13,-81 -13,-39 -38,-73 z M 384,1408 h 256 v 640 H 0 V 1408 H 256 V 640 H 0 V 0 H 640 V 640 H 384 v 384 H 1408 V 640 H 1152 V 0 h 640 v 640 h -256 v 512 H 384 Z M 1664,512 V 128 H 1280 V 512 Z M 512,512 V 128 H 128 V 512 Z M 128,1536 v 384 h 384 v -384 z m 871,-179 q -51,66 -78,144 -27,78 -27,163 0,84 27,162 27,78 78,145 l -103,77 q -63,-83 -95,-181 -32,-98 -33,-202 0,-104 32,-202 32,-98 96,-182 z"
     id="path4666" />
</svg>
