<svg width="14" height="17" viewBox="0 0 14 17" fill="none" xmlns="http://www.w3.org/2000/svg">
<path d="M4 0.000976562C2.89543 0.000976562 2 0.896408 2 2.00098V9.00098H3V2.00098C3 1.44869 3.44772 1.00098 4 1.00098H8V4.50098C8 5.3294 8.67157 6.00098 9.5 6.00098H13V14.001C13 14.5533 12.5523 15.001 12 15.001H11V16.001H12C13.1046 16.001 14 15.1055 14 14.001V5.41519C14 5.01737 13.842 4.63584 13.5607 4.35453L9.64645 0.440316C9.36514 0.159012 8.98361 0.000976562 8.58579 0.000976562H4ZM12.7929 5.00098H9.5C9.22386 5.00098 9 4.77712 9 4.50098V1.20808L12.7929 5.00098Z" fill="black"/>
<path d="M6.5 7.00098C6.22386 7.00098 6 7.22483 6 7.50098V8.81166C5.9688 8.83126 5.9393 8.85464 5.91215 8.8818L4 10.7939V10.501C4 10.2248 3.77614 10.001 3.5 10.001H0.5C0.223858 10.001 0 10.2248 0 10.501V13.501C0 13.7771 0.223858 14.001 0.5 14.001H3.5C3.77614 14.001 4 13.7771 4 13.501V13.208L5.91215 15.1202C5.9393 15.1473 5.9688 15.1707 6 15.1903V16.501C6 16.7771 6.22386 17.001 6.5 17.001H9.5C9.77614 17.001 10 16.7771 10 16.501V13.501C10 13.2248 9.77614 13.001 9.5 13.001H6.5C6.22386 13.001 6 13.2248 6 13.501V13.7938L4.20718 12.001L6 10.2082V10.501C6 10.7771 6.22386 11.001 6.5 11.001H9.5C9.77614 11.001 10 10.7771 10 10.501V7.50098C10 7.22483 9.77614 7.00098 9.5 7.00098H6.5ZM1 11.001H3V13.001H1V11.001ZM7 16.001V14.001H9V16.001H7ZM7 8.00098H9V10.001H7V8.00098Z" fill="black"/>
</svg>
