<svg width="136" height="104" xmlns="http://www.w3.org/2000/svg" xmlns:xlink="http://www.w3.org/1999/xlink" overflow="hidden"><defs><clipPath id="clip0"><rect x="1135" y="369" width="136" height="104"/></clipPath></defs><g clip-path="url(#clip0)" transform="translate(-1135 -369)"><path d="M1139 375.909C1139 374.303 1140.3 373 1141.91 373L1233.09 373C1234.7 373 1236 374.303 1236 375.909L1236 434.091C1236 435.697 1234.7 437 1233.09 437L1141.91 437C1140.3 437 1139 435.697 1139 434.091Z" stroke="#000000" stroke-width="6" stroke-miterlimit="8" fill="none" fill-rule="evenodd"/><path d="M1155 391.909C1155 390.303 1156.3 389 1157.91 389L1249.09 389C1250.7 389 1252 390.303 1252 391.909L1252 450.091C1252 451.697 1250.7 453 1249.09 453L1157.91 453C1156.3 453 1155 451.697 1155 450.091Z" stroke="#000000" stroke-width="6" stroke-miterlimit="8" fill="none" fill-rule="evenodd"/><path d="M1171 407.909C1171 406.303 1172.3 405 1173.91 405L1265.09 405C1266.7 405 1268 406.303 1268 407.909L1268 466.091C1268 467.697 1266.7 469 1265.09 469L1173.91 469C1172.3 469 1171 467.697 1171 466.091Z" stroke="#000000" stroke-width="6" stroke-miterlimit="8" fill="none" fill-rule="evenodd"/></g></svg>