<svg width="16" height="15" viewBox="0 0 16 15" fill="none" xmlns="http://www.w3.org/2000/svg">
<path d="M0 2.5C0 1.39543 0.895431 0.5 2 0.5H10C11.1046 0.5 12 1.39543 12 2.5V8.5C12 9.60457 11.1046 10.5 10 10.5H2C0.895431 10.5 0 9.60457 0 8.5V2.5ZM2 1.5C1.44772 1.5 1 1.94772 1 2.5V8.5C1 9.05228 1.44772 9.5 2 9.5H10C10.5523 9.5 11 9.05229 11 8.5V2.5C11 1.94772 10.5523 1.5 10 1.5H2ZM4.00001 12.5C3.25973 12.5 2.61339 12.0978 2.26758 11.5H10C11.6569 11.5 13 10.1569 13 8.50001V2.76758C13.5978 3.11339 14 3.75973 14 4.50001V8.50001C14 10.7092 12.2092 12.5 10 12.5H4.00001ZM6.00001 14.5C5.25973 14.5 4.61339 14.0978 4.26758 13.5H10C12.7614 13.5 15 11.2614 15 8.50001V4.76758C15.5978 5.11339 16 5.75973 16 6.50001V8.50001C16 11.8137 13.3137 14.5 10 14.5H6.00001Z" fill="black"/>
</svg>
