<?xml version="1.0" encoding="UTF-8" standalone="no"?>
<svg
   xmlns:dc="http://purl.org/dc/elements/1.1/"
   xmlns:cc="http://creativecommons.org/ns#"
   xmlns:rdf="http://www.w3.org/1999/02/22-rdf-syntax-ns#"
   xmlns:svg="http://www.w3.org/2000/svg"
   xmlns="http://www.w3.org/2000/svg"
   width="135"
   height="102"
   overflow="hidden"
   version="1.1"
   id="svg6461">
  <metadata
     id="metadata6465">
    <rdf:RDF>
      <cc:Work
         rdf:about="">
        <dc:format>image/svg+xml</dc:format>
        <dc:type
           rdf:resource="http://purl.org/dc/dcmitype/StillImage" />
        <dc:title></dc:title>
      </cc:Work>
    </rdf:RDF>
  </metadata>
  <defs
     id="defs6451">
    <clipPath
       id="clip0">
      <rect
         x="1135"
         y="369"
         width="136"
         height="104"
         id="rect6448" />
    </clipPath>
  </defs>
  <g
     clip-path="url(#clip0)"
     transform="translate(-1136,-370)"
     id="g6459">
    <path
       d="m 1139,375.909 c 0,-1.606 1.3,-2.909 2.91,-2.909 h 91.18 c 1.61,0 2.91,1.303 2.91,2.909 v 58.182 c 0,1.606 -1.3,2.909 -2.91,2.909 h -91.18 c -1.61,0 -2.91,-1.303 -2.91,-2.909 z"
       stroke="#000000"
       stroke-width="6"
       stroke-miterlimit="8"
       fill="none"
       fill-rule="evenodd"
       id="path6453" />
    <path
       d="m 1155,391.909 c 0,-1.606 1.3,-2.909 2.91,-2.909 h 91.18 c 1.61,0 2.91,1.303 2.91,2.909 v 58.182 c 0,1.606 -1.3,2.909 -2.91,2.909 h -91.18 c -1.61,0 -2.91,-1.303 -2.91,-2.909 z"
       stroke="#000000"
       stroke-width="6"
       stroke-miterlimit="8"
       fill="none"
       fill-rule="evenodd"
       id="path6455" />
    <path
       d="m 1171,407.909 c 0,-1.606 1.3,-2.909 2.91,-2.909 h 91.18 c 1.61,0 2.91,1.303 2.91,2.909 v 58.182 c 0,1.606 -1.3,2.909 -2.91,2.909 h -91.18 c -1.61,0 -2.91,-1.303 -2.91,-2.909 z"
       stroke="#000000"
       stroke-width="6"
       stroke-miterlimit="8"
       fill="none"
       fill-rule="evenodd"
       id="path6457" />
  </g>
</svg>
