<svg viewBox="0 0 19 15" xmlns="http://www.w3.org/2000/svg">
<path d="M5.85355 5.66081C6.04881 5.46555 6.04882 5.14897 5.85356 4.9537C5.6583 4.75844 5.34172 4.75843 5.14645 4.95369L3.14645 6.95361C3.05268 7.04738 3 7.17455 3 7.30716C3 7.43977 3.05268 7.56695 3.14645 7.66072L5.14645 9.66072C5.34171 9.85599 5.65829 9.85599 5.85355 9.66072C6.04882 9.46546 6.04882 9.14888 5.85355 8.95362L4.20711 7.30718L5.85355 5.66081Z" fill="#242424"></path>
<path d="M6.5 0.307251H2.5C1.96957 0.307251 1.46086 0.517963 1.08578 0.893036C0.710712 1.26811 0.5 1.77682 0.5 2.30725V12.3073C0.5 12.8377 0.710712 13.3464 1.08578 13.7215C1.46086 14.0965 1.96957 14.3073 2.5 14.3073H6.5C7.03043 14.3073 7.53914 14.0965 7.91422 13.7215C8.28929 13.3464 8.5 12.8377 8.5 12.3073V2.30725C8.5 1.77682 8.28929 1.26811 7.91422 0.893036C7.53914 0.517963 7.03043 0.307251 6.5 0.307251ZM2.5 1.30725H6.5C6.76522 1.30725 7.01957 1.41261 7.20711 1.60014C7.39464 1.78768 7.5 2.04203 7.5 2.30725V12.3073C7.5 12.5725 7.39464 12.8268 7.20711 13.0144C7.01957 13.2019 6.76522 13.3073 6.5 13.3073H2.5C2.23478 13.3073 1.98043 13.2019 1.79289 13.0144C1.60536 12.8268 1.5 12.5725 1.5 12.3073V2.30725C1.5 2.04203 1.60536 1.78768 1.79289 1.60014C1.98043 1.41261 2.23478 1.30725 2.5 1.30725Z" fill="#242424"></path>
<path d="M13.1464 4.9537C12.9512 5.14897 12.9512 5.46555 13.1465 5.66081L14.7929 7.30718L13.1464 8.95362C12.9512 9.14888 12.9512 9.46546 13.1464 9.66072C13.3417 9.85599 13.6583 9.85599 13.8536 9.66072L15.8536 7.66072C15.9473 7.56695 16 7.43977 16 7.30716C16 7.17455 15.9473 7.04738 15.8535 6.95361L13.8535 4.95369C13.6583 4.75843 13.3417 4.75844 13.1464 4.9537Z" fill="#242424"></path>
<path d="M16.5 0.307251H12.5C11.9696 0.307251 11.4609 0.517963 11.0858 0.893036C10.7107 1.26811 10.5 1.77682 10.5 2.30725V12.3073C10.5 12.8377 10.7107 13.3464 11.0858 13.7215C11.4609 14.0965 11.9696 14.3073 12.5 14.3073H16.5C17.0304 14.3073 17.5391 14.0965 17.9142 13.7215C18.2893 13.3464 18.5 12.8377 18.5 12.3073V2.30725C18.5 1.77682 18.2893 1.26811 17.9142 0.893036C17.5391 0.517963 17.0304 0.307251 16.5 0.307251ZM12.5 1.30725H16.5C16.7652 1.30725 17.0196 1.41261 17.2071 1.60014C17.3946 1.78768 17.5 2.04203 17.5 2.30725V12.3073C17.5 12.5725 17.3946 12.8268 17.2071 13.0144C17.0196 13.2019 16.7652 13.3073 16.5 13.3073H12.5C12.2348 13.3073 11.9804 13.2019 11.7929 13.0144C11.6054 12.8268 11.5 12.5725 11.5 12.3073V2.30725C11.5 2.04203 11.6054 1.78768 11.7929 1.60014C11.9804 1.41261 12.2348 1.30725 12.5 1.30725Z" fill="#242424"></path>
</svg>