<svg viewBox="0 0 20 20" fill="#117865" xmlns="http://www.w3.org/2000/svg">
<path d="M12.0001 11C11.8192 11 11.6398 11.0069 11.4622 11.0204C11.1868 11.0413 10.9806 11.2815 11.0015 11.5569C11.0225 11.8322 11.2627 12.0385 11.538 12.0175C11.6904 12.0059 11.8445 12 12.0001 12C15.3138 12 18.0001 14.6863 18.0001 18C18.0001 18.1556 17.9942 18.3097 17.9826 18.4621C17.9616 18.7374 18.1679 18.9776 18.4432 18.9986C18.7186 19.0195 18.9588 18.8133 18.9797 18.5379C18.9932 18.3603 19.0001 18.1809 19.0001 18C19.0001 14.134 15.8661 11 12.0001 11ZM12.0001 13C11.8127 13 11.6275 13.0103 11.4452 13.0305C11.1707 13.0608 10.9728 13.3079 11.0031 13.5824C11.0335 13.8569 11.2806 14.0548 11.555 14.0244C11.701 14.0083 11.8495 14 12.0001 14C14.2092 14 16.0001 15.7909 16.0001 18C16.0001 18.1506 15.9918 18.2991 15.9757 18.4451C15.9453 18.7195 16.1432 18.9666 16.4177 18.997C16.6922 19.0273 16.9393 18.8294 16.9696 18.5549C16.9898 18.3726 17.0001 18.1874 17.0001 18C17.0001 15.2386 14.7615 13 12.0001 13ZM12.0001 15C11.7953 15 11.5947 15.0206 11.4006 15.06C11.13 15.1149 10.9552 15.3789 11.0101 15.6495C11.065 15.9201 11.3289 16.0949 11.5996 16.04C11.7286 16.0138 11.8625 16 12.0001 16C13.1047 16 14.0001 16.8954 14.0001 18C14.0001 18.1376 13.9863 18.2715 13.9601 18.4005C13.9051 18.6712 14.08 18.9351 14.3506 18.99C14.6212 19.0449 14.8852 18.8701 14.9401 18.5995C14.9795 18.4054 15.0001 18.2048 15.0001 18C15.0001 16.3431 13.657 15 12.0001 15ZM13.0001 18C13.0001 18.5523 12.5524 19 12.0001 19C11.4478 19 11.0001 18.5523 11.0001 18C11.0001 17.4477 11.4478 17 12.0001 17C12.5524 17 13.0001 17.4477 13.0001 18Z"></path>
<path d="M6.5 7.95852C7.91886 7.72048 9 6.4865 9 5C9 3.34315 7.65685 2 6 2C4.34315 2 3 3.34315 3 5C3 6.4865 4.08114 7.72048 5.5 7.95852V12.0415C4.08114 12.2795 3 13.5135 3 15C3 16.6569 4.34315 18 6 18C7.65685 18 9 16.6569 9 15C9 13.5135 7.91886 12.2795 6.5 12.0415V11H10.0917C10.1545 10.8172 10.2534 10.6467 10.4 10.5C10.7 10.2 11 10 11.4 10H6.5V7.95852Z"></path>
<path d="M12 10C12.6265 10 13.2369 10.073 13.8229 10.2109C14.2428 9.76367 14.5 9.16187 14.5 8.5V7.95852C15.9189 7.72048 17 6.4865 17 5C17 3.34315 15.6569 2 14 2C12.3431 2 11 3.34315 11 5C11 6.4865 12.0811 7.72048 13.5 7.95852V8.5C13.5 9.32843 12.8284 10 12 10Z"></path>
</svg>