<svg viewBox="0 0 20 20" xmlns="http://www.w3.org/2000/svg">
<path d="M14.5 3C15.8807 3 17 4.11929 17 5.5V11.7665C16.6852 11.5132 16.3509 11.2831 16 11.079V5.5C16 4.67157 15.3284 4 14.5 4H5.5C4.67157 4 4 4.67157 4 5.5V14.5C4 15.3284 4.67157 16 5.5 16H10.037C10.1445 16.2655 10.3223 16.5223 10.5 16.7C10.4147 16.7853 10.3374 16.8869 10.2706 17H5.5C4.11929 17 3 15.8807 3 14.5V5.5C3 4.11929 4.11929 3 5.5 3H14.5Z"></path>
<path d="M10 11C10.0305 11 10.0606 11.0014 10.0904 11.004C10.0258 11.194 10 11.397 10 11.6C10 12 10.2 12.3 10.4 12.5C10.2662 12.6338 10.1722 12.8074 10.1091 12.9941C10.0733 12.998 10.0369 13 10 13C9.44772 13 9 12.5523 9 12C9 11.4477 9.44772 11 10 11Z"></path>
<path d="M8 12C8 11.4477 7.55228 11 7 11C6.44772 11 6 11.4477 6 12C6 12.5523 6.44772 13 7 13C7.55228 13 8 12.5523 8 12Z"></path>
<path d="M7 7C7.55228 7 8 7.44772 8 8C8 8.55228 7.55228 9 7 9C6.44772 9 6 8.55228 6 8C6 7.44772 6.44772 7 7 7Z"></path>
<path d="M11 8C11 7.44772 10.5523 7 10 7C9.44772 7 9 7.44772 9 8C9 8.55228 9.44772 9 10 9C10.5523 9 11 8.55228 11 8Z"></path>
<path d="M13 7C13.5523 7 14 7.44772 14 8C14 8.55228 13.5523 9 13 9C12.4477 9 12 8.55228 12 8C12 7.44772 12.4477 7 13 7Z"></path>
<path d="M11.4622 11.0204C11.6398 11.0069 11.8192 11 12.0001 11C15.8661 11 19.0001 14.134 19.0001 18C19.0001 18.1809 18.9932 18.3603 18.9797 18.5379C18.9588 18.8133 18.7186 19.0195 18.4432 18.9986C18.1679 18.9776 17.9616 18.7374 17.9826 18.4621C17.9942 18.3097 18.0001 18.1556 18.0001 18C18.0001 14.6863 15.3138 12 12.0001 12C11.8445 12 11.6904 12.0059 11.538 12.0175C11.2627 12.0385 11.0225 11.8322 11.0015 11.5569C10.9806 11.2815 11.1868 11.0413 11.4622 11.0204Z"></path>
<path d="M11.4452 13.0305C11.6275 13.0103 11.8127 13 12.0001 13C14.7615 13 17.0001 15.2386 17.0001 18C17.0001 18.1874 16.9898 18.3726 16.9696 18.5549C16.9393 18.8294 16.6922 19.0273 16.4177 18.997C16.1432 18.9666 15.9453 18.7195 15.9757 18.4451C15.9918 18.2991 16.0001 18.1506 16.0001 18C16.0001 15.7909 14.2092 14 12.0001 14C11.8495 14 11.701 14.0083 11.555 14.0244C11.2806 14.0548 11.0335 13.8569 11.0031 13.5824C10.9728 13.3079 11.1707 13.0608 11.4452 13.0305Z"></path>
<path d="M11.4006 15.06C11.5947 15.0206 11.7953 15 12.0001 15C13.657 15 15.0001 16.3431 15.0001 18C15.0001 18.2048 14.9795 18.4054 14.9401 18.5995C14.8852 18.8701 14.6212 19.0449 14.3506 18.99C14.08 18.9351 13.9051 18.6712 13.9601 18.4005C13.9863 18.2715 14.0001 18.1376 14.0001 18C14.0001 16.8954 13.1047 16 12.0001 16C11.8625 16 11.7286 16.0138 11.5996 16.04C11.3289 16.0949 11.065 15.9201 11.0101 15.6495C10.9552 15.3789 11.13 15.1149 11.4006 15.06Z"></path>
<path d="M12.0001 19C12.5524 19 13.0001 18.5523 13.0001 18C13.0001 17.4477 12.5524 17 12.0001 17C11.4478 17 11.0001 17.4477 11.0001 18C11.0001 18.5523 11.4478 19 12.0001 19Z"></path>
</svg>
