<svg viewBox="0 0 24 24" xmlns="http://www.w3.org/2000/svg">
<path d="M11 5.5C11 7.26324 9.69615 8.72194 8 8.96456V11.5H13.4C12.9 11.5 12.5 11.7 12.2 12.1C11.9843 12.3876 11.872 12.6752 11.8259 13H8V15.0354C9.69615 15.2781 11 16.7368 11 18.5C11 20.433 9.433 22 7.5 22C5.567 22 4 20.433 4 18.5C4 16.9145 5.05426 15.5752 6.5 15.1449V8.85506C5.05426 8.42479 4 7.08551 4 5.5C4 3.567 5.567 2 7.5 2C9.433 2 11 3.567 11 5.5ZM7.5 7.5C8.60457 7.5 9.5 6.60457 9.5 5.5C9.5 4.39543 8.60457 3.5 7.5 3.5C6.39543 3.5 5.5 4.39543 5.5 5.5C5.5 6.60457 6.39543 7.5 7.5 7.5ZM9.5 18.5C9.5 17.3954 8.60457 16.5 7.5 16.5C6.39543 16.5 5.5 17.3954 5.5 18.5C5.5 19.6046 6.39543 20.5 7.5 20.5C8.60457 20.5 9.5 19.6046 9.5 18.5Z"></path>
<path d="M16.8561 11.9465C15.9526 11.6567 14.9927 11.5 14 11.5H14.25C15.4926 11.5 16.5 10.4926 16.5 9.25V8.85506C15.0543 8.42479 14 7.08551 14 5.5C14 3.567 15.567 2 17.5 2C19.433 2 21 3.567 21 5.5C21 7.26324 19.6961 8.72194 18 8.96456V9.25C18 10.3085 17.5614 11.2646 16.8561 11.9465ZM17.5 7.5C18.6046 7.5 19.5 6.60457 19.5 5.5C19.5 4.39543 18.6046 3.5 17.5 3.5C16.3954 3.5 15.5 4.39543 15.5 5.5C15.5 6.60457 16.3954 7.5 17.5 7.5Z"></path>
<path d="M13.4525 12.5174C13.6336 12.5058 13.8163 12.5 14.0001 12.5C18.6946 12.5 22.5001 16.3056 22.5001 21C22.5001 21.1839 22.4943 21.3665 22.4827 21.5477C22.4564 21.961 22.1 22.2748 21.6866 22.2485C21.2732 22.2222 20.9595 21.8657 20.9858 21.4523C20.9953 21.3029 21.0001 21.1521 21.0001 21C21.0001 17.134 17.8661 14 14.0001 14C13.8481 14 13.6972 14.0048 13.5478 14.0144C13.1344 14.0407 12.778 13.7269 12.7516 13.3135C12.7253 12.9002 13.0391 12.5437 13.4525 12.5174Z"></path>
<path d="M13.4296 15.0268C13.6176 15.0091 13.8079 15 14.0001 15C17.3138 15 20.0001 17.6863 20.0001 21C20.0001 21.1922 19.9911 21.3826 19.9733 21.5705C19.9343 21.9829 19.5685 22.2856 19.1561 22.2467C18.7437 22.2077 18.441 21.8418 18.48 21.4295C18.4933 21.2883 18.5001 21.1451 18.5001 21C18.5001 18.5147 16.4854 16.5 14.0001 16.5C13.8551 16.5 13.7118 16.5068 13.5707 16.5202C13.1583 16.5591 12.7924 16.2564 12.7535 15.844C12.7145 15.4317 13.0172 15.0658 13.4296 15.0268Z"></path>
<path d="M13.3646 17.5577C13.5713 17.5197 13.7837 17.5 14.0001 17.5C15.9331 17.5 17.5001 19.067 17.5001 21C17.5001 21.2164 17.4804 21.4289 17.4424 21.6355C17.3676 22.0429 16.9767 22.3125 16.5693 22.2377C16.1619 22.1628 15.8923 21.7719 15.9671 21.3645C15.9887 21.2468 16.0001 21.1251 16.0001 21C16.0001 19.8954 15.1047 19 14.0001 19C13.875 19 13.7533 19.0114 13.6356 19.033C13.2282 19.1078 12.8373 18.8382 12.7625 18.4308C12.6876 18.0234 12.9572 17.6325 13.3646 17.5577Z"></path>
<path d="M14.0001 22C14.5524 22 15.0001 21.5523 15.0001 21C15.0001 20.4477 14.5524 20 14.0001 20C13.4478 20 13.0001 20.4477 13.0001 21C13.0001 21.5523 13.4478 22 14.0001 22Z"></path>
</svg>
