<svg viewBox="0 0 20 20" fill="#117865" xmlns="http://www.w3.org/2000/svg">
<path d="M12.0001 11C11.8192 11 11.6398 11.0069 11.4622 11.0204C11.1868 11.0413 10.9806 11.2815 11.0015 11.5569C11.0225 11.8322 11.2627 12.0385 11.538 12.0175C11.6904 12.0059 11.8445 12 12.0001 12C15.3138 12 18.0001 14.6863 18.0001 18C18.0001 18.1556 17.9942 18.3097 17.9826 18.4621C17.9616 18.7374 18.1679 18.9776 18.4432 18.9986C18.7186 19.0195 18.9588 18.8133 18.9797 18.5379C18.9932 18.3603 19.0001 18.1809 19.0001 18C19.0001 14.134 15.8661 11 12.0001 11ZM12.0001 13C11.8127 13 11.6275 13.0103 11.4452 13.0305C11.1707 13.0608 10.9728 13.3079 11.0031 13.5824C11.0335 13.8569 11.2806 14.0548 11.555 14.0244C11.701 14.0083 11.8495 14 12.0001 14C14.2092 14 16.0001 15.7909 16.0001 18C16.0001 18.1506 15.9918 18.2991 15.9757 18.4451C15.9453 18.7195 16.1432 18.9666 16.4177 18.997C16.6922 19.0273 16.9393 18.8294 16.9696 18.5549C16.9898 18.3726 17.0001 18.1874 17.0001 18C17.0001 15.2386 14.7615 13 12.0001 13ZM12.0001 15C11.7953 15 11.5947 15.0206 11.4006 15.06C11.13 15.1149 10.9552 15.3789 11.0101 15.6495C11.065 15.9201 11.3289 16.0949 11.5996 16.04C11.7286 16.0138 11.8625 16 12.0001 16C13.1047 16 14.0001 16.8954 14.0001 18C14.0001 18.1376 13.9863 18.2715 13.9601 18.4005C13.9051 18.6712 14.08 18.9351 14.3506 18.99C14.6212 19.0449 14.8852 18.8701 14.9401 18.5995C14.9795 18.4054 15.0001 18.2048 15.0001 18C15.0001 16.3431 13.657 15 12.0001 15ZM13.0001 18C13.0001 18.5523 12.5524 19 12.0001 19C11.4478 19 11.0001 18.5523 11.0001 18C11.0001 17.4477 11.4478 17 12.0001 17C12.5524 17 13.0001 17.4477 13.0001 18Z"></path>
<path d="M17 5.5C17 4.11929 15.8807 3 14.5 3H5.5C4.11929 3 3 4.11929 3 5.5V14.5C3 15.8807 4.11929 17 5.5 17H10.2706C10.3374 16.8869 10.4147 16.7853 10.5 16.7C10.3 16.5 10.1 16.2 10 15.9C9.90001 15.4 10.1 14.9 10.4 14.6C10.2 14.3 10 14 10 13.7C10 13.4784 10.0307 13.2261 10.1091 12.9941C10.0733 12.998 10.0369 13 10 13C9.44772 13 9 12.5523 9 12C9 11.4477 9.44772 11 10 11C10.0305 11 10.0606 11.0014 10.0904 11.004C10.153 10.8197 10.2523 10.6477 10.4 10.5C10.7 10.2 11 10 11.4 10H12C13.8876 10 15.6279 10.6625 17 11.7665V5.5ZM6 12C6 11.4477 6.44772 11 7 11C7.55228 11 8 11.4477 8 12C8 12.5523 7.55228 13 7 13C6.44772 13 6 12.5523 6 12ZM6 8C6 7.44772 6.44772 7 7 7C7.55228 7 8 7.44772 8 8C8 8.55228 7.55228 9 7 9C6.44772 9 6 8.55228 6 8ZM9 8C9 7.44772 9.44772 7 10 7C10.5523 7 11 7.44772 11 8C11 8.55228 10.5523 9 10 9C9.44772 9 9 8.55228 9 8ZM12 8C12 7.44772 12.4477 7 13 7C13.5523 7 14 7.44772 14 8C14 8.55228 13.5523 9 13 9C12.4477 9 12 8.55228 12 8Z"></path>
</svg>