<svg viewBox="0 0 24 24" xmlns="http://www.w3.org/2000/svg">
<path fill-rule="evenodd" clip-rule="evenodd" d="M9.82412 7.714C10.5451 7.20472 11.381 6.83316 12.3014 6.64538C15.8598 5.91933 19.333 8.21539 20.059 11.7738C20.1953 12.4419 20.2251 13.107 20.16 13.7514C18.8547 12.6821 16.6161 12.5141 15.143 14.0068C14.7903 14.3641 14.4343 14.7071 14.0813 15.0241C13.1023 14.0666 12.0854 12.7946 11.2396 11.1898C11.1051 10.9345 10.9841 10.7076 10.875 10.5031C10.1637 9.16902 9.95961 8.78625 9.82412 7.714ZM18.3273 19.7343C18.7144 19.41 19.0745 19.057 19.4048 18.6792C19.2903 18.8102 19.1729 18.9381 19.0513 19.0629C21.0842 17.21 22.1186 14.3648 21.5287 11.4739C20.9875 8.82125 19.2032 6.73981 16.9069 5.71291C16.7655 4.84445 16.3555 4.00452 15.6787 3.32803C14.3336 1.98346 12.3432 1.69283 10.7669 2.47099C10.4708 2.62717 10.0937 2.87125 9.83632 3.1047C9.17967 3.60964 8.58972 4.17659 8.07025 4.79247C7.68159 5.25326 7.33238 5.74145 7.02422 6.25156C6.37128 6.35262 5.72778 6.57318 5.12395 6.92181C3.33393 7.95528 2.34423 9.85331 2.35539 11.8225C2.32027 12.6065 2.3801 13.4075 2.54413 14.2114C2.65612 14.7603 2.81227 15.2889 3.00811 15.7943C4.69175 20.1387 9.3092 22.7658 14.0278 21.803C15.656 21.4708 17.1056 20.7501 18.2998 19.7572L18.3143 19.7451L18.3273 19.7343ZM11.1558 16.8596C10.0029 17.0859 8.98252 17.1082 8.08472 16.9768C6.36593 13.8261 6.52225 10.1516 8.18136 7.24328C8.42917 8.58394 8.98064 10.1208 9.91258 11.8891C10.8021 13.5768 11.8677 14.9338 12.9124 15.9777C12.2753 16.4374 11.6753 16.7576 11.1558 16.8596ZM17.3485 18.5974L17.3563 18.5908L17.364 18.5844C17.689 18.3122 17.9916 18.0159 18.2696 17.6987C18.8586 17.0066 19.3088 16.2025 19.5895 15.3343C18.9341 14.3528 17.2264 14.0312 16.2105 15.0605C15.4747 15.806 14.6945 16.5232 13.9281 17.093C13.1942 17.6386 12.3319 18.1573 11.4448 18.3315C9.40415 18.7321 7.66074 18.5764 6.21487 18.0444C8.10492 19.9596 10.8949 20.9114 13.7279 20.3333C15.1078 20.0518 16.3322 19.4424 17.3408 18.6038L17.3485 18.5974Z"></path>
</svg>