<svg viewBox="0 0 24 24" fill="#117865" xmlns="http://www.w3.org/2000/svg">
<path fill-rule="evenodd" clip-rule="evenodd" d="M9.65272 9.22695L9.65265 9.22689C9.02491 7.81433 8.75989 6.69309 8.72247 5.80414C8.66849 4.52162 9.08826 3.72258 9.57605 3.22974C11.1522 1.78845 13.635 1.86485 15.2042 3.43344C15.3618 3.59099 15.5044 3.75775 15.6319 3.9319C18.672 4.76163 21.1449 7.23325 21.8179 10.5319C22.0184 11.5141 22.0432 12.4913 21.914 13.4311C20.3119 10.9291 16.4713 10.5169 14.2929 12.724C13.7794 13.2443 13.271 13.7214 12.7867 14.1249C12.0487 13.3056 11.3062 12.3179 10.6425 11.1599C10.2423 10.4616 9.91569 9.81869 9.65272 9.22695ZM9.34109 11.9057C10.028 13.1044 10.794 14.1371 11.5626 15.006C11.2413 15.1921 10.9838 15.2957 10.7934 15.3331C9.6574 15.5561 8.68587 15.5619 7.85682 15.4169C6.50254 12.7147 6.48591 9.89427 7.50585 7.66355C7.82294 8.88644 8.4143 10.2886 9.34109 11.9057ZM7.03035 5.50331C6.16329 5.69124 5.34349 6.1186 4.67552 6.78685C2.77982 8.68335 2.82483 11.8019 4.77606 13.7523C5.1167 14.0928 5.49292 14.3752 5.89201 14.5993C4.7797 11.3405 5.23621 7.96879 7.03035 5.50331ZM21.2965 14.7437C20.9748 16.0659 20.3443 17.2886 19.4703 18.313C19.1315 18.7003 18.7623 19.0624 18.3653 19.3949L18.3371 19.4178V19.4184C17.1125 20.4367 15.6259 21.1758 13.9562 21.5165C8.55431 22.6187 3.28175 19.1331 2.17956 13.7312C1.90991 12.4097 1.91486 11.0958 2.15528 9.8489C2.08045 12.5959 4.46238 17.7327 11.0109 16.4469C12.1435 16.2245 13.6495 14.9908 15.0997 13.5213C16.9889 11.6073 20.4391 12.2938 21.2965 14.7437Z" fill="#117865"></path>
</svg>
