<svg width="198" height="193" xmlns="http://www.w3.org/2000/svg" xmlns:xlink="http://www.w3.org/1999/xlink" xml:space="preserve" overflow="hidden"><defs><clipPath id="clip0"><rect x="743" y="221" width="198" height="193"/></clipPath><clipPath id="clip1"><rect x="743" y="221" width="196" height="194"/></clipPath><linearGradient x1="171.427" y1="70.7358" x2="14.7279" y2="106.868" gradientUnits="userSpaceOnUse" spreadMethod="pad" id="fill2"><stop offset="0" stop-color="#028FDC"/><stop offset="0.2" stop-color="#028FDC"/><stop offset="0.51" stop-color="#0078D4"/><stop offset="1" stop-color="#0B315B"/></linearGradient><linearGradient x1="182.539" y1="119.31" x2="79.0153" y2="24.4326" gradientUnits="userSpaceOnUse" spreadMethod="pad" id="fill3"><stop offset="0" stop-color="#028FDC"/><stop offset="0.04" stop-color="#028FDC"/><stop offset="0.46" stop-color="#0078D4"/><stop offset="1" stop-color="#0B315B"/></linearGradient><radialGradient cx="0" cy="0" r="1" gradientUnits="userSpaceOnUse" spreadMethod="pad" id="fill4" gradientTransform="matrix(-81.5834 82.069 -105.875 -105.249 159.156 -1.56184)"><stop offset="0" stop-color="#028FDC"/><stop offset="0.39" stop-color="#028FDC"/><stop offset="0.59" stop-color="#0078D4"/><stop offset="1" stop-color="#1A508B"/></radialGradient><radialGradient cx="0" cy="0" r="1" gradientUnits="userSpaceOnUse" spreadMethod="pad" id="fill5" gradientTransform="matrix(-79.1149 67.7139 -83.549 -97.6162 134.57 67.4536)"><stop offset="0" stop-color="#40D9FA"/><stop offset="0.46" stop-color="#40D9FA"/><stop offset="0.9" stop-color="#0095E6"/><stop offset="1" stop-color="#0095E6"/></radialGradient><radialGradient cx="0" cy="0" r="1" gradientUnits="userSpaceOnUse" spreadMethod="pad" id="fill6" gradientTransform="matrix(-11.8573 109.862 -78.0254 -8.42116 77.1153 45.2252)"><stop offset="0" stop-color="#000000" stop-opacity="0"/><stop offset="0.77" stop-color="#000000" stop-opacity="0"/><stop offset="1" stop-color="#000000" stop-opacity="0.2"/></radialGradient><radialGradient cx="0" cy="0" r="1" gradientUnits="userSpaceOnUse" spreadMethod="pad" id="fill7" gradientTransform="matrix(12.0847 171.528 -312.777 22.0361 129.784 126.833)"><stop offset="0" stop-color="#BDF5FF"/><stop offset="0.1" stop-color="#BDF5FF"/><stop offset="0.47" stop-color="#40D9FA"/><stop offset="1" stop-color="#40D9FA"/></radialGradient></defs><g clip-path="url(#clip0)" transform="translate(-743 -221)"><g clip-path="url(#clip1)"><g><g><g><path d="M94.1087 140.316C118.632 126.157 126.703 94.2268 112.136 68.9967 97.5697 43.7671 65.8817 34.7918 41.3585 48.9502 16.8356 63.1084 8.76431 95.0392 23.3308 120.269 37.8973 145.499 69.5858 154.474 94.1087 140.316Z" fill="url(#fill2)" transform="matrix(1.00335 0 0 1 733.293 215.674)"/><path d="M126.12 69.5864C138.852 56.8505 138.547 35.9043 125.441 22.8021 112.334 9.69985 91.3881 9.40322 78.6559 22.1394 65.9244 34.8757 66.2282 55.8219 79.335 68.924 92.4418 82.0263 113.388 82.3231 126.12 69.5864Z" fill="url(#fill3)" transform="matrix(1.00335 0 0 1 733.293 215.674)"/><path d="M112.381 188.041C154.783 188.041 189.156 153.668 189.156 111.266 189.156 68.864 154.783 34.4908 112.381 34.4908 69.9789 34.4908 35.6056 68.864 35.6056 111.266 35.6056 153.668 69.9789 188.041 112.381 188.041Z" fill="url(#fill4)" transform="matrix(1.00335 6.95843e-17 6.95843e-17 1 733.293 215.674)"/><path d="M82.3014 18.9583C37.2292 46.8004 21.477 105.441 47.3776 152.345 49.1206 155.522 51.0179 158.566 53.0696 161.456L55.0772 161.765 99.6203 176.635 141.935 148.285C134.853 148.506 105.378 131.783 86.1185 95.2262 61.9826 49.4258 71.9325 28.2684 82.346 18.9583L82.3014 18.9583Z" fill="url(#fill5)" fill-rule="evenodd" transform="matrix(1.00335 -6.95843e-17 6.95843e-17 1 733.293 215.674)"/><path d="M82.3014 18.9583C37.2292 46.8004 21.477 105.441 47.3776 152.345 49.1206 155.522 51.0179 158.566 53.0696 161.456L55.0772 161.765 99.6203 176.635 141.935 148.285C134.853 148.506 105.378 131.783 86.1185 95.2262 61.9826 49.4258 71.9325 28.2684 82.346 18.9583L82.3014 18.9583Z" fill="url(#fill6)" fill-rule="evenodd" transform="matrix(1.00335 0 0 1 733.293 215.674)"/><path d="M170.777 161.124C178.565 152.012 184.168 141.114 187.036 129.355 179.403 107.558 148.693 101.424 131.881 118.478 118.976 131.561 105.562 142.548 95.4796 144.511 37.1698 155.961 12.4225 107.602 16.6302 85.7821 14.4902 96.8792 14.4461 108.572 16.8509 120.331 26.6684 168.426 73.5944 199.445 121.689 189.628 136.559 186.583 149.796 180.009 160.694 170.941 160.694 170.941 160.871 170.809 160.937 170.743 164.467 167.786 167.754 164.565 170.777 161.102L170.777 161.124Z" fill="url(#fill7)" fill-rule="evenodd" transform="matrix(1.00335 0 0 1 733.293 215.674)"/></g></g></g></g></g></svg>