<svg width="113" height="109" xmlns="http://www.w3.org/2000/svg" xmlns:xlink="http://www.w3.org/1999/xlink" xml:space="preserve" overflow="hidden"><defs><clipPath id="clip0"><rect x="251" y="859" width="113" height="109"/></clipPath><linearGradient x1="63.8033" y1="111.567" x2="63.8033" y2="16.0131" gradientUnits="userSpaceOnUse" spreadMethod="pad" id="fill1"><stop offset="0" stop-color="#114A85"/><stop offset="0.67" stop-color="#028EDB"/><stop offset="1" stop-color="#028EDB"/></linearGradient><linearGradient x1="63.8024" y1="115.948" x2="63.8024" y2="74.6947" gradientUnits="userSpaceOnUse" spreadMethod="pad" id="fill2"><stop offset="0" stop-color="#000000" stop-opacity="0.2"/><stop offset="0.55" stop-color="#000000" stop-opacity="0"/><stop offset="1" stop-color="#000000" stop-opacity="0"/></linearGradient><linearGradient x1="57.4225" y1="111.567" x2="57.4225" y2="43.8635" gradientUnits="userSpaceOnUse" spreadMethod="pad" id="fill3"><stop offset="0" stop-color="#0094E5"/><stop offset="0.31" stop-color="#0094E5"/><stop offset="1" stop-color="#40D8F9"/></linearGradient><radialGradient cx="0" cy="0" r="1" gradientUnits="userSpaceOnUse" spreadMethod="pad" id="fill4" gradientTransform="matrix(37.4883 0 0 37.4316 40.2733 102.75)"><stop offset="0" stop-color="#000000" stop-opacity="0.3"/><stop offset="1" stop-color="#000000" stop-opacity="0"/></radialGradient><linearGradient x1="57.4225" y1="111.566" x2="57.4225" y2="70.3119" gradientUnits="userSpaceOnUse" spreadMethod="pad" id="fill5"><stop offset="0" stop-color="#000000" stop-opacity="0.2"/><stop offset="0.09" stop-color="#000000" stop-opacity="0.2"/><stop offset="0.55" stop-color="#000000" stop-opacity="0"/><stop offset="1" stop-color="#000000" stop-opacity="0"/></linearGradient><linearGradient x1="44.6627" y1="111.592" x2="44.6627" y2="71.7145" gradientUnits="userSpaceOnUse" spreadMethod="pad" id="fill6"><stop offset="0" stop-color="#3CC5EE"/><stop offset="1" stop-color="#50E0FF"/></linearGradient><linearGradient x1="39.329" y1="99.7174" x2="39.329" y2="65.5729" gradientUnits="userSpaceOnUse" spreadMethod="pad" id="fill7"><stop offset="0" stop-color="#A1ECFF" stop-opacity="0"/><stop offset="0.9" stop-color="#A1ECFF" stop-opacity="0.9"/><stop offset="1" stop-color="#A1ECFF" stop-opacity="0.9"/></linearGradient></defs><g clip-path="url(#clip0)" transform="translate(-251 -859)"><path d="M102.083 111.567C109.126 111.567 114.842 105.859 114.842 98.8265L114.842 49.1384C114.842 47.6096 114.052 46.2845 112.852 45.5456 102.797 39.3283 77.8389 23.9377 65.9979 16.6246 65.3598 16.2424 64.6202 16.0386 63.8289 16.0386 62.9868 16.0386 62.2211 16.2934 61.5576 16.7011 49.691 24.0396 24.8603 39.3537 14.8056 45.5456 13.6062 46.2845 12.7896 47.6351 12.7896 49.1639L12.7896 98.8521C12.7896 105.885 18.506 111.592 25.5494 111.592L102.109 111.592 102.083 111.567Z" fill="url(#fill1)" transform="matrix(1.00013 0 0 1 243.451 850.05)"/><path d="M12.7631 70.3119 12.7631 98.8253C12.7631 105.858 18.4795 111.566 25.5229 111.566L102.082 111.566C109.125 111.566 114.842 105.858 114.842 98.8253L114.842 70.3119 12.7631 70.3119Z" fill="url(#fill2)" transform="matrix(1.00013 0 0 1 243.451 850.05)"/><path d="M25.5229 111.567C18.4795 111.567 12.7631 105.859 12.7631 98.8259L12.7631 69.1153C12.7631 67.5608 13.6053 66.2105 14.8302 65.4715L48.7968 44.5005C49.4603 44.0928 50.226 43.8635 51.0425 43.8635 51.8592 43.8635 52.6503 44.0928 53.2883 44.5005L87.2549 65.4715C88.5057 66.2105 89.3219 67.5608 89.3219 69.1153L89.3219 98.8259C89.3219 105.859 95.0385 111.567 102.082 111.567L25.5229 111.567Z" fill="url(#fill3)" transform="matrix(1.00013 0 0 1 243.451 850.05)"/><path d="M25.5229 111.567C18.4795 111.567 12.7631 105.859 12.7631 98.8259L12.7631 69.1153C12.7631 67.5608 13.6053 66.2105 14.8302 65.4715L48.7968 44.5005C49.4603 44.0928 50.226 43.8635 51.0425 43.8635 51.8592 43.8635 52.6503 44.0928 53.2883 44.5005L87.2549 65.4715C88.5057 66.2105 89.3219 67.5608 89.3219 69.1153L89.3219 98.8259C89.3219 105.859 95.0385 111.567 102.082 111.567L25.5229 111.567Z" fill="url(#fill4)" transform="matrix(1.00013 0 0 1 243.451 850.05)"/><path d="M89.3219 98.8253 89.3219 70.3119 12.7631 70.3119 12.7631 98.8253C12.7631 105.858 18.4795 111.566 25.5229 111.566L102.082 111.566C95.0385 111.566 89.3219 105.858 89.3219 98.8253Z" fill="url(#fill5)" transform="matrix(1.00013 0 0 1 243.451 850.05)"/><path d="M25.5229 111.567C18.4795 111.567 12.7631 105.859 12.7631 98.8265L12.7631 89.0928C12.7631 87.5637 13.5797 86.2389 14.7792 85.4744L36.037 72.3514C36.7005 71.9436 37.4661 71.7145 38.2827 71.7145 39.0993 71.7145 39.8905 71.9436 40.5285 72.3514 40.5285 72.3514 52.1144 79.5115 61.7609 85.4489 62.9858 86.1879 63.8024 87.5382 63.8024 89.0672L63.8024 98.8265C63.8024 105.859 69.5186 111.567 76.562 111.567L25.5229 111.567Z" fill="url(#fill6)" transform="matrix(1.00013 0 0 1 243.451 850.05)"/><path d="M65.9207 105.858C64.5934 103.846 63.8024 101.45 63.8024 98.8514L63.8024 89.0921C63.8024 87.5631 62.9858 86.2128 61.7609 85.4738 52.1144 79.5364 40.5285 72.3763 40.5285 72.3763 39.8649 71.9685 39.0993 71.7394 38.2827 71.7394 37.4661 71.7394 36.675 71.9685 36.037 72.3763L14.7792 85.4993C13.5797 86.2383 12.7631 87.5886 12.7631 89.1177L12.7631 98.8514C12.7631 101.45 13.5541 103.871 14.8812 105.884L65.9207 105.884 65.9207 105.858Z" fill="url(#fill7)" transform="matrix(1.00013 0 0 1 243.451 850.05)"/></g></svg>