<svg viewBox="0 0 20 20" fill="#117865" xmlns="http://www.w3.org/2000/svg">
<path d="M9 2C9.36897 2 9.72499 2.13599 10 2.38197L15.5 7.29997C15.6573 7.44066 15.7831 7.61296 15.8693 7.80561C15.9555 7.99826 16 8.20693 16 8.41797V10.1519C15.7028 10.1518 15.4117 10.24 15.164 10.4062C14.8964 10.5858 14.6937 10.8467 14.586 11.1504C14.5812 11.1597 14.5755 11.1719 14.5688 11.1863C14.5575 11.2106 14.5432 11.2416 14.525 11.2754C14.4452 11.4294 14.3504 11.5751 14.242 11.7104C13.88 12.1564 13.594 12.1564 13.5 12.1564C13.337 12.1564 13.083 12.1084 12.757 11.7084C12.6483 11.5733 12.5535 11.4275 12.474 11.2734C12.445 11.2174 12.424 11.1724 12.403 11.1254C12.2861 10.8307 12.0807 10.5796 11.8151 10.4066C11.5495 10.2336 11.2368 10.1472 10.92 10.1594H10.914C10.5951 10.1768 10.2903 10.296 10.0441 10.4993C9.79788 10.7027 9.62332 10.9796 9.546 11.2894L9.506 11.3944C9.45275 11.5241 9.38355 11.6468 9.3 11.7594C9.21252 11.8895 9.09286 11.9946 8.95267 12.0647C8.81248 12.1348 8.65653 12.1674 8.5 12.1594C8.10218 12.1594 7.72064 12.3174 7.43934 12.5987C7.15804 12.88 7 13.2616 7 13.6594C7 14.0572 7.15804 14.4388 7.43934 14.7201C7.72064 15.0014 8.10218 15.1594 8.5 15.1594C8.89276 15.1635 9.28069 15.1085 9.65159 14.9986C9.60667 15.0911 9.57118 15.1885 9.546 15.2894L9.506 15.3944C9.45275 15.5241 9.38355 15.6468 9.3 15.7594C9.21252 15.8895 9.09286 15.9946 8.95267 16.0647C8.81248 16.1348 8.65653 16.1674 8.5 16.1594C8.10218 16.1594 7.72064 16.3174 7.43934 16.5987C7.27975 16.7583 7.15983 16.9502 7.08594 17.159H3.5C3.10218 17.159 2.72064 17.0009 2.43934 16.7196C2.15804 16.4383 2 16.0568 2 15.659V8.41797C2 8.20693 2.04454 7.99826 2.1307 7.80561C2.21686 7.61296 2.3427 7.44066 2.5 7.29997L8 2.38197C8.27501 2.13599 8.63103 2 9 2Z"></path>
<path d="M11.982 12.344C12.156 12.5867 12.3833 12.7864 12.6464 12.9276C12.9096 13.0689 13.2015 13.1481 13.5 13.159C13.7985 13.1481 14.0904 13.0689 14.3536 12.9276C14.6167 12.7864 14.844 12.5867 15.018 12.344C15.1709 12.157 15.3048 11.9554 15.418 11.742C15.461 11.656 15.492 11.588 15.512 11.542L15.534 11.492V11.481C15.5716 11.3813 15.64 11.2961 15.7294 11.238C15.8187 11.1799 15.9243 11.1519 16.0307 11.1581C16.1371 11.1642 16.2388 11.2042 16.3209 11.2722C16.403 11.3402 16.4612 11.4326 16.487 11.536V11.545L16.501 11.592C16.515 11.635 16.538 11.7 16.571 11.779C16.6569 11.9849 16.7674 12.1796 16.9 12.359C17.0805 12.6135 17.3209 12.8196 17.6 12.9591C17.879 13.0986 18.1881 13.1673 18.5 13.159C18.6326 13.159 18.7598 13.2117 18.8536 13.3055C18.9473 13.3992 19 13.5264 19 13.659C19 13.7916 18.9473 13.9188 18.8536 14.0126C18.7598 14.1063 18.6326 14.159 18.5 14.159C18.0327 14.1669 17.5704 14.0617 17.1526 13.8524C16.7347 13.6431 16.3736 13.3359 16.1 12.957C16.049 12.891 16.003 12.824 15.96 12.757C15.909 12.829 15.854 12.901 15.794 12.974C15.5264 13.3325 15.1809 13.6254 14.7835 13.8307C14.3861 14.036 13.9472 14.1483 13.5 14.159C13.0528 14.1483 12.6139 14.036 12.2165 13.8307C11.8191 13.6254 11.4736 13.3325 11.206 12.974C11.146 12.901 11.091 12.829 11.04 12.757C10.998 12.824 10.951 12.891 10.9 12.957C10.6264 13.3359 10.2653 13.6431 9.84744 13.8524C9.42956 14.0617 8.96729 14.1669 8.5 14.159C8.36739 14.159 8.24021 14.1063 8.14645 14.0126C8.05268 13.9188 8 13.7916 8 13.659C8 13.5264 8.05268 13.3992 8.14645 13.3055C8.24021 13.2117 8.36739 13.159 8.5 13.159C8.81188 13.1673 9.12099 13.0986 9.40004 12.9591C9.67909 12.8196 9.91949 12.6135 10.1 12.359C10.2326 12.1796 10.3431 11.9849 10.429 11.779C10.462 11.7 10.485 11.635 10.499 11.592L10.513 11.545V11.536C10.5388 11.4326 10.597 11.3402 10.6791 11.2722C10.7612 11.2042 10.8629 11.1642 10.9693 11.1581C11.0757 11.1519 11.1813 11.1799 11.2706 11.238C11.36 11.2961 11.4284 11.3813 11.466 11.481V11.492L11.488 11.542C11.508 11.588 11.539 11.656 11.582 11.742C11.6952 11.9554 11.8291 12.157 11.982 12.344Z"></path>
<path d="M12.6464 16.9277C12.3833 16.7864 12.156 16.5867 11.982 16.344C11.8291 16.157 11.6952 15.9554 11.582 15.742C11.539 15.656 11.508 15.588 11.488 15.542L11.466 15.492V15.481C11.4284 15.3813 11.36 15.2961 11.2706 15.238C11.1813 15.1799 11.0757 15.1519 10.9693 15.1581C10.8629 15.1642 10.7612 15.2042 10.6791 15.2722C10.597 15.3402 10.5388 15.4326 10.513 15.536V15.545L10.499 15.592C10.485 15.635 10.462 15.7 10.429 15.779C10.3431 15.9849 10.2326 16.1796 10.1 16.359C9.91949 16.6135 9.67909 16.8196 9.40004 16.9591C9.12099 17.0986 8.81188 17.1673 8.5 17.159C8.36739 17.159 8.24021 17.2117 8.14645 17.3055C8.05268 17.3992 8 17.5264 8 17.659C8 17.7916 8.05268 17.9188 8.14645 18.0126C8.24021 18.1063 8.36739 18.159 8.5 18.159C8.96729 18.1669 9.42956 18.0617 9.84744 17.8524C10.2653 17.6431 10.6264 17.3359 10.9 16.957C10.951 16.891 10.998 16.824 11.04 16.757C11.091 16.829 11.146 16.901 11.206 16.974C11.4736 17.3325 11.8191 17.6254 12.2165 17.8307C12.6139 18.036 13.0528 18.1483 13.5 18.159C13.9472 18.1483 14.3861 18.036 14.7835 17.8307C15.1809 17.6254 15.5264 17.3325 15.794 16.974C15.854 16.901 15.909 16.829 15.96 16.757C16.003 16.824 16.049 16.891 16.1 16.957C16.3736 17.3359 16.7347 17.6431 17.1526 17.8524C17.5704 18.0617 18.0327 18.1669 18.5 18.159C18.6326 18.159 18.7598 18.1063 18.8536 18.0126C18.9473 17.9188 19 17.7916 19 17.659C19 17.5264 18.9473 17.3992 18.8536 17.3055C18.7598 17.2117 18.6326 17.159 18.5 17.159C18.1881 17.1673 17.879 17.0986 17.6 16.9591C17.3209 16.8196 17.0805 16.6135 16.9 16.359C16.7674 16.1796 16.6569 15.9849 16.571 15.779C16.538 15.7 16.515 15.635 16.501 15.592L16.487 15.545V15.536C16.4612 15.4326 16.403 15.3402 16.3209 15.2722C16.2388 15.2042 16.1371 15.1642 16.0307 15.1581C15.9243 15.1519 15.8187 15.1799 15.7294 15.238C15.64 15.2961 15.5716 15.3813 15.534 15.481V15.492L15.512 15.542C15.492 15.588 15.461 15.656 15.418 15.742C15.3048 15.9554 15.1709 16.157 15.018 16.344C14.844 16.5867 14.6167 16.7864 14.3536 16.9277C14.0904 17.0689 13.7985 17.1481 13.5 17.159C13.2015 17.1481 12.9096 17.0689 12.6464 16.9277Z"></path>
</svg>