<svg viewBox="0 0 24 24" xmlns="http://www.w3.org/2000/svg">
<path d="M10.0458 2.53373C10.8835 1.82546 12.11 1.8246 12.9487 2.5317L19.709 8.23095C20.2161 8.65846 20.5088 9.28794 20.5088 9.95121V12.7254C20.354 12.4275 20.1343 12.1659 19.8638 11.961C19.6085 11.7678 19.3169 11.6318 19.0088 11.5598V9.95121C19.0088 9.73012 18.9112 9.52029 18.7422 9.37779L11.9819 3.67853C11.7023 3.44284 11.2935 3.44312 11.0142 3.67921L4.27457 9.37719C4.10602 9.51969 4.00879 9.72921 4.00879 9.94993V18.7498C4.00879 18.8878 4.12072 18.9998 4.25879 18.9998H9.40091C9.35378 19.0036 9.30627 19.0037 9.25879 19.0002C8.66205 19.0002 8.08976 19.2373 7.6678 19.6593C7.42837 19.8987 7.24847 20.1865 7.13764 20.4998H4.25879C3.29229 20.4998 2.50879 19.7163 2.50879 18.7498V9.94993C2.50879 9.28776 2.80047 8.65922 3.30613 8.23171L10.0458 2.53373Z"></path>
<path d="M15.6079 18.9998H15.4214L15.4248 19.0002H15.6048L15.6079 18.9998Z"></path>
<path d="M17.2516 14.5502C17.352 14.4164 17.4374 14.2813 17.5088 14.1545V14.1563C17.5751 14.039 17.6294 13.9287 17.6725 13.8329C17.7168 13.7344 17.7481 13.654 17.7675 13.6007C17.7772 13.5741 17.7838 13.5545 17.7876 13.543L17.7913 13.5317C17.8885 13.2121 18.1856 12.9951 18.5199 13.0001C18.8538 13.005 19.1441 13.2301 19.2322 13.552L19.2348 13.561C19.2379 13.5713 19.2437 13.5896 19.2523 13.6149C19.2697 13.6656 19.2983 13.7432 19.3403 13.8386C19.425 14.0312 19.5595 14.2859 19.7565 14.5373C20.1407 15.0273 20.7523 15.5 21.7588 15.5C22.173 15.5 22.5088 15.8358 22.5088 16.25C22.5088 16.6642 22.173 17 21.7588 17C20.1852 17 19.1719 16.2227 18.5761 15.4627C18.5529 15.4332 18.5303 15.4036 18.5083 15.3741C18.4901 15.3994 18.4715 15.4247 18.4525 15.45C17.9794 16.0809 17.2146 16.7701 16.0948 16.9532C15.9093 16.9835 15.7141 17 15.5088 17C15.2963 17 15.0946 16.9824 14.9033 16.95C13.7941 16.7621 13.0355 16.0772 12.565 15.45C12.546 15.4247 12.5274 15.3994 12.5093 15.3741C12.4873 15.4036 12.4647 15.4332 12.4415 15.4627C11.8457 16.2227 10.8323 17 9.25879 17C8.84458 17 8.50879 16.6642 8.50879 16.25C8.50879 15.8358 8.84458 15.5 9.25879 15.5C10.2652 15.5 10.8769 15.0273 11.2611 14.5373C11.4581 14.2859 11.5926 14.0312 11.6773 13.8386C11.7193 13.7432 11.7479 13.6656 11.7653 13.6149C11.7739 13.5896 11.7796 13.5713 11.7827 13.561L11.7854 13.552C11.8735 13.2301 12.1638 13.005 12.4977 13.0001C12.832 12.9951 13.1291 13.2121 13.2263 13.5317L13.23 13.543C13.2338 13.5545 13.2404 13.5741 13.2501 13.6007C13.2695 13.654 13.3008 13.7344 13.3451 13.8329C13.3882 13.9287 13.4425 14.039 13.5088 14.1563V14.1545C13.5802 14.2813 13.6656 14.4164 13.7659 14.5502C14.1033 15.0004 14.5679 15.3899 15.2184 15.4803C15.3113 15.4932 15.4081 15.5 15.5088 15.5C15.6252 15.5 15.7363 15.4909 15.8423 15.4738C16.4703 15.3726 16.9218 14.9904 17.2516 14.5502Z"></path>
<path d="M17.2516 19.5502C17.352 19.4164 17.4374 19.2813 17.5088 19.1545V19.1563C17.5751 19.039 17.6294 18.9287 17.6725 18.8329C17.7168 18.7344 17.7481 18.654 17.7675 18.6007C17.7772 18.5741 17.7838 18.5545 17.7876 18.543L17.7913 18.5317C17.8885 18.2121 18.1856 17.9951 18.5199 18.0001C18.8538 18.005 19.1441 18.2301 19.2322 18.552L19.2348 18.561C19.2379 18.5713 19.2437 18.5896 19.2523 18.6149C19.2697 18.6656 19.2983 18.7432 19.3403 18.8386C19.425 19.0312 19.5595 19.2859 19.7565 19.5373C20.1407 20.0273 20.7523 20.5 21.7588 20.5C22.173 20.5 22.5088 20.8358 22.5088 21.25C22.5088 21.6642 22.173 22 21.7588 22C20.1852 22 19.1719 21.2227 18.5761 20.4627C18.5529 20.4332 18.5303 20.4036 18.5083 20.3741C18.4901 20.3994 18.4715 20.4247 18.4525 20.45C17.9794 21.0809 17.2146 21.7701 16.0948 21.9532C15.9093 21.9835 15.7141 22 15.5088 22C15.2963 22 15.0946 21.9824 14.9033 21.95C13.7941 21.7621 13.0355 21.0772 12.565 20.45C12.546 20.4247 12.5274 20.3994 12.5093 20.3741C12.4873 20.4036 12.4647 20.4332 12.4415 20.4627C11.8457 21.2227 10.8323 22 9.25879 22C8.84458 22 8.50879 21.6642 8.50879 21.25C8.50879 20.8358 8.84458 20.5 9.25879 20.5C10.2652 20.5 10.8769 20.0273 11.2611 19.5373C11.4581 19.2859 11.5926 19.0312 11.6773 18.8386C11.7193 18.7432 11.7479 18.6656 11.7653 18.6149C11.7739 18.5896 11.7796 18.5713 11.7827 18.561L11.7854 18.552C11.8735 18.2301 12.1638 18.005 12.4977 18.0001C12.832 17.9951 13.1291 18.2121 13.2263 18.5317L13.23 18.543C13.2338 18.5545 13.2404 18.5741 13.2501 18.6007C13.2695 18.654 13.3008 18.7344 13.3451 18.8329C13.3882 18.9287 13.4425 19.039 13.5088 19.1563V19.1545C13.5802 19.2813 13.6656 19.4164 13.7659 19.5502C14.1033 20.0004 14.5679 20.3899 15.2184 20.4803C15.3113 20.4932 15.4081 20.5 15.5088 20.5C15.6252 20.5 15.7363 20.4909 15.8423 20.4738C16.4703 20.3726 16.9218 19.9904 17.2516 19.5502Z"></path>
</svg>
