<svg viewBox="0 0 20 20" xmlns="http://www.w3.org/2000/svg">
	<path d="M17 5.5A2.5 2.5 0 0 0 14.5 3h-9A2.5 2.5 0 0 0 3 5.5v9A2.5 2.5 0 0 0 5.5 17h4.232l.578-1H8v-3h4v.075l1-1.73V8h3v3.348l1 1.73V5.5Zm-13 9V13h3v3H5.5l-.144-.007A1.5 1.5 0 0 1 4 14.5ZM12 8v4H8V8h4Zm0-1H8V4h4v3Zm1-3h1.5l.145.007A1.5 1.5 0 0 1 16 5.5V7h-3V4ZM4 7V5.5l.007-.144A1.5 1.5 0 0 1 5.5 4H7v3H4Zm3 1v4H4V8h3Z" fill="#000"></path><path d="m14.93 11.5 3.9 6.75h.004a.5.5 0 0 1-.433.75h-7.8a.5.5 0 0 1-.436-.75l3.9-6.75a.522.522 0 0 1 .866 0Z" fill="#000"></path>
</svg>