<svg viewBox="0 0 20 20" xmlns="http://www.w3.org/2000/svg">
<path d="M10.8548 8.14645C10.9486 8.24021 11.0013 8.36739 11.0013 8.5V10.623L12.8493 9.556C12.964 9.49074 13.1 9.47353 13.2274 9.50813C13.3548 9.54272 13.4634 9.62631 13.5294 9.74065C13.5954 9.855 13.6135 9.99081 13.5798 10.1185C13.546 10.2461 13.4632 10.3552 13.3493 10.422L11.5013 11.489L13.3493 12.556C13.4632 12.6228 13.546 12.7319 13.5798 12.8595C13.6135 12.9872 13.5954 13.123 13.5294 13.2373C13.4634 13.3517 13.3548 13.4353 13.2274 13.4699C13.1 13.5045 12.964 13.4873 12.8493 13.422L11.0013 12.355V14.5C11.0013 14.6326 10.9486 14.7598 10.8548 14.8536C10.761 14.9473 10.6339 15 10.5013 15C10.3687 15 10.2415 14.9473 10.1477 14.8536C10.0539 14.7598 10.0013 14.6326 10.0013 14.5V12.355L8.15326 13.422C8.09638 13.4553 8.03346 13.4771 7.96813 13.486C7.90279 13.495 7.83634 13.4909 7.77259 13.474C7.70884 13.4572 7.64905 13.4279 7.59667 13.3878C7.54429 13.3478 7.50035 13.2978 7.46738 13.2407C7.43441 13.1836 7.41306 13.1205 7.40456 13.0551C7.39606 12.9897 7.40058 12.9233 7.41786 12.8597C7.43513 12.796 7.46483 12.7364 7.50523 12.6843C7.54563 12.6322 7.59594 12.5886 7.65326 12.556L9.50126 11.489L7.65326 10.422C7.53936 10.3552 7.45649 10.2461 7.42274 10.1185C7.389 9.99081 7.40711 9.855 7.47313 9.74065C7.53914 9.62631 7.64771 9.54272 7.77513 9.50813C7.90255 9.47353 8.03848 9.49074 8.15326 9.556L10.0013 10.623V8.5C10.0013 8.36739 10.0539 8.24021 10.1477 8.14645C10.2415 8.05268 10.3687 8 10.5013 8C10.6339 8 10.761 8.05268 10.8548 8.14645Z"></path>
<path d="M3.50195 6C3.50195 4.34315 4.8451 3 6.50195 3H14.502C16.1588 3 17.502 4.34315 17.502 6V14C17.502 15.6569 16.1588 17 14.502 17H6.50195C4.8451 17 3.50195 15.6569 3.50195 14V6ZM6.50195 4C5.39738 4 4.50195 4.89543 4.50195 6L16.502 6C16.502 4.89543 15.6065 4 14.502 4H6.50195ZM16.502 7H4.50195V14C4.50195 15.1046 5.39738 16 6.50195 16H14.502C15.6065 16 16.502 15.1046 16.502 14V7Z"></path>
</svg>
