<svg viewBox="0 0 20 20" fill="#117865" xmlns="http://www.w3.org/2000/svg">
<path d="M10.3529 8.14645C10.4466 8.24022 10.4993 8.36739 10.4993 8.5V10.623L12.3473 9.556C12.4621 9.49074 12.598 9.47353 12.7254 9.50813C12.8529 9.54272 12.9614 9.62631 13.0274 9.74065C13.0935 9.855 13.1116 9.99081 13.0778 10.1185C13.0441 10.2461 12.9612 10.3552 12.8473 10.422L10.9993 11.489L12.8473 12.556C12.9612 12.6228 13.0441 12.7319 13.0778 12.8595C13.1116 12.9872 13.0935 13.123 13.0274 13.2373C12.9614 13.3517 12.8529 13.4353 12.7254 13.4699C12.598 13.5045 12.4621 13.4873 12.3473 13.422L10.4993 12.355V14.5C10.4993 14.6326 10.4466 14.7598 10.3529 14.8536C10.2591 14.9473 10.1319 15 9.99931 15C9.8667 15 9.73952 14.9473 9.64576 14.8536C9.55199 14.7598 9.49931 14.6326 9.49931 14.5V12.355L7.65131 13.422C7.59442 13.4553 7.5315 13.4771 7.46617 13.486C7.40084 13.495 7.33439 13.4909 7.27064 13.474C7.20689 13.4572 7.1471 13.4279 7.09472 13.3878C7.04234 13.3478 6.9984 13.2978 6.96543 13.2407C6.93246 13.1836 6.91111 13.1205 6.90261 13.0551C6.89411 12.9897 6.89863 12.9233 6.9159 12.8597C6.93318 12.796 6.96288 12.7364 7.00328 12.6843C7.04368 12.6322 7.09399 12.5886 7.15131 12.556L8.99931 11.489L7.15131 10.422C7.03741 10.3552 6.95454 10.2461 6.92079 10.1185C6.88704 9.99081 6.90515 9.855 6.97117 9.74065C7.03719 9.62631 7.14576 9.54272 7.27318 9.50813C7.4006 9.47353 7.53653 9.49074 7.65131 9.556L9.49931 10.623V8.5C9.49931 8.36739 9.55199 8.24022 9.64576 8.14645C9.73952 8.05268 9.8667 8 9.99931 8C10.1319 8 10.2591 8.05268 10.3529 8.14645Z"></path>
<path d="M6 3C4.34315 3 3 4.34315 3 6V14C3 15.6569 4.34315 17 6 17H14C15.6569 17 17 15.6569 17 14V6C17 4.34315 15.6569 3 14 3H6ZM4 14V7H16V14C16 15.1046 15.1046 16 14 16H6C4.89543 16 4 15.1046 4 14Z"></path>
</svg>