<svg width="198" height="193" xmlns="http://www.w3.org/2000/svg" xmlns:xlink="http://www.w3.org/1999/xlink" xml:space="preserve" overflow="hidden"><defs><clipPath id="clip0"><rect x="1033" y="167" width="198" height="193"/></clipPath><linearGradient x1="152.108" y1="139.565" x2="204.795" y2="82.3435" gradientUnits="userSpaceOnUse" spreadMethod="pad" id="fill1"><stop offset="0" stop-color="#114A85"/><stop offset="0.795693" stop-color="#028EDB"/><stop offset="1" stop-color="#028EDB"/></linearGradient><linearGradient x1="154.002" y1="155.254" x2="224.712" y2="40.1744" gradientUnits="userSpaceOnUse" spreadMethod="pad" id="fill2"><stop offset="0" stop-color="#114A85"/><stop offset="0.67" stop-color="#028EDB"/><stop offset="1" stop-color="#028EDB"/></linearGradient><linearGradient x1="47.8577" y1="132.771" x2="141.686" y2="133.451" gradientUnits="userSpaceOnUse" spreadMethod="pad" id="fill3"><stop offset="0" stop-color="#0669B6"/><stop offset="0.074218" stop-color="#0669B6"/><stop offset="0.261846" stop-color="#0E7FCB"/><stop offset="0.544674" stop-color="#148DD9"/><stop offset="0.95" stop-color="#3CC5EE"/><stop offset="1" stop-color="#3CC5EE"/></linearGradient><linearGradient x1="46.7882" y1="167.313" x2="153.817" y2="151.846" gradientUnits="userSpaceOnUse" spreadMethod="pad" id="fill4"><stop offset="0" stop-color="#0094E5"/><stop offset="0.31" stop-color="#0094E5"/><stop offset="1" stop-color="#40D8F9"/></linearGradient><linearGradient x1="36.54" y1="111.175" x2="140.276" y2="142.066" gradientUnits="userSpaceOnUse" spreadMethod="pad" id="fill5"><stop offset="0" stop-color="#000000" stop-opacity="0.2"/><stop offset="0.09" stop-color="#000000" stop-opacity="0.2"/><stop offset="0.55" stop-color="#000000" stop-opacity="0"/><stop offset="1" stop-color="#000000" stop-opacity="0"/></linearGradient><linearGradient x1="114.51" y1="30.2532" x2="23.2109" y2="91.7059" gradientUnits="userSpaceOnUse" spreadMethod="pad" id="fill6"><stop offset="0" stop-color="#BDF5FF"/><stop offset="1" stop-color="#40D9FA"/></linearGradient><linearGradient x1="15.5755" y1="144.796" x2="109.915" y2="82.0805" gradientUnits="userSpaceOnUse" spreadMethod="pad" id="fill7"><stop offset="0" stop-color="#3CC5EE"/><stop offset="1" stop-color="#50E0FF"/></linearGradient><linearGradient x1="42.9943" y1="98.9061" x2="78.4428" y2="116.94" gradientUnits="userSpaceOnUse" spreadMethod="pad" id="fill8"><stop offset="0" stop-color="#A1ECFF" stop-opacity="0"/><stop offset="0.9" stop-color="#A1ECFF" stop-opacity="0.9"/><stop offset="1" stop-color="#A1ECFF" stop-opacity="0.9"/></linearGradient></defs><g clip-path="url(#clip0)" transform="translate(-1033 -167)"><path d="M170.221 69.1825C177.75 58.1082 191.475 65.6181 191.475 77.4517L191.475 126.111C191.255 130.317 189.444 134.352 186.439 137.327L142.578 180.992C139.191 184.345 134.464 185.791 129.878 184.877 129.878 184.877 0.150821 157.523 67.0094 140.714 133.868 123.904 170.221 69.1825 170.221 69.1825Z" fill="#767676" fill-rule="evenodd" transform="matrix(1.00335 0 0 1 1026.09 161.104)"/><path d="M170.221 69.1825C177.75 58.1082 191.475 65.6181 191.475 77.4517L191.475 126.111C191.255 130.317 189.444 134.352 186.439 137.327L142.578 180.992C139.191 184.345 134.464 185.791 129.878 184.877 129.878 184.877 0.150821 157.523 67.0094 140.714 133.868 123.904 170.221 69.1825 170.221 69.1825Z" fill="url(#fill1)" fill-rule="evenodd" transform="matrix(1.00335 0 0 1 1026.09 161.104)"/><path d="M170.221 69.1825C177.75 58.1082 191.475 65.6181 191.475 77.4517L191.475 126.111C191.255 130.317 189.444 134.352 186.439 137.327L142.578 180.992C139.191 184.345 134.464 185.791 129.878 184.877 129.878 184.877 0.150821 157.523 67.0094 140.714 133.868 123.904 170.221 69.1825 170.221 69.1825Z" fill="url(#fill2)" fill-rule="evenodd" transform="matrix(1.00335 0 0 1 1026.09 161.104)"/><path d="M152.954 170.843 152.999 170.89 182.956 140.988C174.119 149.85 151.041 150.027 129.615 139.438 115.324 132.376 105.446 118.773 96.6833 105.052L48.3447 28.6408 17.0589 60.786C14.4007 63.5025 12.6679 67.2896 12.5069 71.2605L12.6794 133.084C12.5104 137.249 14.0002 141.301 16.7961 144.282L56.5619 186.918C59.2967 189.833 63.0462 191.473 66.9583 191.464L126.393 191.464C130.062 191.456 133.601 189.865 136.279 187.251L152.954 170.843Z" fill="#4F1A1A" fill-rule="evenodd" transform="matrix(1.00335 0 0 1 1026.09 161.104)"/><path d="M152.954 170.843 152.999 170.89 182.956 140.988C174.119 149.85 151.041 150.027 129.615 139.438 115.324 132.376 105.446 118.773 96.6833 105.052L48.3447 28.6408 17.0589 60.786C14.4007 63.5025 12.6679 67.2896 12.5069 71.2605L12.6794 133.084C12.5104 137.249 14.0002 141.301 16.7961 144.282L56.5619 186.918C59.2967 189.833 63.0462 191.473 66.9583 191.464L126.393 191.464C130.062 191.456 133.601 189.865 136.279 187.251L152.954 170.843Z" fill="url(#fill3)" fill-rule="evenodd" transform="matrix(1.00335 0 0 1 1026.09 161.104)"/><path d="M152.954 170.843 152.999 170.89 182.956 140.988C174.119 149.85 151.041 150.027 129.615 139.438 115.324 132.376 105.446 118.773 96.6833 105.052L48.3447 28.6408 17.0589 60.786C14.4007 63.5025 12.6679 67.2896 12.5069 71.2605L12.6794 133.084C12.5104 137.249 14.0002 141.301 16.7961 144.282L56.5619 186.918C59.2967 189.833 63.0462 191.473 66.9583 191.464L126.393 191.464C130.062 191.456 133.601 189.865 136.279 187.251L152.954 170.843Z" fill="url(#fill4)" fill-rule="evenodd" transform="matrix(1.00335 0 0 1 1026.09 161.104)"/><path d="M152.954 170.843 152.999 170.89 182.956 140.988C174.119 149.85 151.041 150.027 129.615 139.438 115.324 132.376 105.446 118.773 96.6833 105.052L48.3447 28.6408 17.0589 60.786C14.4007 63.5025 12.6679 67.2896 12.5069 71.2605L12.6794 133.084C12.5104 137.249 14.0002 141.301 16.7961 144.282L56.5619 186.918C59.2967 189.833 63.0462 191.473 66.9583 191.464L126.393 191.464C130.062 191.456 133.601 189.865 136.279 187.251L152.954 170.843Z" fill="url(#fill5)" fill-rule="evenodd" transform="matrix(1.00335 0 0 1 1026.09 161.104)"/><path d="M40.5064 128.264C53.4245 103.339 57.5573 109.951 104.896 72.7909 126.859 55.5509 139.604 35.2389 145.816 23.1888 148.378 18.2194 144.827 12.6778 139.415 12.6776L69.8028 12.6754C65.9927 12.6753 62.3361 14.2384 59.6235 17.0266L16.8128 61.0312C14.0511 63.8701 12.4964 67.7433 12.4964 71.7863L12.4964 133.454C12.4964 137.39 13.9703 141.17 16.6043 143.99L51.0146 180.833C51.0146 180.833 26.7344 154.836 40.5064 128.264Z" fill="#585858" fill-rule="evenodd" transform="matrix(1.00335 0 0 1 1026.09 161.104)"/><path d="M40.5064 128.264C53.4245 103.339 57.5573 109.951 104.896 72.7909 126.859 55.5509 139.604 35.2389 145.816 23.1888 148.378 18.2194 144.827 12.6778 139.415 12.6776L69.8028 12.6754C65.9927 12.6753 62.3361 14.2384 59.6235 17.0266L16.8128 61.0312C14.0511 63.8701 12.4964 67.7433 12.4964 71.7863L12.4964 133.454C12.4964 137.39 13.9703 141.17 16.6043 143.99L51.0146 180.833C51.0146 180.833 26.7344 154.836 40.5064 128.264Z" fill="url(#fill6)" fill-rule="evenodd" transform="matrix(1.00335 0 0 1 1026.09 161.104)"/><path d="M40.5064 128.264C53.4245 103.339 57.5573 109.951 104.896 72.7909 126.859 55.5509 139.604 35.2389 145.816 23.1888 148.378 18.2194 144.827 12.6778 139.415 12.6776L69.8028 12.6754C65.9927 12.6753 62.3361 14.2384 59.6235 17.0266L16.8128 61.0312C14.0511 63.8701 12.4964 67.7433 12.4964 71.7863L12.4964 133.454C12.4964 137.39 13.9703 141.17 16.6043 143.99L51.0146 180.833C51.0146 180.833 26.7344 154.836 40.5064 128.264Z" fill="url(#fill7)" fill-rule="evenodd" transform="matrix(1.00335 0 0 1 1026.09 161.104)"/><path d="M40.5064 128.264C53.4245 103.339 57.5573 109.951 104.896 72.7909 126.859 55.5509 139.604 35.2389 145.816 23.1888 148.378 18.2194 144.827 12.6778 139.415 12.6776L69.8028 12.6754C65.9927 12.6753 62.3361 14.2384 59.6235 17.0266L16.8128 61.0312C14.0511 63.8701 12.4964 67.7433 12.4964 71.7863L12.4964 133.454C12.4964 137.39 13.9703 141.17 16.6043 143.99L51.0146 180.833C51.0146 180.833 26.7344 154.836 40.5064 128.264Z" fill="url(#fill8)" fill-rule="evenodd" transform="matrix(1.00335 0 0 1 1026.09 161.104)"/></g></svg>