<svg viewBox="0 0 20 20" xmlns="http://www.w3.org/2000/svg">
<path d="M10 2C14.4183 2 18 5.58172 18 10C18 14.4183 14.4183 18 10 18C5.58172 18 2 14.4183 2 10C2 5.58172 5.58172 2 10 2ZM9.64645 13.8536C9.74021 13.9473 9.86739 14 10 14C11.0609 14 12.0783 13.5786 12.8284 12.8284C13.5786 12.0783 14 11.0609 14 10C14 8.93913 13.5786 7.92172 12.8284 7.17157C12.0783 6.42143 11.0609 6 10 6C9.86739 6 9.74021 6.05268 9.64645 6.14645C9.55268 6.24021 9.5 6.36739 9.5 6.5C9.5 6.63261 9.55268 6.75979 9.64645 6.85355C9.74021 6.94732 9.86739 7 10 7C10.7956 7 11.5587 7.31607 12.1213 7.87868C12.6839 8.44129 13 9.20435 13 10C13 10.7956 12.6839 11.5587 12.1213 12.1213C11.5587 12.6839 10.7956 13 10 13C9.86739 13 9.74021 13.0527 9.64645 13.1464C9.55268 13.2402 9.5 13.3674 9.5 13.5C9.5 13.6326 9.55268 13.7598 9.64645 13.8536ZM7.4367 13.0708C7.52637 13.1461 7.63962 13.1875 7.7567 13.1878V13.1908C7.85959 13.1912 7.96009 13.1598 8.04448 13.1009C8.12888 13.0421 8.19306 12.9586 8.22828 12.8619C8.26349 12.7652 8.26802 12.6601 8.24125 12.5607C8.21448 12.4614 8.15772 12.3727 8.0787 12.3068C7.63685 11.9377 7.31053 11.4493 7.1387 10.8998C7.119 10.8372 7.08715 10.779 7.04498 10.7287C7.00281 10.6783 6.95114 10.6368 6.89292 10.6064C6.8347 10.5761 6.77106 10.5575 6.70565 10.5517C6.64024 10.5459 6.57434 10.5531 6.5117 10.5728C6.44905 10.5925 6.39091 10.6243 6.34057 10.6665C6.29024 10.7087 6.2487 10.7603 6.21834 10.8186C6.18797 10.8768 6.16937 10.9404 6.1636 11.0058C6.15783 11.0712 6.165 11.1372 6.1847 11.1998C6.41466 11.9303 6.84914 12.5796 7.4367 13.0708ZM6.6507 9.48679C6.7579 9.48668 6.86223 9.45212 6.9483 9.3882C7.03436 9.32428 7.09761 9.23439 7.1287 9.13179L7.1637 9.02379C7.33814 8.51638 7.64548 8.06503 8.0537 7.71679C8.10602 7.67499 8.14941 7.62309 8.18129 7.56419C8.21318 7.50529 8.2329 7.44059 8.2393 7.37392C8.24569 7.30725 8.23863 7.23998 8.21853 7.17609C8.19842 7.1122 8.16569 7.05301 8.12227 7.00201C8.07885 6.95102 8.02562 6.90927 7.96576 6.87924C7.90589 6.84922 7.8406 6.83152 7.77377 6.82721C7.70693 6.8229 7.63991 6.83206 7.57668 6.85415C7.51345 6.87624 7.45531 6.9108 7.4057 6.95579C6.86051 7.42011 6.45019 8.02247 6.2177 8.69979L6.1717 8.84279C6.13341 8.9697 6.14709 9.10661 6.20973 9.22344C6.27236 9.34026 6.37881 9.42743 6.5057 9.46579C6.55279 9.47961 6.60161 9.48669 6.6507 9.48679Z" fill="#0F6CBD"></path>
</svg>