<svg viewBox="0 0 20 20" xmlns="http://www.w3.org/2000/svg">
<path d="M18 10C18 5.58172 14.4183 2 10 2C5.58172 2 2 5.58172 2 10C2 14.4183 5.58172 18 10 18C14.4183 18 18 14.4183 18 10ZM10.5 6.49951V8.79286L12.1216 7.17127C12.2952 6.99771 12.5646 6.97842 12.7594 7.11342L12.8287 7.17127C13.0023 7.34484 13.0215 7.61426 12.8865 7.80913L12.8287 7.87838L11.2076 9.49951H13.5C13.7455 9.49951 13.9496 9.67639 13.9919 9.90964L14 9.99951C14 10.245 13.8231 10.4491 13.5899 10.4915L13.5 10.4995H11.2072L12.8287 12.121C13.0023 12.2946 13.0215 12.564 12.8865 12.7589L12.8287 12.8281C12.6551 13.0017 12.3857 13.021 12.1908 12.886L12.1216 12.8281L10.5 11.2065V13.4995C10.5 13.745 10.3231 13.9491 10.0899 13.9915L10 13.9995C9.75454 13.9995 9.55039 13.8226 9.50806 13.5894L9.5 13.4995V11.2071L7.87894 12.8281C7.70538 13.0017 7.43595 13.021 7.24109 12.886L7.17184 12.8281C6.99827 12.6546 6.97899 12.3851 7.11398 12.1903L7.17184 12.121L8.79335 10.4995H6.5C6.25454 10.4995 6.05039 10.3226 6.00806 10.0894L6 9.99951C6 9.75405 6.17688 9.5499 6.41012 9.50757L6.5 9.49951H8.79297L7.17184 7.87838C6.99827 7.70481 6.97899 7.43539 7.11398 7.24052L7.17184 7.17127C7.3454 6.99771 7.61483 6.97842 7.8097 7.11342L7.87894 7.17127L9.5 8.79233V6.49951C9.5 6.25405 9.67688 6.0499 9.91012 6.00757L10 5.99951C10.2455 5.99951 10.4496 6.17639 10.4919 6.40964L10.5 6.49951Z" fill="#0E700E"></path></svg>