<svg viewBox="0 0 20 20" xmlns="http://www.w3.org/2000/svg">
<path d="M10 5C5 5 2 10 2 10C2 10 5 15 10 15C15 15 18 10 18 10C18 10 15 5 10 5ZM12.08 6.351C11.2656 6.39888 10.4716 6.62514 9.75434 7.01377C9.03703 7.40241 8.41389 7.94392 7.929 8.6V8.607C7.7261 8.90164 7.59131 9.23774 7.53441 9.59093C7.4775 9.94412 7.49991 10.3055 7.6 10.649C6.61452 9.89303 5.87084 8.86612 5.46 7.694C6.74205 6.63879 8.34009 6.04252 10 6C10.7078 6.00297 11.4104 6.12153 12.08 6.351ZM8.5 10C8.5 9.70333 8.58797 9.41332 8.7528 9.16664C8.91762 8.91997 9.15189 8.72771 9.42597 8.61418C9.70006 8.50065 10.0017 8.47094 10.2926 8.52882C10.5836 8.5867 10.8509 8.72956 11.0607 8.93934C11.2704 9.14912 11.4133 9.41639 11.4712 9.70736C11.5291 9.99834 11.4994 10.2999 11.3858 10.574C11.2723 10.8481 11.08 11.0824 10.8334 11.2472C10.5867 11.412 10.2967 11.5 10 11.5C9.60218 11.5 9.22064 11.342 8.93934 11.0607C8.65804 10.7794 8.5 10.3978 8.5 10ZM3.213 10C3.64816 9.41598 4.13404 8.87153 4.665 8.373C6.349 12.284 9.389 12.5 10 12.5C10.663 12.5 11.2989 12.2366 11.7678 11.7678C12.2366 11.2989 12.5 10.663 12.5 10C12.5 9.961 12.49 9.925 12.489 9.887C13.1918 10.7184 13.662 11.721 13.852 12.793C12.7118 13.5596 11.3737 13.9788 10 14C6.541 14 4.09 11.184 3.213 10ZM14.73 12.157C14.5354 11.1241 14.0704 10.1612 13.3825 9.36653C12.6946 8.57183 11.8083 7.97367 10.814 7.633C11.9172 7.26283 13.1013 7.20571 14.235 7.468C15.2092 8.1777 16.0697 9.03146 16.787 10C16.1921 10.8004 15.5013 11.5248 14.73 12.157Z"></path>
</svg>
