<?xml version="1.0" encoding="UTF-8" standalone="no"?>
<svg width="16" height="16" viewBox="0 0 16 16" fill="none" xmlns="http://www.w3.org/2000/svg"><circle fill="#FAFAFA" cx="8" cy="8" r="7.5" class="nfwns" xmlns="http://www.w3.org/2000/svg" /><path fill="#646464" d="M8,15.5c4.136,0,7.5-3.364,7.5-7.5S12.136,0.5,8,0.5V8H0.5C0.5,12.136,3.864,15.5,8,15.5z" class="fwns" xmlns="http://www.w3.org/2000/svg" /><g xmlns="http://www.w3.org/2000/svg"><path fill="#444444" d="M0,8c0,4.418,3.582,8,8,8s8-3.582,8-8s-3.582-8-8-8S0,3.582,0,8z M1,8c0-3.86,3.14-7,7-7s7,3.14,7,7s-3.14,7-7,7S1,11.86,1,8z" class="fwns" /></g></svg>
