<?xml version="1.0" encoding="UTF-8" standalone="no"?>
<svg width="16" height="16" viewBox="0 0 16 16" fill="none" xmlns="http://www.w3.org/2000/svg"><circle cx="8" cy="8" r="8" fill="#64B178" class="fwns" xmlns="http://www.w3.org/2000/svg" /><path fill-rule="evenodd" clip-rule="evenodd" d="M0 8C0 3.58172 3.58172 0 8 0C12.4183 0 16 3.58172 16 8C16 12.4183 12.4183 16 8 16C3.58172 16 0 12.4183 0 8ZM1 8C1 4.13401 4.13401 1 8 1C11.866 1 15 4.13401 15 8C15 8.65796 14.9092 9.29472 14.7395 9.89843L7.99747 3.99915L1.25949 9.89488C1.09042 9.29222 1 8.65667 1 8ZM2.11993 11.7995C3.36703 13.7255 5.53468 15 8 15C10.4641 15 12.6309 13.7268 13.8782 11.8024L7.99747 6.65668L2.11993 11.7995Z" fill="#305A3B" class="fwns" xmlns="http://www.w3.org/2000/svg" /></svg>
