<?xml version="1.0" encoding="UTF-8" standalone="no"?>
<svg width="16" height="16" viewBox="0 0 16 16" fill="none" xmlns="http://www.w3.org/2000/svg"><g xmlns="http://www.w3.org/2000/svg"><rect fill="none" width="16" height="16" class="fwns" /><circle fill="#FAFAFA" cx="8" cy="8" r="7.5" class="nfwns" /><path fill="#64B178" d="M8,0.5C3.864,0.5,0.5,3.864,0.5,8s3.364,7.5,7.5,7.5s7.5-3.364,7.5-7.5S12.136,0.5,8,0.5z M6.5,13.204L2.046,8.75L3.75,7.046l2.75,2.75l5.75-5.75l1.704,1.704L6.5,13.204z" class="fwns" /><path fill="#305A3B" d="M8,0C3.582,0,0,3.581,0,8s3.582,8,8,8s8-3.581,8-8S12.418,0,8,0z M8,15c-3.86,0-7-3.14-7-7s3.14-7,7-7c3.049,0,5.642,1.963,6.599,4.688l-2.349-2.35L6.5,9.089l-2.75-2.75L1.339,8.75L6.5,13.911l8.133-8.133C14.867,6.478,15,7.223,15,8C15,11.86,11.86,15,8,15z M13.247,5.75L6.5,12.497L2.753,8.75L3.75,7.753l2.75,2.75l5.75-5.75L13.247,5.75z" class="fwns" /></g></svg>
