<?xml version="1.0" encoding="UTF-8" standalone="no"?>
<svg width="16" height="16" viewBox="0 0 16 16" fill="none" xmlns="http://www.w3.org/2000/svg"><circle cx="8" cy="8" r="8" fill="#F26E5F" class="fwns" xmlns="http://www.w3.org/2000/svg" /><path fill-rule="evenodd" clip-rule="evenodd" d="M16 8C16 12.4183 12.4183 16 8 16C3.58172 16 0 12.4183 0 8C0 3.58172 3.58172 0 8 0C12.4183 0 16 3.58172 16 8ZM15 8C15 11.866 11.866 15 8 15C4.13401 15 1 11.866 1 8C1 7.34223 1.09073 6.70564 1.26035 6.10208L8.00142 12.0005L14.7402 6.10408C14.9095 6.70705 15 7.34295 15 8ZM13.8795 4.19964L8.00142 9.34298L2.1215 4.19805C3.36884 2.27339 5.53571 1 8 1C10.465 1 12.6323 2.27409 13.8795 4.19964Z" fill="#940F00" class="fwns" xmlns="http://www.w3.org/2000/svg" /></svg>
