<?xml version="1.0" encoding="UTF-8" standalone="no"?>
<svg width="16" height="16" viewBox="0 0 16 16" fill="none" xmlns="http://www.w3.org/2000/svg"><circle fill="#F26E5F" cx="8" cy="8" r="7.5" class="fwns" xmlns="http://www.w3.org/2000/svg" /><path fill="#940F00" d="M16,8c0,4.418-3.582,8-8,8s-8-3.582-8-8s3.582-8,8-8S16,3.582,16,8z M15,8c0-3.86-3.14-7-7-7S1,4.14,1,8s3.14,7,7,7S15,11.86,15,8z" class="fwns" xmlns="http://www.w3.org/2000/svg" /><polygon fill="#FAFAFA" points="8,10.121 4.707,13.414 2.586,11.293 5.879,8 2.586,4.707 4.707,2.586 8,5.879 11.293,2.586 13.414,4.707 10.121,8 13.414,11.293 11.293,13.414 " class="nfwns" xmlns="http://www.w3.org/2000/svg" /><g xmlns="http://www.w3.org/2000/svg"><path fill="#940F00" d="M11.293,3.293l1.414,1.414L9.414,8l3.293,3.293l-1.414,1.414L8,9.414l-3.293,3.293l-1.414-1.414L6.586,8L3.293,4.707l1.414-1.414L8,6.586L11.293,3.293 M11.293,1.879L8,5.172L4.707,1.879L1.879,4.707L5.172,8l-3.293,3.293l2.828,2.828L8,10.828l3.293,3.293l2.828-2.828L10.828,8l3.293-3.293L11.293,1.879L11.293,1.879z" class="fwns" /></g></svg>
