<?xml version="1.0" encoding="UTF-8" standalone="no"?>
<svg width="16" height="16" viewBox="0 0 16 16" fill="none" xmlns="http://www.w3.org/2000/svg"><path fill-rule="evenodd" clip-rule="evenodd" d="M0 0V16H16V0H0Z" fill="#444444" class="fwns" xmlns="http://www.w3.org/2000/svg" /><circle cx="8" cy="8" r="6" fill="#F26E5F" class="fwns" xmlns="http://www.w3.org/2000/svg" /><path fill-rule="evenodd" clip-rule="evenodd" d="M14 8C14 11.3137 11.3137 14 8 14C4.68629 14 2 11.3137 2 8C2 4.68629 4.68629 2 8 2C11.3137 2 14 4.68629 14 8ZM13.25 8C13.25 10.8995 10.8995 13.25 8 13.25C5.10051 13.25 2.75 10.8995 2.75 8C2.75 7.50667 2.81804 7.02923 2.94526 6.57656L8.00107 11.0004L13.0552 6.57806C13.1821 7.03029 13.25 7.50721 13.25 8ZM12.4096 5.14973L8.00107 9.00724L3.59112 5.14854C4.52663 3.70504 6.15179 2.75 8 2.75C9.84872 2.75 11.4743 3.70557 12.4096 5.14973Z" fill="#940F00" class="fwns" xmlns="http://www.w3.org/2000/svg" /></svg>
