<?xml version="1.0" encoding="UTF-8" standalone="no"?>
<svg width="16" height="16" viewBox="0 0 16 16" fill="none" xmlns="http://www.w3.org/2000/svg"><circle cx="8" cy="8" r="8" fill="#B2B2B2" class="fwns" xmlns="http://www.w3.org/2000/svg" /><path fill-rule="evenodd" clip-rule="evenodd" d="M16 8C16 12.4183 12.4183 16 8 16C3.58172 16 0 12.4183 0 8C0 3.58172 3.58172 0 8 0C12.4183 0 16 3.58172 16 8ZM7 14.9291V1.07089C3.60771 1.55612 1 4.47353 1 8C1 11.5265 3.60771 14.4439 7 14.9291ZM15 8C15 11.5265 12.3923 14.4439 9 14.9291V1.07089C12.3923 1.55612 15 4.47353 15 8Z" fill="#5E5E5E" class="fwns" xmlns="http://www.w3.org/2000/svg" /></svg>
