<?xml version="1.0" encoding="UTF-8" standalone="no"?>
<svg width="16" height="16" viewBox="0 0 16 16" fill="none" xmlns="http://www.w3.org/2000/svg"><path fill-rule="evenodd" clip-rule="evenodd" d="M0 0V16H16V0H0Z" fill="#444444" class="fwns" xmlns="http://www.w3.org/2000/svg" /><circle cx="8" cy="8" r="6" fill="#64B178" class="fwns" xmlns="http://www.w3.org/2000/svg" /><path fill-rule="evenodd" clip-rule="evenodd" d="M2 8C2 4.68629 4.68629 2 8 2C11.3137 2 14 4.68629 14 8C14 11.3137 11.3137 14 8 14C4.68629 14 2 11.3137 2 8ZM2.75 8C2.75 5.1005 5.1005 2.75 8 2.75C10.8995 2.75 13.25 5.1005 13.25 8C13.25 8.49347 13.1819 8.97104 13.0546 9.42382L7.9981 4.99936L2.94462 9.42116C2.81782 8.96916 2.75 8.4925 2.75 8ZM3.58995 10.8496C4.52527 12.2942 6.15101 13.25 8 13.25C9.84808 13.25 11.4731 12.2951 12.4087 10.8518L7.9981 6.99251L3.58995 10.8496Z" fill="#305A3B" class="fwns" xmlns="http://www.w3.org/2000/svg" /></svg>
