<?xml version="1.0" encoding="UTF-8" standalone="no"?>
<svg width="16" height="16" viewBox="0 0 16 16" fill="none" xmlns="http://www.w3.org/2000/svg"><path fill-rule="evenodd" clip-rule="evenodd" d="M15 1H1V15H15V1ZM0 0V16H16V0H0Z" fill="#444444" class="fwns" xmlns="http://www.w3.org/2000/svg" /><circle cx="8" cy="8" r="6" fill="#D7962E" class="fwns" xmlns="http://www.w3.org/2000/svg" /><path fill-rule="evenodd" clip-rule="evenodd" d="M14 8C14 11.3137 11.3137 14 8 14C4.68629 14 2 11.3137 2 8C2 4.68629 4.68629 2 8 2C11.3137 2 14 4.68629 14 8ZM13.1968 8.75C12.8329 11.2942 10.6449 13.25 8 13.25C5.35515 13.25 3.16709 11.2942 2.80317 8.75H13.1968ZM13.1968 7.25H2.80317C3.16709 4.70578 5.35515 2.75 8 2.75C10.6449 2.75 12.8329 4.70578 13.1968 7.25Z" fill="#6F4D15" class="fwns" xmlns="http://www.w3.org/2000/svg" /></svg>
