<?xml version="1.0" encoding="UTF-8" standalone="no"?>
<svg width="16" height="16" viewBox="0 0 16 16" fill="none" xmlns="http://www.w3.org/2000/svg"><circle cx="8" cy="8" r="8" fill="#D196CA" class="fwns" xmlns="http://www.w3.org/2000/svg" /><path fill-rule="evenodd" clip-rule="evenodd" d="M16 8C16 12.4183 12.4183 16 8 16C3.58172 16 0 12.4183 0 8C0 3.58172 3.58172 0 8 0C12.4183 0 16 3.58172 16 8ZM15 8C15 11.866 11.866 15 8 15C6.4277 15 4.97648 14.4816 3.80792 13.6064L13.6064 3.80792C14.4816 4.97648 15 6.4277 15 8ZM2.39368 12.1923L12.1923 2.39368C11.0237 1.51843 9.57237 1 8 1C4.13401 1 1 4.13401 1 8C1 9.57237 1.51843 11.0237 2.39368 12.1923Z" fill="#873B7E" class="fwns" xmlns="http://www.w3.org/2000/svg" /></svg>
