<?xml version="1.0" encoding="UTF-8" standalone="no"?>
<svg width="16" height="16" viewBox="0 0 16 16" fill="none" xmlns="http://www.w3.org/2000/svg"><circle fill="#D7962E" cx="8" cy="8" r="7.5" class="fwns" xmlns="http://www.w3.org/2000/svg" /><rect x="6.5" y="1.5" fill="#FAFAFA" width="3" height="9" class="fwns" xmlns="http://www.w3.org/2000/svg" /><ellipse fill="#FAFAFA" cx="8" cy="13" rx="2" ry="1.7" class="nfwns" xmlns="http://www.w3.org/2000/svg" /><path fill="#A4711E" d="M8,0C3.582,0,0,3.582,0,8s3.582,8,8,8s8-3.582,8-8S12.418,0,8,0z M8,14.2c-0.827,0-1.5-0.538-1.5-1.2s0.673-1.2,1.5-1.2s1.5,0.538,1.5,1.2S8.827,14.2,8,14.2z M9,10H7V2h2V10z M1,8c0-3.165,2.112-5.842,5-6.705V11h0.97c-0.865,0.346-1.47,1.109-1.47,2c0,0.798,0.488,1.49,1.21,1.876C3.465,14.268,1,11.419,1,8z M9.29,14.876C10.013,14.49,10.5,13.798,10.5,13c0-0.891-0.604-1.654-1.47-2H10V1.295c2.888,0.863,5,3.54,5,6.705C15,11.419,12.535,14.268,9.29,14.876z" class="fwns" xmlns="http://www.w3.org/2000/svg" /></svg>
