<?xml version="1.0" encoding="UTF-8" standalone="no"?>
<svg width="16" height="16" viewBox="0 0 16 16" fill="none" xmlns="http://www.w3.org/2000/svg"><circle cx="8" cy="8" r="8" fill="#D7962E" class="fwns" xmlns="http://www.w3.org/2000/svg" /><path fill-rule="evenodd" clip-rule="evenodd" d="M16 8C16 12.4183 12.4183 16 8 16C3.58172 16 0 12.4183 0 8C0 3.58172 3.58172 0 8 0C12.4183 0 16 3.58172 16 8ZM14.9291 9C14.4439 12.3923 11.5265 15 8 15C4.47353 15 1.55612 12.3923 1.07089 9H14.9291ZM14.9291 7H1.07089C1.55612 3.60771 4.47353 1 8 1C11.5265 1 14.4439 3.60771 14.9291 7Z" fill="#6F4D15" class="fwns" xmlns="http://www.w3.org/2000/svg" /></svg>
