<?xml version="1.0" encoding="UTF-8" standalone="no"?>
<svg width="16" height="16" viewBox="0 0 16 16" fill="none" xmlns="http://www.w3.org/2000/svg"><rect x="7" y="7" fill="#83BEEC" width="8" height="8" class="fwns" xmlns="http://www.w3.org/2000/svg" /><rect x="7" fill="#FAFAFA" width="8" height="8" class="fwns" xmlns="http://www.w3.org/2000/svg" /><rect y="7" fill="#83BEEC" width="8" height="8" class="fwns" xmlns="http://www.w3.org/2000/svg" /><rect fill="#83BEEC" width="8" height="8" class="fwns" xmlns="http://www.w3.org/2000/svg" /><path fill="#444444" d="M15,15H7V7h8V15z M14,14V8H8v6H14z" class="fwns" xmlns="http://www.w3.org/2000/svg" /><path fill="#444444" d="M15,8H7V0h8V8z M14,7V1H8v6H14z" class="fwns" xmlns="http://www.w3.org/2000/svg" /><path fill="#444444" d="M8,15H0V7h8V15z M7,14V8H1v6H7z" class="fwns" xmlns="http://www.w3.org/2000/svg" /><path fill="#444444" d="M8,8H0V0h8V8z M7,7V1H1v6H7z" class="fwns" xmlns="http://www.w3.org/2000/svg" /></svg>
