<?xml version="1.0" encoding="UTF-8" standalone="no"?>
<svg width="16" height="16" viewBox="0 0 16 16" fill="none" xmlns="http://www.w3.org/2000/svg"><polygon fill="#FAFAFA" points="1.5,15.5 1.5,9.5 4.5,9.5 4.5,6.5 7.5,6.5 7.5,3.5 10.5,3.5 10.5,0.5 13.5,0.5 13.5,15.5 " class="fwns" xmlns="http://www.w3.org/2000/svg" /><polygon fill="#646464" points="7.5,6.5 4.5,6.5 4.5,9.5 1.5,9.5 1.5,15.5 7.5,15.5 " class="fwns" xmlns="http://www.w3.org/2000/svg" /><path fill="#444444" d="M10,0v3H7v3H4v3H1v7h13V0H10z M4,15H2v-5h2V15z M7,15H5V9V7h2V15z M10,15H8V6V4h2V15z M13,15h-2V3V1h2V15z" class="fwns" xmlns="http://www.w3.org/2000/svg" /></svg>
