<?xml version="1.0" encoding="UTF-8" standalone="no"?>
<svg width="16" height="16" viewBox="0 0 16 16" fill="none" xmlns="http://www.w3.org/2000/svg"><polygon fill="#D7962E" points="8.019,12.005 3.529,14.818 5.354,9.617 1.212,5.5 6.293,5.5 8.015,1.335 9.66,5.5 14.797,5.5 10.686,9.629 12.744,14.818 " class="fwns" xmlns="http://www.w3.org/2000/svg" /><g xmlns="http://www.w3.org/2000/svg"><path opacity="0.99" fill="#A4711E" enable-background="new    " d="M16,5h-6L8.025,0L5.959,5H0l4.778,4.749L2.584,16l5.441-3.409L13.75,16l-2.479-6.251L16,5z M11.74,13.678l-3.729-2.226l-3.54,2.224L5.93,9.512L2.416,6h4.211l1.377-3.331L9.32,6h4.282l-3.501,3.535L11.74,13.678z" class="fwns" /></g></svg>
