<?xml version="1.0" encoding="UTF-8" standalone="no"?>
<svg width="16" height="16" viewBox="0 0 16 16" fill="none" xmlns="http://www.w3.org/2000/svg"><g xmlns="http://www.w3.org/2000/svg"><polygon fill="#FAFAFA" points="8.088,11.952 3.597,14.773 5.423,9.557 1.277,5.414 6.362,5.414 8.084,1.248 9.729,5.414 14.871,5.414 10.756,9.568 12.815,14.774 " class="fwns" /><polygon fill="#646464" points="8,12.007 8,1.452 6.362,5.414 1.277,5.414 5.423,9.557 3.597,14.773 " class="fwns" /></g><polygon opacity="0.99" fill="#444444" enable-background="new    " points="8,12.607 8,11.46 4.472,13.676 5.93,9.512 2.416,6 6.627,6 8,2.678 8,0.062 5.959,5 0,5 4.778,9.749 2.584,16 " class="fwns" xmlns="http://www.w3.org/2000/svg" /><polygon opacity="0.99" fill="#444444" enable-background="new    " points="16,5 10,5 8.025,0 8,0.062 8,2.678 8.004,2.669 9.32,6 13.602,6 10.102,9.535 11.74,13.678 8.012,11.452 8,11.46 8,12.607 8.025,12.591 13.75,16 11.271,9.749 " class="fwns" xmlns="http://www.w3.org/2000/svg" /></svg>
