<?xml version="1.0" encoding="UTF-8" standalone="no"?>
<svg width="16" height="16" viewBox="0 0 16 16" fill="none" xmlns="http://www.w3.org/2000/svg"><g xmlns="http://www.w3.org/2000/svg"><polygon fill="#F26E5F" points="1.293,13.396 6.588,8.101 1.293,2.806 2.806,1.293 8.101,6.588 13.394,1.293 14.908,2.806 9.613,8.101 14.908,13.396 13.394,14.908 8.101,9.613 2.806,14.908 " class="fwns" /></g><path fill="#940F00" d="M13.395,2l0.806,0.806L8.906,8.1l5.295,5.295l-0.806,0.806L8.1,8.906l-5.295,5.295L2,13.395L7.295,8.1L2,2.806L2.806,2L8.1,7.295L13.395,2 M13.395,0.586L8.1,5.88L2.806,0.586l-2.22,2.22L5.88,8.1l-5.295,5.295l2.22,2.22L8.1,10.32l5.295,5.295l2.22-2.22L10.32,8.1l5.295-5.295L13.395,0.586L13.395,0.586z" class="fwns" xmlns="http://www.w3.org/2000/svg" /></svg>
