<?xml version="1.0" encoding="UTF-8" standalone="no"?>
<svg width="16" height="16" viewBox="0 0 16 16" fill="none" xmlns="http://www.w3.org/2000/svg"><g xmlns="http://www.w3.org/2000/svg"><polygon fill="#64B178" points="0.939,9.354 2.353,7.939 5.5,11.086 13.646,2.94 15.061,4.353 5.5,13.914 " class="fwns" /></g><path fill="#305A3B" d="M13.646,3.647l0.707,0.707L5.5,13.207L1.646,9.354l0.707-0.707L5.5,11.793L13.646,3.647 M13.646,2.232l-0.707,0.707L5.5,10.379l-2.44-2.44L2.353,7.232L1.646,7.939L0.939,8.646L0.232,9.354l0.707,0.707l3.854,3.853L5.5,14.621l0.707-0.707l8.854-8.854l0.707-0.707l-0.707-0.707l-0.707-0.707L13.646,2.232L13.646,2.232z" class="fwns" xmlns="http://www.w3.org/2000/svg" /></svg>
