<svg width="106" height="119" xmlns="http://www.w3.org/2000/svg" xmlns:xlink="http://www.w3.org/1999/xlink" xml:space="preserve" overflow="hidden"><defs><clipPath id="clip0"><rect x="743" y="221" width="106" height="119"/></clipPath><linearGradient x1="64.722" y1="85.1683" x2="93.212" y2="109.085" gradientUnits="userSpaceOnUse" spreadMethod="pad" id="fill1"><stop offset="0" stop-color="#292941"/><stop offset="0.22" stop-color="#114A85"/><stop offset="0.44" stop-color="#0A5BA0"/><stop offset="0.65" stop-color="#0669B6"/><stop offset="1" stop-color="#0669B6"/></linearGradient><linearGradient x1="31.428" y1="22.4141" x2="58.7679" y2="61.4821" gradientUnits="userSpaceOnUse" spreadMethod="pad" id="fill2"><stop offset="0" stop-color="#114A85"/><stop offset="0.22" stop-color="#114A85"/><stop offset="0.85" stop-color="#0669B6"/><stop offset="1" stop-color="#0669B6"/></linearGradient><linearGradient x1="63.904" y1="114.602" x2="63.904" y2="12.8055" gradientUnits="userSpaceOnUse" spreadMethod="pad" id="fill3"><stop offset="0" stop-color="#288CD9"/><stop offset="0.1" stop-color="#288CD9"/><stop offset="0.75" stop-color="#3CC5EE"/><stop offset="1" stop-color="#3CC5EE"/></linearGradient><linearGradient x1="60.9665" y1="13.3942" x2="69.2197" y2="44.1324" gradientUnits="userSpaceOnUse" spreadMethod="pad" id="fill4"><stop offset="0" stop-color="#A1ECFF" stop-opacity="0.9"/><stop offset="0.92" stop-color="#A1ECFF" stop-opacity="0"/><stop offset="1" stop-color="#A1ECFF" stop-opacity="0"/></linearGradient></defs><g clip-path="url(#clip0)" transform="translate(-743 -221)"><path d="M66.1791 114.578C64.3137 115.294 62.1416 115.115 60.3786 113.939 57.4402 111.997 55.7538 107.552 57.7213 104.613L82.5828 67.6399 105.425 93.2683C106.984 95.0314 106.831 97.7141 105.068 99.2728 104.71 99.6051 104.301 99.8607 103.867 100.039L66.1791 114.578Z" fill="url(#fill1)" transform="matrix(1 0 0 1.00077 732.168 219.795)"/><path d="M46.1456 70.3226 21.9485 33.9122C21.5397 33.2734 21.3097 32.5069 21.3097 31.6893 21.3097 29.3385 23.226 27.4222 25.5768 27.4222 26.1644 27.4222 26.9565 27.32 27.4676 27.5244L66.8168 46.0236 64.568 50.4951 46.1456 70.3226Z" fill="url(#fill2)" transform="matrix(1 0 0 1.00077 732.168 219.795)"/><path d="M61.6299 114.602C61.1956 114.449 60.7868 114.219 60.3779 113.963 57.4395 112.021 56.6474 108.035 58.5894 105.097L105.859 33.9365C106.268 33.2977 106.498 32.5311 106.498 31.7135 106.498 29.9505 105.425 28.4174 103.866 27.7786L66.1778 13.2399C65.4627 12.9588 64.6958 12.8055 63.9041 12.8055 63.112 12.8055 62.3454 12.9588 61.6299 13.2143L23.9418 27.753C24.4528 27.5486 25.0149 27.4209 25.6026 27.4209 26.1903 27.4209 26.7269 27.5486 27.2378 27.753L56.9796 42.0873C59.1515 43.2116 60.6846 45.3068 60.6846 47.8875 60.6846 49.4972 60.0969 50.9536 59.1003 52.0779L22.4087 93.2663C20.8501 95.0295 21.0034 97.7128 22.7664 99.2715 23.1241 99.6031 23.5329 99.8588 23.9673 100.038L61.6555 114.577" fill="url(#fill3)" transform="matrix(1 0 0 1.00077 732.168 219.795)"/><path d="M27.3154 27.754 57.0572 42.0883C58.8202 42.9826 60.1233 44.5413 60.5833 46.4576L106.499 31.0501C106.269 29.5681 105.324 28.3162 103.969 27.754L66.2813 13.2153C65.5656 12.9342 64.7994 12.7809 64.0069 12.7809 63.215 12.7809 62.4484 12.9342 61.733 13.1897L24.0448 27.7284C24.5558 27.5241 25.118 27.3963 25.7057 27.3963 26.2934 27.3963 26.8299 27.5241 27.341 27.7284L27.3154 27.754Z" fill="url(#fill4)" transform="matrix(1 0 0 1.00077 732.168 219.795)"/></g></svg>