<svg viewBox="0 0 24 24" xmlns="http://www.w3.org/2000/svg">
<path d="M2 5.25005C2 5.66426 2.33579 6.00005 2.75 6.00005C3.16421 6.00005 3.5 5.66426 3.5 5.25005V4.25C3.5 3.83579 3.83579 3.5 4.25 3.5H19.75C20.1642 3.5 20.5 3.83579 20.5 4.25V5.25004C20.5 5.66426 20.8358 6.00004 21.25 6.00004C21.6642 6.00004 22 5.66426 22 5.25004V4.25C22 3.00736 20.9926 2 19.75 2H4.25C3.00736 2 2 3.00736 2 4.25V5.25005Z" fill="black"></path>
<path d="M13.75 5.50005C10.8505 5.50005 8.5 7.85055 8.5 10.75V10.9699L8.50005 10.9785L8.5 10.9871V11.25C8.5 11.6643 8.16421 12 7.75 12H6.75C6.33579 12 6 12.3358 6 12.75C6 13.1643 6.33579 13.5 6.75 13.5H7.75C8.99264 13.5 10 12.4927 10 11.25V10.9871L9.99995 10.9785L10 10.9699V10.75C10 8.67898 11.6789 7.00005 13.75 7.00005H15.25C15.6642 7.00005 16 6.66426 16 6.25005C16 5.83583 15.6642 5.50005 15.25 5.50005H13.75Z" fill="black"></path>
<path d="M11 11.25C11 9.45512 12.4551 8.00005 14.25 8.00005H16.25C16.6642 8.00005 17 8.33583 17 8.75005C17 9.16426 16.6642 9.50005 16.25 9.50005H14.25C13.2835 9.50005 12.5 10.2835 12.5 11.25V11.6678C11.5794 12.4918 11 13.6892 11 15.022C11 15.1735 11.0075 15.3233 11.0221 15.4709C10.5124 15.8031 9.90375 15.9961 9.25 15.9961H6.75C6.33579 15.9961 6 15.6604 6 15.2461C6 14.8319 6.33579 14.4961 6.75 14.4961H9.25C10.2165 14.4961 11 13.7126 11 12.7461V11.8689C11 11.8485 11.0008 11.8282 11.0024 11.8082C11.0008 11.7882 11 11.768 11 11.7475V11.25Z" fill="black"></path>
<path d="M11.3082 16.662C10.8337 16.8791 10.306 17 9.75 17H7.75C7.33579 17 7 17.3358 7 17.75C7 18.1643 7.33579 18.5 7.75 18.5H9.75C10.589 18.5 11.3821 18.3032 12.0856 17.9532C11.7586 17.5728 11.4942 17.137 11.3082 16.662Z" fill="black"></path>
<path d="M22 18.75C22 18.3358 21.6642 18 21.25 18C20.8358 18 20.5 18.3358 20.5 18.75V19.7501C20.5 20.1643 20.1642 20.5001 19.75 20.5001L4.25 20.5001C3.83579 20.5001 3.5 20.1643 3.5 19.7501L3.5 18.75C3.5 18.3358 3.16421 18 2.75 18C2.33579 18 2 18.3358 2 18.75V19.7501C2 20.9927 3.00736 22.0001 4.25 22.0001H19.75C20.9926 22.0001 22 20.9927 22 19.7501V18.75Z" fill="black"></path>
<path d="M13.458 12.218C13.736 13.279 13.109 14.366 12.051 14.655L12.018 14.664C12.006 14.782 12 14.901 12 15.022C12 15.212 12.015 15.398 12.044 15.58C12.951 15.903 13.499 16.833 13.346 17.78C13.6 17.98 13.883 18.144 14.188 18.268C14.931 17.66 16.012 17.669 16.745 18.294C17.034 18.184 17.305 18.037 17.551 17.859L17.542 17.826C17.264 16.765 17.892 15.678 18.949 15.389L18.982 15.38C18.994 15.262 19 15.143 19 15.022C19 14.832 18.985 14.646 18.956 14.464C18.049 14.142 17.501 13.211 17.654 12.263C17.4 12.064 17.117 11.9 16.813 11.776C16.069 12.384 14.988 12.375 14.255 11.75C13.966 11.86 13.695 12.007 13.449 12.186L13.458 12.218ZM15.5 15.772C15.086 15.772 14.75 15.436 14.75 15.022C14.75 14.608 15.086 14.272 15.5 14.272C15.914 14.272 16.25 14.608 16.25 15.022C16.25 15.436 15.914 15.772 15.5 15.772Z" fill="black"></path>
</svg>
