<svg viewBox="0 0 24 24" xmlns="http://www.w3.org/2000/svg">
<path d="M4.774 4.22C4.315 4.708 4 5.31 4 6v12c0 .691.315 1.294.774 1.78.455.483 1.079.883 1.793 1.203C7.996 21.623 9.917 22 12 22h.13a2.253 2.253 0 0 1 .284-1.505c-.137.004-.275.005-.414.005-1.921 0-3.625-.35-4.82-.886-.598-.268-1.036-.568-1.315-.863-.275-.291-.365-.544-.365-.75V8.392c.32.22.68.417 1.067.59C7.996 9.622 9.917 10 12 10c2.083 0 4.004-.377 5.433-1.018.386-.173.746-.37 1.067-.59v4.072l1.5-.012V6c0-.69-.315-1.293-.774-1.78-.455-.482-1.079-.882-1.793-1.202C16.004 2.378 14.083 2 12 2c-2.083 0-4.004.377-5.433 1.018-.714.32-1.338.72-1.793 1.203Zm1.091 2.53C5.59 6.46 5.5 6.208 5.5 6c0-.206.09-.459.365-.75.279-.295.717-.595 1.315-.863C8.375 3.85 10.08 3.5 12 3.5c1.921 0 3.625.351 4.82.887.598.268 1.036.568 1.315.863.275.291.365.544.365.75 0 .207-.09.46-.365.75-.279.296-.717.596-1.315.864-1.195.536-2.899.886-4.82.886-1.921 0-3.625-.35-4.82-.886-.598-.268-1.036-.568-1.315-.863Z"></path><path d="M15.227 13.99a.5.5 0 0 0-.35.854l3.53 3.529v.001l1.086 1.087v-.001l1.656 1.656a.5.5 0 0 0 .854-.35l.049-6.32a.5.5 0 0 0-.504-.505l-6.321.049Zm-.554 6.27h-.002l-.85.85a.751.751 0 0 0-.166.81h.002a.749.749 0 0 0 1.227.25l2.121-2.12a.75.75 0 0 0-1.06-1.061l-1.272 1.271Zm.387-2.155a.75.75 0 0 0-1.061-1.06l-.707.706a.75.75 0 0 0 1.06 1.061l.708-.707Zm3.888 2.828a.75.75 0 0 1 0 1.061l-.707.707a.75.75 0 0 1-1.06-1.06l.707-.707a.75.75 0 0 1 1.06 0Z"></path>
</svg>
