<svg viewBox="0 0 20 20" fill="#117865" xmlns="http://www.w3.org/2000/svg">
<path d="M6 4.5V4a2 2 0 0 1 2-2h8a2 2 0 0 1 2 2v7h-1.5V4a.5.5 0 0 0-.5-.5H8a.5.5 0 0 0-.5.5v.5H6Z"></path><path d="M14 8v3h-.6c-.3 0-.465.016-.765.216a1.857 1.857 0 0 0-.135.1V8a.5.5 0 0 0-.5-.5H4a.5.5 0 0 0-.5.5v8a.5.5 0 0 0 .5.5h7.007c.073.142.17.277.293.4.1.1.2.2.4.3l-.4.4a1.58 1.58 0 0 0-.293.4H4a2 2 0 0 1-2-2V8a2 2 0 0 1 2-2h8a2 2 0 0 1 2 2Z"></path><path d="M13.484 12.004h5a.5.5 0 0 1 .5.5v5a.5.5 0 0 1-.853.354l-5-5a.5.5 0 0 1 .353-.854Zm.056 2.653a.5.5 0 0 1 0 .707l-.706.707a.5.5 0 1 1-.708-.707l.708-.707a.5.5 0 0 1 .707 0Zm2.83 2.829a.5.5 0 0 1 0 .707l-.708.707a.5.5 0 1 1-.707-.707l.707-.707a.5.5 0 0 1 .707 0Zm-1.415-1.414a.5.5 0 0 1 0 .707L12.834 18.9a.5.5 0 1 1-.708-.707l2.122-2.121a.5.5 0 0 1 .707 0Z"></path>
</svg>