<svg viewBox="0 0 24 24" xmlns="http://www.w3.org/2000/svg">
  <path d="M10.25 2A3.25 3.25 0 0 0 7 5.25v.25h1.5v-.25c0-.966.784-1.75 1.75-1.75h8.5c.966 0 1.75.784 1.75 1.75v8.207l1.5-.012V5.25A3.25 3.25 0 0 0 18.75 2h-8.5Z"></path>
  <path d="M17 10.25v3.233l-.787.007a2.027 2.027 0 0 0-.713.131V10.25a1.75 1.75 0 0 0-1.75-1.75h-8.5a1.75 1.75 0 0 0-1.75 1.75v8.5c0 .966.784 1.75 1.75 1.75h7.678a2.256 2.256 0 0 0 .702.691c-.205.243-.35.52-.436.809H5.25A3.25 3.25 0 0 1 2 18.75v-8.5A3.25 3.25 0 0 1 5.25 7h8.5A3.25 3.25 0 0 1 17 10.25Z"></path>
  <path d="M15.5 17.825a.747.747 0 0 0-.501.219l-.707.707a.75.75 0 0 0 1.06 1.06l.708-.706a.75.75 0 0 0-.56-1.28Zm-.143 3.751-.004.002 1.225-1.225-.002.004.368-.369a.75.75 0 1 1 1.061 1.06l-2.121 2.122a.75.75 0 0 1-1.061-1.06l.534-.534ZM17 16.968l-1.125-1.125a.5.5 0 0 1 .35-.854h.002l6.32-.048a.5.5 0 0 1 .505.504l-.05 6.32a.5.5 0 0 1-.853.35L17 16.965v.003Zm2.948 4.965a.75.75 0 0 1 0 1.06l-.707.708a.75.75 0 0 1-1.06-1.06l.707-.708a.75.75 0 0 1 1.06 0Z"></path>
</svg>
