<svg viewBox="0 0 20 20" fill="#117865" xmlns="http://www.w3.org/2000/svg">
<path d="M10 8.001c3.314 0 6-1.343 6-3s-2.686-3-6-3-6 1.343-6 3 2.686 3 6 3Z"></path><path d="M14.69 8.017c.47-.235.927-.534 1.31-.896v3.855h-3.6c-.3 0-.5.1-.8.3-.3.2-.5.4-.6.7-.1.3-.2.6-.1.9 0 .3.2.6.4.8l.1.1c-.05.05-.125.1-.2.15-.075.05-.15.1-.2.15l-.7.7c-.6.6-.6 1.5 0 2.1.1.1.2.2.4.3l-.4.4c-.13.13-.232.273-.305.425C6.683 17.999 4 16.657 4 15V7.12c.383.362.84.66 1.31.896C6.562 8.643 8.222 9 10 9c1.778 0 3.438-.358 4.69-.984Z"></path><path d="M12.484 12.005h5a.5.5 0 0 1 .5.5v5a.5.5 0 0 1-.853.354l-5-5a.5.5 0 0 1 .353-.854Zm.056 2.653a.5.5 0 0 1 0 .707l-.706.707a.5.5 0 1 1-.708-.707l.708-.707a.5.5 0 0 1 .707 0Zm2.83 2.829a.5.5 0 0 1 0 .707l-.708.707a.5.5 0 1 1-.707-.707l.707-.707a.5.5 0 0 1 .707 0Zm-1.415-1.415a.5.5 0 0 1 0 .707l-2.121 2.122a.5.5 0 1 1-.708-.707l2.122-2.122a.5.5 0 0 1 .707 0Z"></path>
</svg>