<svg width="275" height="271" xmlns="http://www.w3.org/2000/svg" xmlns:xlink="http://www.w3.org/1999/xlink" xml:space="preserve" overflow="hidden"><defs><clipPath id="clip0"><rect x="541" y="302" width="275" height="271"/></clipPath><linearGradient x1="137.885" y1="291.807" x2="232.243" y2="128.348" gradientUnits="userSpaceOnUse" spreadMethod="pad" id="fill1"><stop offset="0" stop-color="#0669B6"/><stop offset="0.28" stop-color="#0669B6"/><stop offset="0.49" stop-color="#114A85"/><stop offset="1" stop-color="#114A85"/></linearGradient><linearGradient x1="205.307" y1="239.606" x2="205.307" y2="140.317" gradientUnits="userSpaceOnUse" spreadMethod="pad" id="fill2"><stop offset="0" stop-color="#000000" stop-opacity="0"/><stop offset="0.31" stop-color="#000000" stop-opacity="0"/><stop offset="0.56" stop-color="#000000" stop-opacity="0.4"/><stop offset="1" stop-color="#000000" stop-opacity="0.4"/></linearGradient><linearGradient x1="91.9325" y1="98.1451" x2="215.761" y2="209.605" gradientUnits="userSpaceOnUse" spreadMethod="pad" id="fill3"><stop offset="0" stop-color="#0669B6"/><stop offset="0.33" stop-color="#148DD9"/><stop offset="0.95" stop-color="#3CC5EE"/><stop offset="1" stop-color="#3CC5EE"/></linearGradient><linearGradient x1="169.646" y1="200.566" x2="112.979" y2="102.477" gradientUnits="userSpaceOnUse" spreadMethod="pad" id="fill4"><stop offset="0" stop-color="#000000" stop-opacity="0"/><stop offset="0.29" stop-color="#000000" stop-opacity="0"/><stop offset="0.42" stop-color="#000000" stop-opacity="0.05"/><stop offset="0.64" stop-color="#000000" stop-opacity="0.1"/><stop offset="0.87" stop-color="#000000" stop-opacity="0.3"/><stop offset="1" stop-color="#000000" stop-opacity="0.3"/></linearGradient><linearGradient x1="154.372" y1="127.857" x2="78.3301" y2="83.9458" gradientUnits="userSpaceOnUse" spreadMethod="pad" id="fill5"><stop offset="0" stop-color="#A1ECFF"/><stop offset="0.72" stop-color="#3CC5EE"/><stop offset="1" stop-color="#3CC5EE"/></linearGradient></defs><g clip-path="url(#clip0)" transform="translate(-541 -302)"><path d="M149.453 187.278 129.449 261.011C129.066 262.353 128.874 263.758 128.874 265.228 128.874 274.045 136.032 281.201 144.851 281.201 149.516 281.201 153.671 279.22 156.61 276.09L275.544 141.147C271.646 145.428 266.022 148.112 259.823 148.112L200.835 148.112C176.294 148.112 155.588 164.724 149.453 187.342" fill="url(#fill1)" transform="matrix(1.00281 0 0 1 524.979 283.226)"/><path d="M187.988 240.501C223.202 200.504 275.607 141.147 275.607 141.147 271.709 145.428 266.085 148.112 259.885 148.112L200.897 148.112C176.356 148.112 155.65 164.724 149.515 187.342L135.071 240.501 187.988 240.501Z" fill="url(#fill2)" transform="matrix(1.00281 0 0 1 524.979 283.226)"/><path d="M281.167 126.769C281.167 115.013 271.645 105.493 259.885 105.493L96.4061 105.493 46.8764 158.715C35.1172 158.715 25.5948 168.236 25.5948 179.992 25.5948 191.749 35.1172 201.269 46.8764 201.269L175.398 201.269C187.157 201.269 196.679 210.789 196.679 222.545 196.679 227.976 194.634 232.96 191.247 236.729L268.577 149.004 275.479 141.209 275.415 141.209C278.994 137.376 281.231 132.328 281.231 126.705L281.167 126.769Z" fill="url(#fill3)" transform="matrix(1.00281 0 0 1 524.979 283.226)"/><path d="M156.992 201.333 250.299 105.493 96.4061 105.493 46.8764 158.715C35.1172 158.715 25.5948 168.236 25.5948 179.992 25.5948 191.749 35.1172 201.269 46.8764 201.269L156.992 201.269 156.992 201.333Z" fill="url(#fill4)" transform="matrix(1.00281 0 0 1 524.979 283.226)"/><path d="M157.184 119.487 177.188 45.7539C177.571 44.4121 177.763 43.0065 177.763 41.5369 177.763 32.7196 170.605 25.5636 161.786 25.5636 157.12 25.5636 152.966 27.5443 150.026 30.6751L31.0917 165.618C34.9901 161.337 40.6141 158.654 46.8132 158.654L105.801 158.654C130.342 158.654 151.049 142.041 157.184 119.423" fill="url(#fill5)" transform="matrix(1.00281 0 0 1 524.979 283.226)"/></g></svg>